<?xml version="1.0" encoding="utf-8"?>
<!DOCTYPE svg PUBLIC "-//W3C//DTD SVG 1.0//EN" "http://www.w3.org/TR/2001/REC-SVG-20010904/DTD/svg10.dtd">
<svg version="1.0" xmlns="http://www.w3.org/2000/svg" width="1200px" height="1000px" viewBox="0 0 1200 1000" preserveAspectRatio="xMidYMid meet">
 <g fill="#ffffff">
  <path d="M0 600 l0 -600 600 0 600 0 0 600 0 600 -600 0 -600 0 0 -600z m256.4 136.4 c3.3 -0.8 7.3 -2.3 9 -3.3 1.7 -1 5.2 -2.4 7.8 -3.1 4.7 -1.2 5.6 -3 1.7 -3 -1.1 0 -2.2 -0.8 -2.5 -1.7 -0.3 -1 -1 -2.8 -1.6 -3.9 -1.4 -3.1 -0.6 -21.6 1 -22.2 0.7 -0.2 1.2 -2 1.2 -4.3 0 -2.9 0.6 -4.6 2.4 -6.2 2.3 -2.2 6 -11.4 6.8 -16.7 0.3 -2.4 0.6 -2.5 9.1 -2.8 l8.8 -0.3 1.6 3.8 c0.9 2.1 1.8 5.6 2 7.9 0.5 3.7 0.3 4.2 -2.8 6.2 l-3.4 2.2 3 0 c3 0 3.1 0.2 4.6 7.3 0.9 3.9 2.6 9.8 3.8 12.9 2.4 6.6 2.9 18.6 0.9 20.7 -1.1 1 -0.9 1.5 0.7 2.8 1.6 1.2 3.8 1.3 11.9 0.8 13.2 -0.9 14.3 -1.6 6.1 -3.4 -5.9 -1.4 -7.3 -2.1 -9 -4.8 -1.1 -1.8 -2.6 -3.2 -3.2 -3.3 -1 0 -1.3 -2.7 -1.3 -10 l0 -10 3 0 c1.9 0 6.3 -2.2 13.1 -6.7 5.6 -3.6 11.8 -7.2 13.8 -7.9 2.1 -0.8 8.3 -1.3 14.8 -1.4 l11.1 0 1.1 3.3 c0.6 1.7 2 4.3 3.1 5.7 l1.9 2.5 -0.6 -5.2 -0.6 -5.3 3.9 0 c2.2 0 5.7 0.9 7.8 2 3.9 2 10.7 4.3 16 5.5 2.7 0.6 2.8 0.8 2.3 5.3 -0.3 2.6 -0.9 5.7 -1.2 6.9 -0.9 2.9 1.7 4.1 5 2.3 1.5 -0.8 4.2 -1 8.3 -0.5 3.9 0.4 6.2 0.3 6.6 -0.4 0.5 -0.7 -0.8 -1.1 -3.8 -1.1 -3.7 0 -4.8 -0.5 -7 -3.1 -1.7 -1.9 -2.6 -4.3 -2.6 -6.4 0 -3.1 0.3 -3.4 5.1 -4.9 5 -1.7 12.2 -5.7 13.3 -7.4 1 -1.6 -3.8 -4.9 -7.9 -5.6 -7.2 -1.3 -7.5 -1.4 -7.5 -5.4 0.1 -2 0.7 -4.8 1.5 -6.2 0.8 -1.4 1.4 -4.9 1.5 -7.7 l0 -5.3 12.3 -0.1 c6.7 0 14 -0.3 16.1 -0.7 l4 -0.7 -6 -5 c-3.2 -2.8 -6.2 -5.4 -6.6 -6 -0.4 -0.5 -7.7 -1.5 -16.3 -2.1 -9.3 -0.6 -16.1 -1.6 -16.8 -2.3 -0.8 -0.8 -1.1 -6.7 -0.9 -21.4 0.3 -20 0.3 -20.2 2.7 -22.5 3.1 -2.9 3.1 -3.7 0 -7.4 -2.1 -2.5 -2.5 -4 -2.5 -9.3 l0 -6.3 5.4 -2.6 c7.9 -3.9 9.2 -6.1 1.7 -3.1 -3.9 1.6 -8 2.5 -11.6 2.5 l-5.5 0 0 -3.4 c0 -2.8 0.4 -3.5 2.3 -3.8 1.7 -0.2 2.3 -1.1 2.5 -3.5 0.2 -1.9 -0.1 -3.3 -0.7 -3.3 -0.6 0 -1.1 -1.7 -1.1 -3.7 -0.1 -3.2 -0.6 -4.2 -3.9 -6.4 -3.7 -2.6 -3.8 -2.6 -7.2 -0.9 -1.9 1 -4.3 2.7 -5.3 3.9 -1.6 1.8 -1.7 2.5 -0.8 4.7 1.3 2.6 1.6 15.1 0.6 17.8 -0.5 1.4 -3.4 1.6 -21.9 1.6 -19.8 0 -21.3 0.1 -23 2 -2.2 2.4 -1.6 4.1 2.1 6 3.8 2 4.4 2.8 4.4 7 0 2.4 0.6 3.9 2 4.8 2.6 1.6 2.6 6.9 0 10.2 -1.1 1.4 -2 3.6 -2 5 0 2.1 -1.3 3.1 -8.8 6.7 -4.8 2.3 -10.3 5.8 -12.2 7.8 -3.4 3.5 -3.4 3.5 -0.9 3.5 1.7 0 4.6 2.2 9.9 7.5 l7.4 7.5 16 0 15.9 0 -0.6 5.6 c-0.5 5.1 -0.4 5.6 1.9 6.6 2.2 1 2.4 1.7 2.4 8.5 l0 7.3 -3.2 0 c-2.7 -0.1 -3.8 -0.8 -6 -4 -1.5 -2.1 -4.1 -4.6 -5.7 -5.5 -6.1 -3.1 -27.3 -7.7 -38.2 -8.2 l-10.6 -0.5 -1.2 -9.7 c-0.7 -5.3 -1.5 -14.8 -1.8 -21.2 -0.7 -12.9 -0.8 -12.7 6.2 -14.4 5.3 -1.3 5.4 -3.9 0.3 -4.3 l-3.8 -0.3 0 -4.7 c0 -3.9 -0.8 -5.9 -4.5 -11.5 -3.4 -5.2 -4.5 -7.8 -4.5 -10.8 0 -3.8 0.1 -3.9 3.4 -3.9 l3.4 0 0.7 -7.7 c0.8 -8.4 0.3 -10.1 -3.8 -12.1 -5.2 -2.5 -12.7 2.1 -12.7 7.8 0 2.8 -0.2 3 -3.9 3 -5.6 0 -6.9 -0.7 -9.1 -5 -2.5 -4.9 -7.2 -8.8 -11.5 -9.6 -2.9 -0.5 -4 -0.1 -6.7 2.1 -3 2.6 -3.2 3.1 -3.3 9.6 l0 6.9 -4.6 4 c-2.5 2.1 -5.2 5.3 -5.9 7 -1.6 3.8 -0.8 16.1 1.5 23.7 1.5 4.9 1.7 5.2 5.3 5.5 3.6 0.3 3.7 0.4 3.7 4.3 l0 4 -6 0.9 -6 0.8 -3.4 7.7 c-1.9 4.2 -5.8 13.7 -8.8 21.1 -5.9 15 -8.7 18.6 -15.3 19.6 l-4 0.7 0 6.5 c0 6.5 0 6.6 -4.6 10.9 -2.6 2.3 -7.6 5.7 -11.3 7.4 -3.6 1.7 -10.2 6.1 -14.6 9.8 -4.4 3.7 -10.8 8.8 -14.2 11.5 -3.5 2.6 -6.3 4.9 -6.3 5.2 0 0.2 2.1 -0.6 4.8 -2 2.7 -1.4 11.4 -3.7 20.7 -5.6 8.8 -1.7 22.3 -5.1 30 -7.5 7.7 -2.4 19 -5.4 25 -6.6 10.6 -2.1 11.2 -2.3 15.2 -6.5 3.2 -3.4 4.8 -4.4 7.4 -4.4 l3.2 0 -0.8 6.3 c-1 8.1 -1.1 16.3 0 26.3 1.3 12.9 0 13.9 -14.5 10.8 -10.7 -2.2 -26.3 -0.4 -43.4 5.3 -6.2 2 -5.4 2.4 10.4 5.7 18.4 3.8 25.1 4 37.4 1z m379.3 -8 c7.7 -2.6 8.2 -2.6 27.8 -2.1 11.5 0.3 19.1 0.1 18 -0.4 -14.4 -6.2 -13.5 -5.5 -13.5 -9.3 l0 -3.6 8.6 0 c7 0 34.7 2.5 49.4 4.5 1.9 0.2 2.9 0.2 2.3 -0.1 -0.7 -0.3 -1.3 -2.3 -1.3 -4.4 0 -4.2 1.7 -5.9 6.2 -6.1 7.5 -0.3 -35.4 -7.1 -56.2 -8.9 -6.9 -0.6 -15.3 -1.3 -18.7 -1.6 l-6.2 -0.5 -5.8 -7 c-11.9 -14.2 -14.5 -21.8 -14.7 -43.5 -0.1 -13.9 0.1 -14.4 6.5 -14.4 3.2 0 3.7 -0.3 4.3 -3 0.5 -2.8 0.9 -3 5 -3 3.9 0 5.1 0.6 10 5 l5.5 5.1 0.3 -3.3 c0.3 -3 0.6 -3.3 4 -3.6 2.6 -0.2 5.7 0.7 11.5 3.6 10.3 5.3 22.4 8.9 19.5 6 -0.7 -0.7 -1.2 -2.7 -1.2 -4.5 0 -3 0.3 -3.3 2.9 -3.3 1.6 0 4.8 0.9 7.3 2 2.4 1 6.4 2.2 8.8 2.5 4.3 0.6 4.2 0.5 -3.7 -3.4 l-8.3 -4 0 -4 0 -4.1 6.4 0 c8.5 0 22.7 -2.6 29.6 -5.4 7 -2.8 14.9 -7.7 15 -9.3 0 -0.6 0.5 -1.3 1.1 -1.5 0.5 -0.2 1.3 -2.2 1.6 -4.6 0.5 -4 0.7 -4.2 4.1 -4.2 l3.5 0 -0.7 6 -0.7 6 25.6 0 25.5 0 0 -2.7 c0 -1.6 -0.9 -6.8 -2 -11.8 -13 -58.6 -55 -110.7 -109.8 -136.2 -8.5 -3.9 -27.3 -10.7 -36.2 -13 -3.3 -0.8 -3.5 -1.1 -3.8 -5.6 -0.2 -3.1 0.1 -4.7 0.8 -4.7 0.7 0 -2 -1.7 -6 -3.7 -3.9 -2 -9.1 -5.5 -11.6 -7.8 l-4.4 -4.1 0 -7.7 0 -7.7 6.1 0 6 0 -5.8 -4.9 c-7.5 -6.2 -15.1 -14.4 -16.2 -17.5 -0.6 -1.3 -1 -6.9 -1 -12.5 l0 -10.1 4 0 c2.1 0 3.9 -0.2 3.9 -0.4 0 -0.2 -1.8 -4.1 -3.9 -8.7 -4.9 -10.5 -7.1 -17.1 -7.1 -21 0 -1.8 -0.4 -2.8 -1 -2.4 -0.5 0.3 -1 1.9 -1 3.5 0 3.5 -3.5 13 -7.9 21.7 -1.7 3.4 -3.1 6.5 -3.1 6.8 0 0.3 1.8 0.5 4 0.5 l4 0 0 10.8 c0 13.7 -1.1 15.6 -16.5 29 l-6 5.2 5.8 0 5.7 0 0 7.7 0 7.6 -4.3 4.2 c-2.3 2.2 -7.2 5.6 -10.8 7.4 -6.4 3.3 -6.4 3.4 -6.1 7.2 0.4 3.3 0.1 3.9 -1.9 4.3 -29.7 6.3 -53.4 15.8 -75.5 30.4 -25.1 16.5 -49.1 42.2 -63.3 67.7 -1.5 2.7 -4 5.1 -7.4 7 -4.4 2.5 -4.8 3 -2.9 3.3 1.7 0.3 2.2 1 2.2 3.3 0 1.7 -0.6 4.3 -1.4 5.8 -4.5 8.6 -13.6 40.5 -13.6 47.5 0 1.4 3.4 1.6 32.5 1.6 21 0 32.5 -0.4 32.5 -1 0 -0.5 -0.7 -1 -1.5 -1 -1.1 0 -1.5 -1.2 -1.5 -5 l0 -5 4.1 0 4.2 0 -0.5 4.5 c-0.4 3.1 -0.2 4.5 0.6 4.5 0.7 0 2.5 1.4 4.2 3.1 6.4 6.8 21 11.6 38.2 12.6 l10.2 0.6 0 3.7 c0 4.3 -1.1 5.2 -10.6 9.5 l-5.9 2.6 4.5 -0.6 c2.4 -0.3 6.4 -1.5 8.8 -2.5 2.5 -1.1 5.8 -2 7.5 -2 2.9 0 3 0.1 2.5 4.5 -0.3 2.5 -0.5 4.5 -0.4 4.5 2 0 12.9 -4.1 18.8 -7.1 9.7 -4.9 14.4 -5.2 16.1 -1 l1.2 2.8 5 -4.4 c4.5 -4 5.4 -4.3 9.5 -4.1 4.1 0.3 4.5 0.6 4.8 3.1 0.3 2.5 0.7 2.7 4.6 2.7 6.7 0 7 0.9 6.3 16.8 -1 21.2 -3.5 28 -15.8 42.3 l-4.9 5.6 -12.7 0.7 c-7.1 0.4 -18.4 1.4 -25.3 2.2 -15.5 1.7 -44.9 7.8 -40.2 8.2 3.2 0.3 3.3 0.5 3 4 -0.3 3.3 -0.9 4 -5.3 6.5 -2.7 1.5 -4.1 2.6 -3 2.3 31.9 -8.4 62.5 -12.1 68.3 -8 2.6 1.8 3.1 8.8 0.7 11.4 -1.4 1.5 -0.3 1.6 13.4 1.6 12.4 -0.1 15.2 0.2 16.7 1.5 2.4 2.1 7.5 4.8 9.1 4.9 0.7 0 4.8 -1.2 9 -2.6z m253.1 -9.2 l8.2 -0.4 0 -3.1 0 -3 11.3 0.7 c6.1 0.3 12.2 0.9 13.5 1.2 1.6 0.5 2.2 0.2 2.2 -0.9 0 -2 -2.8 -2.6 -21.5 -4.6 l-15 -1.6 -0.3 -3.8 c-0.3 -3.4 -0.1 -3.7 2.3 -3.7 2.6 0 2.6 -0.1 -2.2 -5.4 -2.6 -3 -5.6 -5.5 -6.5 -5.5 -2.2 -0.1 -3 -3.2 -2.6 -9.7 l0.3 -4.9 7.5 0.1 c8 0.1 8.2 0.2 23.7 4.1 l10.2 2.6 4.2 6 4.2 5.9 14.6 -0.7 14.6 -0.7 3 3.2 c3.9 4.1 13 11.2 17.3 13.4 3.4 1.8 29.3 8.8 29.9 8.2 1 -0.9 -12.7 -11.8 -20.6 -16.5 -9.3 -5.5 -16.1 -12.6 -31.6 -32.6 -8.8 -11.5 -12.1 -15 -17.6 -19.2 -3.8 -2.8 -6.1 -5.8 -9.1 -11.6 -4.9 -9.3 -12.4 -16.7 -20.1 -19.5 -3.4 -1.3 -5.3 -2.6 -5.5 -3.8 -0.2 -1.2 -2.5 -2.9 -6.3 -4.7 -6.7 -3.2 -9.9 -7.2 -9.9 -12.6 l0 -3.4 5.8 0.6 c5.6 0.6 5.6 0.6 3.4 -1.1 -1.3 -1 -2.5 -3.3 -2.9 -5.5 -0.4 -2.9 -1.3 -4.2 -3.5 -5.3 -5.2 -2.7 -6.8 -5 -6.8 -9.8 0 -2.5 0.5 -4.8 1.1 -5.1 0.6 -0.5 0.3 -1.3 -1 -2.2 -1.2 -0.8 -2.8 -2.7 -3.6 -4.3 -1.7 -3.3 -2 -14.7 -0.4 -15.2 0.7 -0.2 0.7 -1.2 -0.1 -3.3 l-1.2 -3 -1.2 3 c-0.7 1.7 -0.9 3.2 -0.4 3.3 0.4 0.2 0.8 3.6 0.8 7.5 0 6.3 -0.3 7.4 -2.6 9.8 -2.3 2.4 -2.7 3.7 -2.8 9.1 l-0.1 6.3 -4.7 3 c-3.9 2.5 -4.7 3.5 -4.7 6.2 -0.1 2.1 -0.9 3.8 -2.6 5.1 l-2.5 2 6 -0.5 6 -0.6 0 3.7 c0 4.7 -5.6 11.1 -11.5 13 -2.9 1 -4.1 2 -4.3 3.8 -0.8 5.1 -4.2 5.9 -15.7 3.4 -6.6 -1.3 -8.8 -0.8 -24.6 6.5 -6.2 2.9 -7.3 3.8 -9.1 7.7 -1.3 2.7 -3.1 4.7 -4.7 5.3 -10.4 3.9 -25.1 11.4 -25.6 13 -0.9 2.8 0.2 3.9 4 3.9 2.7 0 3.9 -0.7 5.7 -3.1 1.3 -1.7 4.2 -4.2 6.6 -5.6 4.2 -2.5 4.5 -2.5 20 -1.9 24.6 1 28.2 1.4 28.2 3.7 0 2.4 0.7 2.4 6.5 -0.1 2.6 -1.1 6.2 -2 8.1 -2 3.2 0 3.4 0.2 3.4 3.3 0 2.7 -0.7 3.7 -4.8 6.4 -7.7 5.3 -15.5 7.6 -23.6 6.9 -5.9 -0.4 -7.3 -0.2 -9.7 1.5 -4.6 3.3 -18.9 9.6 -25.5 11.3 -3.4 0.9 -12.4 2.3 -20 3.1 -19.6 2.2 -34.2 5.4 -36.3 7.9 -1.7 2 18.8 3.7 45.4 3.8 l21.8 0.1 9.3 3.9 c12.9 5.3 17 5.9 32.7 4.7 7.2 -0.5 16 -0.7 19.5 -0.3 6.2 0.6 6.2 0.7 6.2 3.8 -0.1 6 -1.7 6.8 -15.7 8.2 -14.7 1.4 -23.3 3.1 -23.3 4.6 0 0.6 1.2 0.8 2.8 0.5 8.4 -1.8 19.4 -2.9 22.6 -2.3 3.2 0.6 3.6 1 3.6 3.6 0 3 0 3 6.3 3 3.9 0.1 6.9 0.6 8.2 1.6 1.1 0.8 2.6 1.1 3.5 0.8 0.8 -0.4 5.2 -0.9 9.8 -1.2z m-490.3 -1.2 c-0.3 -0.5 -1.8 -1 -3.3 -1 -1.8 0 -3.9 -1.4 -7.1 -4.8 -2.6 -2.7 -5.4 -5.1 -6.4 -5.5 -0.9 -0.4 -2.2 -1.7 -2.7 -2.9 -0.6 -1.7 -0.9 -0.1 -0.9 6 l-0.1 8.2 5.4 -0.6 c3.2 -0.4 6.1 -0.2 7.2 0.4 2.4 1.4 8.7 1.6 7.9 0.2z m138.5 -56.2 c2.4 -0.5 6.5 -1.8 8.9 -2.9 4.3 -1.9 4.4 -2 2.6 -3.9 -2.2 -2.4 -12.1 -5.6 -20.2 -6.5 -7.1 -0.8 -21.5 1.4 -33.6 5.1 -4.8 1.5 -8.5 2.9 -8.3 3.1 0.8 0.8 22.2 5.5 28.6 6.3 6.9 0.8 14.6 0.4 22 -1.2z m161.7 -4.8 c11.8 -1.5 19.4 -4 20.4 -6.8 l0.8 -2.2 -4.9 2.5 c-6.6 3.3 -13.8 3.4 -20.3 0.1 -5.8 -3 -26.9 -8 -30 -7.2 -1.2 0.3 -4.6 2 -7.6 3.7 -6.2 3.6 -6 3.9 3.9 6.9 11.3 3.5 25 4.6 37.7 3z m-266.7 -104.5 c2.1 -2.3 2.7 -3.3 1.5 -2.7 -1.1 0.6 -3.6 2.7 -5.5 4.7 -2.1 2.3 -2.7 3.3 -1.5 2.7 1.1 -0.6 3.6 -2.7 5.5 -4.7z m5 -115.5 c1.2 -0.8 1.1 -1 -0.7 -1 -1.3 0 -2.3 0.5 -2.3 1 0 1.3 1.1 1.3 3 0z m382.5 -19.2 c4.4 -1.6 13.2 -4.5 19.5 -6.4 l11.5 -3.5 -8 0.5 c-4.4 0.3 -11.6 1.5 -16 2.7 -12.6 3.4 -15.1 3.5 -25.1 0.1 -4.9 -1.7 -11.4 -3.3 -14.4 -3.6 l-5.5 -0.6 7.5 2.8 c9 3.3 16.6 7.6 18.3 10.3 0.7 1.1 1.8 1.7 2.7 1.3 0.8 -0.3 5.1 -2 9.5 -3.6z"/>
  <path d="M387.1 677.3 l-9.3 -0.4 0.6 -4.2 c0.4 -2.3 0.9 -6.6 1.2 -9.5 0.4 -3.2 1.1 -5.5 2 -5.9 0.8 -0.3 1.4 -1.5 1.4 -2.7 0 -5.1 1.1 -6.6 4.7 -6.6 2.6 0 3.6 0.5 4 2 0.4 1.6 1.4 2 5.2 2 4.3 0 5.1 0.4 9.4 4.8 4.2 4.3 4.7 5.2 4.7 9.3 0 3.1 -0.7 5.7 -2.3 8 -2.5 3.8 -3 3.9 -21.6 3.2z"/>
  <path d="M502 596.5 c0 -3 0.3 -3.5 2.3 -3.5 1.2 0 4.6 -0.3 7.5 -0.6 l5.2 -0.7 0 3.5 c0 3.5 0 3.5 -5.2 4.2 -9.6 1.1 -9.8 1 -9.8 -2.9z"/>
  <path d="M737.8 598.7 l-6.8 -0.9 0 -3.6 0 -3.5 5.3 0.7 c2.8 0.4 7.8 1 11 1.3 5.7 0.6 5.7 0.6 5.7 3.9 0 3.3 -0.1 3.4 -4.2 3.3 -2.4 -0.1 -7.3 -0.6 -11 -1.2z"/>
  <path d="M522 593.7 c0 -3.2 0.2 -3.4 5.1 -4.5 2.8 -0.7 6.1 -1.2 7.5 -1.2 1.3 0 2.4 -0.4 2.4 -1 0 -0.5 1.6 -1 3.5 -1 3.3 0 3.5 0.2 3.5 3.5 0 3.3 -0.2 3.5 -3.5 3.5 -1.9 0 -3.5 0.4 -3.5 0.8 0 1 -8.9 3.2 -12.6 3.2 -2.1 0 -2.4 -0.5 -2.4 -3.3z"/>
  <path d="M719.3 595.3 c-1.9 -0.4 -2.3 -1.1 -2.3 -3.9 0 -3.7 1.2 -4.1 7.9 -2.8 2.7 0.6 3.1 1 3.1 4 0 3.2 -0.2 3.4 -3.2 3.3 -1.8 -0.1 -4.3 -0.4 -5.5 -0.6z"/>
  <path d="M550 584.7 c0 -3.8 2.7 -5.7 8 -5.7 2.7 0 3 0.3 3 3.3 0 3.8 -2.7 5.7 -8 5.7 -2.7 0 -3 -0.3 -3 -3.3z"/>
  <path d="M695 583.5 c0 -3.3 0.2 -3.5 3.5 -3.5 3.3 0 3.5 0.2 3.5 3.5 0 3.3 -0.2 3.5 -3.5 3.5 -3.3 0 -3.5 -0.2 -3.5 -3.5z"/>
  <path d="M557 574.5 c0 -3.3 0.2 -3.5 3.5 -3.5 3.3 0 3.5 0.2 3.5 3.5 0 3.3 -0.2 3.5 -3.5 3.5 -3.3 0 -3.5 -0.2 -3.5 -3.5z"/>
  <path d="M566 574.5 c0 -3.3 0.2 -3.5 3.5 -3.5 3.3 0 3.5 0.2 3.5 3.5 0 3.3 -0.2 3.5 -3.5 3.5 -3.3 0 -3.5 -0.2 -3.5 -3.5z"/>
  <path d="M680 575 c0 -1.3 -0.7 -2 -2 -2 -1.6 0 -2 -0.7 -2 -3.5 0 -3.3 0.2 -3.5 3.5 -3.5 2.8 0 3.5 0.4 3.5 2 0 1.3 0.7 2 2 2 1.6 0 2 0.7 2 3.5 0 3.3 -0.2 3.5 -3.5 3.5 -2.8 0 -3.5 -0.4 -3.5 -2z"/>
  <path d="M688 573.5 c0 -3.3 0.2 -3.5 3.5 -3.5 3.3 0 3.5 0.2 3.5 3.5 0 3.3 -0.2 3.5 -3.5 3.5 -3.3 0 -3.5 -0.2 -3.5 -3.5z"/>
  <path d="M714 570.5 c0 -3.3 0.2 -3.5 3.5 -3.5 3.3 0 3.5 0.2 3.5 3.5 0 3.3 -0.2 3.5 -3.5 3.5 -3.3 0 -3.5 -0.2 -3.5 -3.5z"/>
  <path d="M866 685.4 c-3.5 -3.2 -4 -4.2 -4 -7.9 0 -3 0.5 -4.5 1.6 -4.9 2.4 -0.9 8.4 -0.7 8.4 0.3 0 0.5 1 1.1 2.3 1.3 2 0.3 2.2 0.9 2.5 7.6 l0.3 7.2 -3.6 0 c-2.6 0 -4.5 -0.9 -7.5 -3.6z"/>
  <path d="M845.7 628.3 c-0.4 -0.3 -0.7 -2.1 -0.7 -3.9 0 -2.7 0.5 -3.4 3.1 -4.3 1.8 -0.6 4.7 -1.1 6.5 -1.1 3.2 0 3.4 0.2 3.4 3.4 0 2.5 -0.7 3.9 -2.2 5 -2.2 1.6 -8.9 2.2 -10.1 0.9z"/>
 </g>
 <g fill="#fef8f0">
  <path d="M497.1 607.8 c-1.4 -1.3 -1.9 -1.5 -1.2 -0.5 1.3 1.6 -0.6 1.7 -35.8 1.7 l-37.1 0 0.6 -4.2 c2.3 -16.7 7.1 -34.8 12.6 -47.7 l1.9 -4.6 -3.5 3.4 -3.6 3.5 1.6 -4.2 c1.5 -3.8 2 -4.1 5 -4 2.9 0.1 3.4 0.5 3.4 2.6 0 1.3 -1.6 6.6 -3.5 11.8 -1.9 5.1 -3.5 9.6 -3.5 9.9 0 0.3 22.3 0.5 49.5 0.5 l49.5 0 0 -3.4 c0 -3.3 -0.1 -3.4 -5 -4.1 -4.9 -0.7 -5 -0.8 -5 -4.1 0 -3.7 0.8 -4 8.3 -2.8 3.1 0.6 3.7 1.1 3.7 3 0 1.9 0.5 2.4 2.5 2.4 2.3 0 2.5 0.4 2.5 4 0 5.1 1.6 5.8 8.4 3.6 6.6 -2 10.6 -2.1 10.6 -0.1 0 0.9 0.6 1.2 1.5 0.9 0.8 -0.4 1.5 -1.8 1.5 -3.3 0 -2.9 3.1 -5.1 7 -5.1 1 0 2.2 -0.4 2.5 -1 0.3 -0.5 2.2 -1 4.1 -1 3.5 0 3.5 0.1 3.2 3.8 -0.2 3 -0.7 3.8 -2.5 4 -1.5 0.2 -2.3 1 -2.3 2.3 0 1.4 -0.7 1.9 -2.5 1.9 -1.8 0 -2.5 0.5 -2.5 1.8 0 1.3 -2.4 3.2 -7.7 6.1 -13.6 7.4 -31.5 12.4 -51.3 14.2 -6.9 0.7 -12.7 1.4 -12.9 1.5 -0.2 0.2 0.4 1.5 1.3 2.9 1 1.5 1.6 3.5 1.4 4.6 -0.3 1.9 -0.4 1.9 -2.7 -0.3z"/>
  <path d="M754 608 c0 -1.2 0.9 -3.4 2 -5 l1.9 -2.7 -8.7 -0.7 c-21.4 -1.6 -40.3 -6.4 -54.6 -13.9 -7.6 -3.9 -10.2 -5.8 -10.4 -7.4 -0.2 -1.5 -1.1 -2.3 -3 -2.5 -1.6 -0.2 -3.1 -1.2 -3.7 -2.5 -0.5 -1.3 -1.3 -2.3 -1.7 -2.3 -0.5 0 -0.8 -1.6 -0.8 -3.5 0 -3.2 0.2 -3.5 3 -3.5 3.7 0 12 3.9 12 5.7 0 0.8 1.3 1.3 3.5 1.3 1.9 0 3.5 0.3 3.5 0.8 0 0.4 3.4 1.5 7.6 2.6 5.6 1.3 7.9 1.5 8.7 0.7 1.4 -1.4 7.7 -1.5 7.7 -0.1 0 0.7 15.2 1 43.5 1 26.5 0 43.5 -0.4 43.5 -0.9 0 -0.6 -1.1 -4.1 -2.5 -7.9 -1.4 -3.8 -2.5 -7.5 -2.5 -8.1 0 -0.7 -0.7 -1.9 -1.5 -2.7 -0.8 -0.9 -1.5 -3.1 -1.5 -5 0 -2.4 -0.5 -3.4 -1.5 -3.4 -1 0 -1.5 -1.1 -1.5 -3.5 0 -6.5 1.7 -4.3 8.2 10.5 5.8 13.1 11.7 34.4 13.3 48.3 l0.7 5.7 -31 0 c-17.1 0 -31.7 0.3 -32.6 0.6 -1.2 0.4 -1.6 0 -1.6 -1.6z"/>
  <path d="M719 565.6 c0 -3.1 0.3 -3.4 3.8 -4 7.4 -1.2 8.2 -0.9 8.2 2.8 0 3.1 -0.3 3.4 -3.7 4 -7.5 1.2 -8.3 0.9 -8.3 -2.8z"/>
  <path d="M443.6 539.2 c1 -1 3.7 -4.8 5.8 -8.5 2.2 -3.7 4.3 -6.7 4.8 -6.7 0.4 0 0.8 1.6 0.8 3.5 0 1.9 -0.4 3.5 -0.9 3.5 -0.5 0 -1.2 1.1 -1.5 2.5 -0.4 1.4 -1.3 2.5 -2.1 2.5 -0.9 0 -1.5 1 -1.5 2.5 0 2.2 -0.4 2.5 -3.7 2.5 -3.6 0 -3.6 0 -1.7 -1.8z"/>
  <path d="M791.4 536.8 c-0.3 -1.2 -1.3 -2.8 -2 -3.6 -0.8 -0.7 -1.4 -2 -1.4 -2.8 0 -0.8 -0.4 -1.4 -1 -1.4 -0.5 0 -1 -0.7 -1 -1.5 0 -0.8 -0.4 -1.5 -1 -1.5 -0.5 0 -1 -0.7 -1 -1.5 0 -0.8 -0.4 -1.5 -1 -1.5 -0.5 0 -1 -0.7 -1 -1.5 0 -0.8 -0.4 -1.5 -1 -1.5 -0.5 0 -1 -0.9 -1 -2 0 -1.1 -0.7 -2 -1.5 -2 -0.9 0 -1.5 -0.9 -1.5 -2.5 0 -1.8 -0.5 -2.5 -2 -2.5 -1.6 0 -2 -0.7 -2 -3 0 -2.5 -0.4 -3 -2.3 -3 -3.3 0 -4.7 -1.8 -4.7 -5.9 l0.1 -3.6 4.5 5 c9.1 10.1 26.4 34.8 26.4 37.7 0 0.4 -1.1 0.8 -2.4 0.8 -1.7 0 -2.7 -0.7 -3.2 -2.2z"/>
  <path d="M458.1 517.4 c3.8 -5.6 16.7 -21.1 19.7 -23.8 l2.2 -1.9 0 3.5 c0 3.7 -4.2 8.8 -7.2 8.8 -1.1 0 -1.8 1 -2 2.8 -0.2 1.9 -0.9 2.8 -2.5 3 -1.7 0.3 -2.3 1 -2.3 2.8 0 1.5 -0.6 2.4 -1.5 2.4 -0.8 0 -1.5 0.9 -1.5 2 0 1.1 -0.4 2 -1 2 -0.5 0 -1 0.7 -1 1.5 0 1 -1 1.5 -3 1.5 l-3.1 0 3.2 -4.6z"/>
  <path d="M487.5 484.5 c10.2 -9.3 34.7 -26.5 37.7 -26.5 0.4 0 0.8 1.1 0.8 2.4 0 2.4 -1.6 3.6 -5.1 3.6 -1 0 -1.9 0.7 -1.9 1.5 0 0.8 -0.7 1.5 -1.5 1.5 -0.8 0 -1.5 0.5 -1.5 1 0 0.6 -0.7 1 -1.5 1 -0.8 0 -1.5 0.5 -1.5 1 0 0.6 -0.7 1 -1.5 1 -0.8 0 -1.5 0.5 -1.5 1 0 0.6 -0.7 1 -1.5 1 -0.8 0 -1.5 0.5 -1.5 1 0 0.6 -0.9 1 -2 1 -1.1 0 -2 0.7 -2 1.5 0 0.9 -0.9 1.5 -2.5 1.5 -1.8 0 -2.5 0.5 -2.5 2 0 1.6 -0.7 2 -3.4 2 -3.2 0 -3.5 0.3 -3.8 3.3 -0.3 3 -0.6 3.2 -4.3 3.5 l-4 0.2 5 -4.5z"/>
  <path d="M749.7 486.3 c-0.4 -0.3 -0.7 -1.7 -0.7 -3 0 -1.9 -0.5 -2.3 -3 -2.3 -2 0 -3 -0.5 -3 -1.5 0 -0.8 -0.9 -1.5 -2 -1.5 -1.1 0 -2 -0.7 -2 -1.5 0 -0.8 -0.9 -1.5 -2 -1.5 -1.1 0 -2 -0.7 -2 -1.5 0 -0.8 -0.9 -1.5 -2 -1.5 -1.1 0 -2 -0.4 -2 -1 0 -0.5 -0.7 -1 -1.5 -1 -0.8 0 -1.5 -0.7 -1.5 -1.5 0 -0.9 -0.9 -1.5 -2.5 -1.5 -1.4 0 -2.5 -0.4 -2.5 -0.9 0 -0.5 -1.1 -1.2 -2.5 -1.5 -1.4 -0.4 -2.5 -1.3 -2.5 -2.1 0 -0.8 -0.9 -1.5 -2 -1.5 -1.1 0 -4.4 -1.2 -7.5 -2.7 -4.3 -2.1 -5.5 -3.2 -5.5 -5 0 -2 0.3 -2.1 2.5 -1.3 11.4 4.3 35 19.8 48 31.3 l4 3.6 -3.6 0.1 c-2 0 -3.9 -0.3 -4.2 -0.7z"/>
  <path d="M539.2 451.8 c0.3 -0.7 1.9 -1.8 3.6 -2.5 3.1 -1.3 3.2 -1.2 3.2 1.2 0 2.2 -0.4 2.5 -3.6 2.5 -2.3 0 -3.4 -0.4 -3.2 -1.2z"/>
  <path d="M694 449.5 c0 -2.4 0.1 -2.5 3.2 -1.2 4.6 1.9 4.8 3.7 0.4 3.7 -3.2 0 -3.6 -0.3 -3.6 -2.5z"/>
  <path d="M549.2 447.8 c0.4 -1.3 17.7 -7.6 21.1 -7.7 1.1 -0.1 1.7 0.6 1.7 1.9 0 1.6 -0.7 2 -3.5 2 -1.9 0 -3.5 0.4 -3.5 0.8 0 1.1 -9.9 4.2 -13.4 4.2 -1.8 0 -2.6 -0.5 -2.4 -1.2z"/>
  <path d="M674 443 c0 -2.1 1 -2.4 4.8 -1.4 3.6 1 2.7 3.4 -1.3 3.4 -2.8 0 -3.5 -0.4 -3.5 -2z"/>
  <path d="M573 440.6 c0 -1.3 2.8 -2.6 5.8 -2.6 0.6 0 1.2 0.9 1.2 2 0 1.6 -0.7 2 -3.5 2 -2.3 0 -3.5 -0.5 -3.5 -1.4z"/>
  <path d="M583 438.7 c0 -0.7 1.2 -1.8 2.8 -2.4 l2.7 -1.1 -2.7 -0.1 c-4.1 -0.2 -3.4 -2.1 0.7 -2.1 3.3 0 3.5 0.2 3.5 3.5 0 3.3 -0.2 3.5 -3.5 3.5 -2.2 0 -3.5 -0.5 -3.5 -1.3z"/>
 </g>
 <g fill="#fef2e0">
  <path d="M561.3 580.4 c1.5 -0.8 2.7 -1.6 2.7 -1.7 0 -0.1 -3.8 -0.1 -8.5 0 -7.4 0.2 -8.5 0 -8.5 -1.5 0 -1.2 1.7 -2.3 5.3 -3.6 2.8 -1 8.5 -3.3 12.6 -5.2 4.1 -1.9 8.7 -3.4 10.2 -3.4 2.7 0 2.9 0.3 2.9 3.6 0 2.8 -0.8 4.3 -3.2 6.7 -5 4.6 -9 6.7 -12.8 6.7 l-3.5 -0.1 2.8 -1.5z"/>
  <path d="M686 580.4 c-6.2 -4.2 -10 -8.8 -10 -12.1 0 -2.9 0.3 -3.3 2.8 -3.3 1.5 0 7.9 2.3 14.2 5 6.3 2.7 12.1 5 12.8 5 0.6 0 1.2 0.8 1.2 1.9 0 1.7 -0.8 1.8 -8.5 1.7 -4.7 0 -8.5 0 -8.5 0.1 0 0.1 1.2 0.9 2.8 1.7 l2.7 1.5 -3.5 0.1 c-2 0 -4.7 -0.7 -6 -1.6z m-3.8 -8.7 c-1.2 -1.3 -1.9 -2.7 -1.5 -3.2 0.5 -0.4 0.2 -0.5 -0.5 -0.1 -1.1 0.6 -0.8 1.3 0.9 3.2 1.2 1.3 2.5 2.4 2.7 2.4 0.3 0 -0.4 -1 -1.6 -2.3z"/>
  <path d="M430.7 573.8 c0.8 -2.9 2.5 -8 3.8 -11.3 1.3 -3.3 2.6 -6.9 3.1 -8 0.5 -1.6 0 -1.3 -2.5 1 l-3.3 3 2.1 -5.3 c1.2 -2.9 2.1 -5.5 2.1 -5.7 0 -0.3 1.6 -0.5 3.5 -0.5 3.3 0 3.5 0.2 3.5 3.5 l0 3.5 40.3 0 40.2 0 11.4 -3 c15 -4 16.1 -3.9 16.1 0.4 l0 3.3 -11 2.8 c-6 1.6 -11 3.2 -11 3.6 0 0.5 2.7 1.1 6.1 1.5 l6.1 0.7 -0.6 4.6 c-0.3 2.5 -0.6 6 -0.6 7.8 l0.1 3.2 -55.5 0.1 -55.5 0 1.6 -5.2z"/>
  <path d="M714 575.8 c0 -1.8 -0.2 -5.4 -0.6 -7.9 l-0.6 -4.6 6.1 -0.7 c3.4 -0.4 6.1 -1.1 6.1 -1.6 0 -0.4 -3.4 -1.6 -7.5 -2.6 -7.5 -1.8 -7.5 -1.8 -7.5 -5.1 0 -2.9 0.3 -3.3 2.8 -3.3 1.5 0 6.1 0.9 10.2 2 6.8 1.8 10.9 2 42.3 2 l34.7 0 -3.5 -7 c-1.9 -3.8 -3.5 -7.9 -3.5 -9 0 -1.1 -0.7 -2 -1.5 -2 -0.9 0 -1.5 -0.9 -1.5 -2.5 0 -1.6 -0.6 -2.5 -1.5 -2.5 -1 0 -1.5 -1.1 -1.5 -3.5 0 -1.9 0.4 -3.5 0.8 -3.5 1.1 0 10.5 16.2 14.8 25.5 2.9 6.5 10.4 27.3 10.4 29.1 0 0.2 -21.6 0.4 -48.1 0.4 -38.1 0 -47.9 -0.3 -47.3 -1.2 0.6 -1 0.4 -1 -0.7 0 -2.1 2 -2.9 1.4 -2.9 -2z"/>
  <path d="M444.2 538.8 c0.8 -0.7 3.6 -4.8 6.2 -9.2 4.8 -8 12.9 -19.3 18.5 -25.6 l3 -3.5 0.1 3.8 c0 3.3 -0.3 3.7 -2.5 3.7 -2.1 0 -2.5 0.5 -2.5 3 0 2 -0.5 3 -1.5 3 -0.8 0 -1.5 0.9 -1.5 2 0 1.5 -0.7 2 -2.5 2 -2.2 0 -2.5 0.4 -2.5 3.5 0 1.9 -0.4 3.5 -1 3.5 -0.5 0 -1 0.7 -1 1.5 0 0.8 -0.7 1.5 -1.5 1.5 -0.9 0 -1.5 0.9 -1.5 2.5 0 1.6 -0.6 2.5 -1.5 2.5 -0.8 0 -1.5 0.9 -1.5 1.9 0 3.9 -1.1 5.1 -4.8 5.1 -3 0 -3.3 -0.2 -2 -1.2z"/>
  <path d="M779 517 c0 -1.1 -0.7 -2 -1.5 -2 -0.9 0 -1.5 -0.9 -1.5 -2.5 0 -1.8 -0.5 -2.5 -2 -2.5 -1.7 0 -2 -0.7 -2 -3.7 l0.1 -3.8 3.4 4 c1.9 2.2 4.9 5.9 6.5 8.3 l3.1 4.2 -3 0 c-2.4 0 -3.1 -0.4 -3.1 -2z"/>
  <path d="M480 491.5 c1.7 -2 16.7 -14.8 21.8 -18.5 l4.2 -3.2 0 3.1 c0 2.4 -0.4 3.1 -2 3.1 -1.1 0 -2 0.7 -2 1.5 0 0.9 -0.9 1.5 -2.4 1.5 -1.8 0 -2.5 0.6 -2.8 2.3 -0.2 1.8 -1 2.3 -4 2.5 -3.4 0.3 -3.8 0.6 -3.8 3.1 0 3.6 -2.8 6.1 -7 6.1 -2.7 0 -3.1 -0.2 -2 -1.5z"/>
  <path d="M751.7 488.3 c-0.4 -0.3 -0.7 -1.9 -0.7 -3.5 0 -2.5 -0.3 -2.8 -3.5 -2.8 -3.2 0 -3.5 -0.2 -3.5 -3.1 l0 -3 2.8 2 c1.5 1.1 5 4.1 7.7 6.5 l5 4.5 -3.6 0.1 c-2 0 -3.9 -0.3 -4.2 -0.7z"/>
  <path d="M732 472 c0 -0.5 -0.7 -1 -1.5 -1 -1 0 -1.5 -1 -1.5 -3 l0 -3.1 4.4 3.1 c6 4.1 6.4 5 2.2 5 -2 0 -3.6 -0.4 -3.6 -1z"/>
  <path d="M514 465.2 c0 -0.8 5.2 -4.2 6.4 -4.2 0.3 0 0.6 1.1 0.6 2.5 0 2.2 -0.4 2.5 -3.5 2.5 -1.9 0 -3.5 -0.4 -3.5 -0.8z"/>
  <path d="M537 453 c0 -0.9 4.4 -3.2 11.8 -6.1 1.9 -0.7 2.2 -0.5 2.2 1.6 0 2.2 -0.4 2.5 -3.5 2.5 -2.4 0 -3.5 0.5 -3.5 1.5 0 1 -1.1 1.5 -3.5 1.5 -1.9 0 -3.5 -0.5 -3.5 -1z"/>
  <path d="M696 452 c0 -0.5 -1.1 -1 -2.5 -1 -1.4 0 -2.5 -0.4 -2.5 -1 0 -0.5 -0.7 -1 -1.7 -1 -2.6 0 -12.3 -3.3 -12.3 -4.2 0 -0.4 -1.6 -0.8 -3.5 -0.8 -2.8 0 -3.5 -0.4 -3.5 -2 0 -2.7 1.2 -2.6 13.2 1.4 18.6 6.1 24.5 9.6 16.3 9.6 -1.9 0 -3.5 -0.4 -3.5 -1z"/>
  <path d="M569 441.6 c0 -1.3 2.8 -2.6 5.8 -2.6 0.6 0 1.2 0.9 1.2 2 0 1.6 -0.7 2 -3.5 2 -2.3 0 -3.5 -0.5 -3.5 -1.4z"/>
  <path d="M578 439.6 c0 -1.3 2.8 -2.6 5.8 -2.6 0.6 0 1.2 0.9 1.2 2 0 1.6 -0.7 2 -3.5 2 -2.3 0 -3.5 -0.5 -3.5 -1.4z"/>
  <path d="M579.8 434.3 c1.2 -0.2 3 -0.2 4 0 0.9 0.3 -0.1 0.5 -2.3 0.4 -2.2 0 -3 -0.2 -1.7 -0.4z"/>
 </g>
 <g fill="#fde9cc">
  <path d="M522 559.5 c0 -0.3 1 -1 2.3 -1.5 1.3 -0.5 -14.8 -0.9 -42.6 -0.9 l-44.7 -0.1 1.5 -3.7 1.6 -3.8 -3 3.5 c-1.8 2.1 -3 2.9 -3 2 -0.1 -3 3.8 -9.6 8.1 -14 2.4 -2.5 6.3 -7.7 8.6 -11.6 4.2 -7.2 13.4 -20 19 -26.4 l3.1 -3.5 0.1 3.8 c0 3 -0.3 3.7 -2 3.7 -1.5 0 -2 0.7 -2 2.6 0 1.7 -0.6 2.8 -2 3.1 -1.1 0.3 -2 1.4 -2 2.4 0 1.1 -0.7 1.9 -1.5 1.9 -0.8 0 -1.5 0.9 -1.5 2 0 1.1 -0.4 2 -1 2 -0.5 0 -1 0.7 -1 1.5 0 0.8 -0.4 1.5 -1 1.5 -0.5 0 -1 0.7 -1 1.5 0 0.8 -0.4 1.5 -1 1.5 -0.5 0 -1 0.4 -1 0.9 0 0.6 2.4 1.1 5.3 1.3 4.5 0.3 5.2 0.6 5.5 2.6 l0.3 2.2 37.5 0 37.4 0 0 -2.2 c0 -2.1 1 -2.5 10.5 -4.8 5.8 -1.3 10.5 -2.7 10.5 -3.1 0 -1.1 5 -2.9 8 -2.9 2.7 0 3 0.3 3 3.3 0 2.6 -0.6 3.6 -2.5 4.5 -1.4 0.7 -3.4 1.2 -4.5 1.2 -1 0 -2 0.4 -2.2 0.9 -0.1 0.5 -3.6 1.8 -7.7 2.9 l-7.3 1.9 3.4 1.6 c1.8 0.9 4.6 2 6.1 2.6 2.2 0.9 2.7 1.7 2.7 4.4 0 5.6 -4.5 8.3 -21.3 12.7 -10.2 2.7 -18.7 3.8 -18.7 2.5z"/>
  <path d="M712.8 557 c-16.1 -4.3 -20.8 -7.2 -20.8 -12.5 0 -2.9 0.5 -3.4 6.3 -6 l6.2 -2.8 -4.2 -1 c-4 -0.9 -4.3 -1.2 -4.3 -4.3 0 -4.1 1.1 -4.2 11.9 -1.8 5.7 1.3 7.1 2 7.1 3.5 0 1.8 1.4 1.9 37 1.9 34.8 0 36.9 -0.1 36.3 -1.7 -0.4 -1 -1.3 -2.4 -2 -3.1 -0.7 -0.7 -1.3 -2 -1.3 -2.8 0 -0.8 -0.4 -1.4 -1 -1.4 -0.5 0 -1 -0.7 -1 -1.5 0 -0.8 -0.4 -1.5 -1 -1.5 -0.5 0 -1 -0.9 -1 -2 0 -1.1 -0.7 -2 -1.5 -2 -0.8 0 -1.5 -0.9 -1.5 -2 0 -1.1 -0.7 -2 -1.5 -2 -0.9 0 -1.5 -0.9 -1.5 -2.5 0 -1.8 -0.5 -2.5 -2 -2.5 -1.6 0 -2 -0.7 -2 -3.5 0 -3.2 -0.3 -3.5 -2.8 -3.5 -3.8 0 -5.2 -1.7 -5.2 -5.9 l0.1 -3.6 4.5 5 c7.7 8.4 17 20.6 22.5 29.5 4.8 7.8 14.9 27.5 14.9 29.3 0 0.4 -17.4 0.7 -38.7 0.8 -24.2 0 -38 0.4 -36.5 0.9 1.2 0.5 2.2 1.2 2.2 1.5 0 1.3 -9.5 0.1 -19.2 -2.5z"/>
  <path d="M687 530 c0 -0.5 -1.1 -1 -2.5 -1 -2.2 0 -2.5 -0.4 -2.5 -3.5 0 -3.3 0.2 -3.5 3.5 -3.5 1.9 0 3.5 0.5 3.5 1 0 0.6 1.1 1 2.5 1 2.2 0 2.5 0.4 2.5 3.5 0 3.3 -0.2 3.5 -3.5 3.5 -1.9 0 -3.5 -0.4 -3.5 -1z"/>
  <path d="M669 515.5 c0 -3.3 0.2 -3.5 3.5 -3.5 3.3 0 3.5 0.2 3.5 3.5 0 3.3 -0.2 3.5 -3.5 3.5 -3.3 0 -3.5 -0.2 -3.5 -3.5z"/>
  <path d="M545 514.5 c0 -3.3 0.2 -3.5 3.5 -3.5 3.3 0 3.5 0.2 3.5 3.5 0 3.3 -0.2 3.5 -3.5 3.5 -3.3 0 -3.5 -0.2 -3.5 -3.5z"/>
  <path d="M477 495 c1.1 -1.6 3.4 -3.9 5 -5 l3 -2.1 0 2.9 c0 3.6 -3.7 7.2 -7.4 7.2 l-2.7 0 2.1 -3z"/>
  <path d="M754.2 490.8 c-0.7 -0.7 -1.2 -2.4 -1.2 -3.9 0 -2.5 -0.4 -2.8 -3.7 -3.1 -3.1 -0.2 -3.9 -0.7 -4.1 -2.5 -0.3 -1.7 -1 -2.3 -2.8 -2.3 -1.5 0 -2.4 -0.6 -2.4 -1.5 0 -0.8 -0.9 -1.5 -2 -1.5 -1.6 0 -2 -0.7 -2 -3.1 l0 -3.1 4.3 3.1 c4.9 3.7 21.7 18.1 21.7 18.7 0 1 -6.7 0.3 -7.8 -0.8z"/>
  <path d="M488 484.6 c0 -1.4 27.3 -21.6 29.2 -21.6 0.4 0 0.8 1.1 0.8 2.5 0 2.1 -0.5 2.5 -3 2.5 -2.3 0 -3 0.4 -3 2 0 1.1 -0.7 2 -1.5 2 -0.8 0 -1.5 0.5 -1.5 1 0 0.6 -0.9 1 -2 1 -1.1 0 -2 0.7 -2 1.5 0 0.8 -0.9 1.5 -2 1.5 -1.1 0 -2 0.7 -2 1.5 0 1 -1 1.5 -3 1.5 -2.5 0 -3 0.4 -3 2.5 0 2.2 -0.4 2.5 -3.5 2.5 -1.9 0 -3.5 -0.2 -3.5 -0.4z"/>
  <path d="M726 467.5 c0 -0.9 -0.9 -1.5 -2.5 -1.5 -1.6 0 -2.5 -0.6 -2.5 -1.5 0 -0.9 -0.9 -1.5 -2.5 -1.5 -2 0 -2.5 -0.5 -2.5 -2.5 0 -1.4 0.3 -2.5 0.6 -2.5 1.1 0 14.3 8.2 15.5 9.6 0.9 1.2 0.5 1.4 -2.5 1.4 -2.5 0 -3.6 -0.4 -3.6 -1.5z"/>
  <path d="M521 461.2 c0 -0.8 7.1 -5.2 8.4 -5.2 1.4 0 0.5 4.8 -1 5.4 -2.3 0.9 -7.4 0.7 -7.4 -0.2z"/>
  <path d="M535 454 c0 -1 3.9 -3 14.3 -7.1 l4.7 -1.9 0 2.5 c0 2 -0.5 2.5 -2.5 2.5 -1.4 0 -2.5 0.5 -2.5 1 0 0.6 -1.6 1 -3.5 1 -2.4 0 -3.5 0.5 -3.5 1.5 0 1 -1.1 1.5 -3.5 1.5 -1.9 0 -3.5 -0.5 -3.5 -1z"/>
  <path d="M698 451.5 c0 -2.4 0.1 -2.5 3.2 -1.2 4.6 1.9 4.8 3.7 0.4 3.7 -3.2 0 -3.6 -0.3 -3.6 -2.5z"/>
  <path d="M562 443.6 c0 -1.3 2.8 -2.6 5.8 -2.6 0.6 0 1.2 0.9 1.2 2 0 1.6 -0.7 2 -3.5 2 -2.3 0 -3.5 -0.5 -3.5 -1.4z"/>
  <path d="M666 440.6 c0 -2.3 0.2 -2.4 3.5 -1.3 1.9 0.6 3.5 1.6 3.5 2.4 0 0.8 -1.3 1.3 -3.5 1.3 -3 0 -3.5 -0.3 -3.5 -2.4z"/>
  <path d="M584 438.6 c0 -0.7 1 -1.7 2.3 -2.1 l2.2 -0.8 -2.2 -0.4 c-3.6 -0.7 -2.7 -2.3 1.2 -2.3 3.3 0 3.5 0.2 3.5 3.5 0 3.3 -0.2 3.5 -3.5 3.5 -2.3 0 -3.5 -0.5 -3.5 -1.4z"/>
 </g>
 <g fill="#fde0b6">
  <path d="M445.6 538.1 c1 -1 2.6 -1.6 3.4 -1.4 1.3 0.4 1.3 0.3 0.1 -0.5 -1.2 -0.9 -0.6 -2.5 3.5 -9.2 2.7 -4.5 8.7 -13 13.4 -18.8 7.9 -10 8.5 -10.5 8.8 -7.9 0.5 4 -0.4 5.7 -2.8 5.7 -1.5 0 -2 0.7 -2 2.5 0 1.8 -0.5 2.5 -2 2.5 -1.3 0 -2 0.7 -2 2 0 2 0.7 2 34.5 2 33.2 0 34.5 -0.1 34.5 -1.9 0 -2.1 1.9 -3.1 6.1 -3.1 2.4 0 2.9 0.4 2.9 2.5 0 1.4 0.5 2.5 1 2.5 0.6 0 1 -0.9 1 -2 0 -1.8 0.7 -2 5.5 -2 4.8 0 5.5 0.2 5.5 2 0 1.1 0.7 2 1.5 2 0.9 0 1.5 -0.9 1.5 -2.3 0 -2.1 0.6 -2.4 9.3 -3.5 5 -0.6 11.1 -0.9 13.5 -0.6 4 0.6 4.2 0.8 4.2 4 0 1.9 -0.4 3.4 -1 3.4 -0.5 0 -1 0.6 -1 1.3 0 2 -6.7 7.5 -13.2 10.8 -3.4 1.7 -10.2 4.1 -15.1 5.4 -4.9 1.2 -9.2 2.6 -9.6 3.1 -0.3 0.5 -19.6 0.7 -44.8 0.4 -41.8 -0.5 -44.2 -0.4 -43.7 1.3 0.6 1.9 -0.6 2.3 -2.2 0.7 -0.8 -0.8 -1.9 -0.8 -3.8 0 -1.5 0.5 -4.1 1 -5.8 1 -3.1 0 -3.1 0 -1.2 -1.9z"/>
  <path d="M707.8 537 c-0.2 -0.6 -4.1 -1.9 -8.6 -3 -9.6 -2.3 -21.2 -7.4 -25.9 -11.4 -2.5 -2.1 -3.3 -3.6 -3.3 -6.2 0 -2.4 0.5 -3.4 1.5 -3.4 0.9 0 1.5 -0.9 1.5 -2.5 0 -2.9 -0.2 -2.9 11.8 -1.3 8.6 1.1 9.2 1.4 9.2 3.5 0 1.6 0.6 2.3 2 2.3 1.3 0 2 -0.7 2 -2 0 -1.7 0.7 -2 5 -2 2.8 0 5 -0.4 5 -1 0 -0.5 1.6 -1 3.5 -1 1.9 0 3.5 0.5 3.5 1 0 0.6 0.9 1 2 1 1.3 0 2 0.7 2 2 0 2 0.7 2 29 2 18.7 0 29 -0.4 29 -1 0 -0.5 -0.7 -1 -1.5 -1 -0.9 0 -1.5 -0.9 -1.5 -2.5 0 -1.8 -0.5 -2.5 -2 -2.5 -2.4 0 -3.3 -1.7 -2.8 -5.7 0.3 -2.6 0.7 -2.3 7.1 5.7 6.1 7.6 17 23.9 18.4 27.6 0.4 1.2 -5.7 1.4 -42.1 1.4 -23.5 -0.1 -43.1 0.2 -43.5 0.5 -0.5 0.3 -1.1 0.1 -1.3 -0.5z"/>
  <path d="M759.1 495.6 c-2.3 -2.4 -3.2 -4.1 -2.9 -6 l0.3 -2.7 3.7 3.1 c2.1 1.7 4.7 4.4 5.8 6 l2.1 3 -2.8 0 c-2 0 -4 -1.1 -6.2 -3.4z"/>
  <path d="M490.5 482.4 c2.2 -1.9 5.2 -4.4 6.8 -5.5 l2.7 -2 0 3 c0 2.8 -0.3 3.1 -3 3.1 -2.5 0 -3 0.4 -3 2.5 0 2.2 -0.4 2.5 -3.7 2.5 l-3.8 -0.1 4 -3.5z"/>
  <path d="M741 478.5 c0 -0.8 -0.9 -1.5 -2 -1.5 -1.1 0 -2 -0.7 -2 -1.5 0 -0.8 -0.9 -1.5 -2 -1.5 -1.6 0 -2 -0.7 -2 -3.1 l0 -3 4.4 3.2 c2.5 1.7 6 4.4 7.8 6 l3.3 2.8 -3.7 0.1 c-2.7 0 -3.8 -0.4 -3.8 -1.5z"/>
  <path d="M510.3 467.5 c3.6 -3.2 4.7 -3.1 4.7 0 0 2.2 -0.4 2.5 -3.7 2.5 l-3.8 -0.1 2.8 -2.4z"/>
  <path d="M724 465.5 c0 -3 0.3 -3 4.1 -0.8 3.8 2.3 3.7 3.3 -0.6 3.3 -3.1 0 -3.5 -0.3 -3.5 -2.5z"/>
  <path d="M516 464.2 c0 -0.8 5.2 -4.2 6.4 -4.2 0.3 0 0.6 1.1 0.6 2.5 0 2.2 -0.4 2.5 -3.5 2.5 -1.9 0 -3.5 -0.4 -3.5 -0.8z"/>
  <path d="M714 459.5 c0 -3 0.3 -3 4.1 -0.8 3.8 2.3 3.7 3.3 -0.6 3.3 -3.1 0 -3.5 -0.3 -3.5 -2.5z"/>
  <path d="M525 459.2 c0 -0.9 7.7 -5.4 12.3 -7.1 2.4 -1 2.7 -0.8 2.7 1.2 0 1.7 -1.1 2.8 -4.5 4.5 -4.5 2.2 -10.5 3 -10.5 1.4z"/>
  <path d="M700 453.5 c0 -1 -1.1 -1.5 -3.5 -1.5 -1.9 0 -3.5 -0.4 -3.5 -1 0 -0.5 -1.1 -1 -2.5 -1 -2 0 -2.5 -0.5 -2.5 -2.5 l0 -2.5 4.8 1.9 c14.8 6 17.7 8.1 10.7 8.1 -2.4 0 -3.5 -0.5 -3.5 -1.5z"/>
  <path d="M550 448 c0 -0.5 0.9 -1.4 2 -2 2.5 -1.4 24.4 -7.6 29.8 -8.5 3.7 -0.6 4.2 -0.4 4.2 1.2 0 1.5 -1.5 2.2 -7.7 3.6 -4.3 0.9 -8.8 1.7 -10 1.7 -1.3 0 -2.3 0.4 -2.3 0.8 0 1.1 -9.9 4.2 -13.3 4.2 -1.5 0 -2.7 -0.4 -2.7 -1z"/>
  <path d="M673 443 c0 -2.1 1 -2.4 4.8 -1.4 3.6 1 2.7 3.4 -1.3 3.4 -2.8 0 -3.5 -0.4 -3.5 -2z"/>
  <path d="M580.8 434.3 c1.2 -0.2 3 -0.2 4 0 0.9 0.3 -0.1 0.5 -2.3 0.4 -2.2 0 -3 -0.2 -1.7 -0.4z"/>
 </g>
 <g fill="#fcd69f">
  <path d="M578 519.5 c1.1 -1.3 -5.7 -1.5 -58.9 -1.7 l-60.1 -0.3 4.9 -6.5 c2.7 -3.6 7.6 -9.4 10.9 -13 5.8 -6.1 6.1 -6.4 6.2 -3.7 l0 2.7 42.5 0 42.5 0 0 3.5 c0 3 -0.6 3.9 -5.2 7.1 l-5.3 3.6 6.5 -0.7 c3.6 -0.4 9.3 -1.3 12.8 -2.1 3.5 -0.8 7.6 -1.4 9.3 -1.4 2.7 0 2.9 0.3 2.9 3.7 0 5.2 -3.6 10.3 -7.4 10.3 -2.4 0 -2.7 -0.2 -1.6 -1.5z m-25.2 -5.2 c-1 -0.2 -2.6 -0.2 -3.5 0 -1 0.3 -0.2 0.5 1.7 0.5 1.9 0 2.7 -0.2 1.8 -0.5z"/>
  <path d="M669.6 517.9 c-1.8 -2.1 -2.6 -4.2 -2.6 -7 0 -3.7 0.2 -3.9 2.9 -3.9 1.7 0 5.8 0.6 9.3 1.4 7 1.6 18.8 3.1 18.8 2.3 0 -0.2 -2.2 -1.8 -5 -3.5 -4.5 -2.8 -5 -3.5 -5 -6.7 l0 -3.5 39.5 0 39.4 0 6.2 7.4 c3.4 4 7 8.7 8.1 10.5 l2 3.1 -53.8 0 c-49.5 0 -53.9 -0.1 -55.8 -1.7 -1.2 -1 -0.8 -0.3 0.8 1.5 l3 3.2 -2.6 0 c-1.7 0 -3.5 -1.1 -5.2 -3.1z"/>
  <path d="M484 488.5 c0 -0.6 16.2 -14.1 20.8 -17.3 l3.2 -2.3 0 3 c0 2.4 -0.4 3.1 -2 3.1 -1.1 0 -2 0.7 -2 1.5 0 0.9 -0.9 1.5 -2.5 1.5 -1.8 0 -2.5 0.5 -2.5 2 0 1.6 -0.7 2 -3 2 -2.5 0 -3 0.4 -3 2.3 0 1.3 -0.5 2.8 -1.2 3.5 -1.1 1.1 -7.8 1.7 -7.8 0.7z"/>
  <path d="M747 483 c0 -1.5 -0.7 -2 -2.5 -2 -2.1 0 -2.5 -0.5 -2.5 -3.1 l0 -3 2.8 2 c1.5 1.1 4.3 3.3 6.2 5 l3.5 3 -3.7 0.1 c-3.1 0 -3.8 -0.3 -3.8 -2z"/>
  <path d="M730 471 c0 -0.5 -0.7 -1 -1.5 -1 -0.9 0 -1.5 -0.9 -1.5 -2.5 0 -1.4 0.4 -2.5 0.8 -2.5 1.1 0 9.2 5.8 9.2 6.5 0 0.3 -1.6 0.5 -3.5 0.5 -1.9 0 -3.5 -0.4 -3.5 -1z"/>
  <path d="M513 466.2 c0 -0.7 10.2 -7.2 11.4 -7.2 0.3 0 0.6 1.1 0.6 2.5 0 2 -0.5 2.5 -2.5 2.5 -1.6 0 -2.5 0.6 -2.5 1.5 0 1 -1.1 1.5 -3.5 1.5 -1.9 0 -3.5 -0.3 -3.5 -0.8z"/>
  <path d="M719 463 c0 -1.6 -0.7 -2 -3 -2 -1.6 0 -5.4 -1.2 -8.5 -2.7 -4.3 -2.1 -5.5 -3.2 -5.5 -5 0 -2 0.3 -2.2 2.8 -1.2 4.6 1.7 21.2 11.2 21.2 12.1 0 0.4 -1.6 0.8 -3.5 0.8 -2.8 0 -3.5 -0.4 -3.5 -2z"/>
  <path d="M540 452.1 c0 -1.2 0.5 -1.5 6.8 -4 l5.2 -2.1 0 2.5 c0 2 -0.5 2.5 -2.5 2.5 -1.4 0 -2.5 0.5 -2.5 1 0 0.6 -1.6 1 -3.5 1 -1.9 0 -3.5 -0.4 -3.5 -0.9z"/>
  <path d="M681 447.3 c-2.5 -0.9 -4.6 -2 -4.8 -2.4 -0.2 -0.5 -1.4 -0.9 -2.7 -0.9 -1.2 0 -3.7 -0.3 -5.4 -0.6 -2.8 -0.6 -3.1 -1 -3.1 -4.2 0 -3.1 0.2 -3.4 1.3 -1.9 0.6 0.9 5.9 3 11.6 4.7 11.4 3.4 14.1 4.6 14.1 6 0 1.5 -5.9 1.1 -11 -0.7z"/>
 </g>
 <g fill="#fbcb86">
  <path d="M562 501.5 c1.1 -1.3 -4 -1.5 -43.6 -1.7 l-44.9 -0.3 8.5 -8.6 c10.1 -10 23.8 -20.8 35.4 -27.9 4.6 -2.7 8.7 -5 9 -5 0.3 0 0.6 1.1 0.6 2.5 0 2 -0.5 2.5 -2.5 2.5 -1.6 0 -2.5 0.6 -2.5 1.5 0 0.9 -0.9 1.5 -2.5 1.5 -1.6 0 -2.5 0.6 -2.5 1.5 0 0.8 -0.7 1.5 -1.5 1.5 -0.8 0 -1.5 0.5 -1.5 1 0 0.6 -0.7 1 -1.5 1 -0.8 0 -1.5 0.5 -1.5 1 0 0.6 -0.9 1 -2 1 -1.1 0 -2 0.7 -2 1.5 0 0.8 -0.9 1.5 -2 1.5 -1.1 0 -2 0.7 -2 1.5 0 0.9 -0.9 1.5 -2.5 1.5 -1.6 0 -2.5 0.6 -2.5 1.6 0 1.4 4 1.5 40.5 1.2 l40.5 -0.3 0 3.2 c0 2.8 -0.4 3.2 -3.7 4 -3.7 0.8 -3.7 1 -3.5 5.1 0.4 5.2 -3 9.2 -7.9 9.2 -2.7 0 -3 -0.2 -1.9 -1.5z"/>
  <path d="M684.6 500.1 c-2.2 -2.3 -2.7 -3.6 -2.4 -6.7 0.3 -3.4 0 -3.9 -2 -4.2 -1.8 -0.3 -2.2 -1 -2.2 -3.8 l0 -3.4 32.5 0 c31.8 0 32.5 0 32.5 -2 0 -1.5 -0.7 -2 -2.5 -2 -1.6 0 -2.5 -0.6 -2.5 -1.5 0 -0.8 -0.9 -1.5 -2 -1.5 -1.1 0 -2 -0.4 -2 -1 0 -0.5 -0.7 -1 -1.5 -1 -1 0 -1.5 -1 -1.5 -3.1 l0 -3 3.3 2.2 c7.9 5.5 20.8 16.4 27.7 23.3 l7.4 7.6 -39.3 0 c-34.9 0 -39.2 0.2 -38.1 1.5 1.1 1.3 0.8 1.5 -1.7 1.5 -1.9 0 -3.9 -1 -5.7 -2.9z"/>
  <path d="M722 465.5 c0 -0.9 -0.9 -1.5 -2.5 -1.5 -2 0 -2.5 -0.5 -2.5 -2.5 0 -1.4 0.3 -2.5 0.6 -2.5 1.2 0 11.4 6.5 11.4 7.2 0 0.5 -1.6 0.8 -3.5 0.8 -2.4 0 -3.5 -0.5 -3.5 -1.5z"/>
  <path d="M538.2 452.8 c0.3 -0.7 1.9 -1.8 3.6 -2.5 3.1 -1.3 3.2 -1.2 3.2 1.2 0 2.2 -0.4 2.5 -3.6 2.5 -2.3 0 -3.4 -0.4 -3.2 -1.2z"/>
  <path d="M695 452 c0 -0.5 -1.1 -1 -2.5 -1 -2 0 -2.5 -0.5 -2.5 -2.5 l0 -2.5 5.2 2.1 c6.3 2.5 6.8 2.8 6.8 4 0 0.5 -1.6 0.9 -3.5 0.9 -1.9 0 -3.5 -0.4 -3.5 -1z"/>
  <path d="M548.2 448.8 c0.3 -0.7 1.9 -1.8 3.6 -2.5 3.1 -1.3 3.2 -1.2 3.2 1.2 0 2.2 -0.4 2.5 -3.6 2.5 -2.3 0 -3.4 -0.4 -3.2 -1.2z"/>
  <path d="M560 444.7 c0 -1.2 6 -3.7 8.9 -3.7 2.1 0 1.1 3.8 -1.1 4.4 -4 1 -7.8 0.7 -7.8 -0.7z"/>
  <path d="M672 443 c0 -2.1 1 -2.4 4.8 -1.4 3.6 1 2.7 3.4 -1.3 3.4 -2.8 0 -3.5 -0.4 -3.5 -2z"/>
  <path d="M575 440.6 c0 -0.9 1.9 -1.8 5 -2.5 6.7 -1.4 7 -1.4 7 0.8 0 1.4 -1 2 -3.7 2.5 -6 0.9 -8.3 0.7 -8.3 -0.8z"/>
  <path d="M581.8 434.3 c1.2 -0.2 3 -0.2 4 0 0.9 0.3 -0.1 0.5 -2.3 0.4 -2.2 0 -3 -0.2 -1.7 -0.4z"/>
 </g>
 <g fill="#fac16e">
  <path d="M568.5 486.6 c4.5 -1.2 0.5 -1.4 -37.4 -1.7 l-42.4 -0.4 6.9 -5.6 c7.7 -6.4 21.3 -15.9 22.6 -15.9 0.4 0 0.8 0.7 0.8 1.5 0 1.3 5.2 1.5 40.5 1.5 l40.5 0 0 3.9 c0 3.3 -0.7 4.4 -4.4 7.9 -7.3 6.8 -13.7 9.4 -23.6 9.8 l-8.5 0.4 5 -1.4z"/>
  <path d="M669.3 485.1 c-3.4 -1.6 -8.2 -4.9 -10.8 -7.2 -3.8 -3.6 -4.5 -4.7 -4.5 -8 l0 -3.9 33 0 c28.7 0 33 -0.2 33 -1.5 0 -0.8 -0.9 -1.5 -1.9 -1.5 -3.5 0 -5.1 -1.2 -5.1 -3.6 0 -1.3 0.3 -2.4 0.7 -2.4 2.6 0 24.5 14.7 34.2 22.9 l5.4 4.6 -36.4 0.5 c-30.6 0.4 -35.5 0.7 -30.9 1.6 l5.5 1.2 -8 0.1 c-6.9 0.1 -8.8 -0.3 -14.2 -2.8z"/>
  <path d="M522 461.2 c0 -0.8 5.2 -4.2 6.4 -4.2 0.3 0 0.6 1.1 0.6 2.5 0 2.2 -0.4 2.5 -3.5 2.5 -1.9 0 -3.5 -0.4 -3.5 -0.8z"/>
  <path d="M534 454.9 c0 -0.9 6.5 -4.2 13.8 -7 1.9 -0.7 2.2 -0.5 2.2 1.6 0 2.2 -0.4 2.5 -3.5 2.5 -2.3 0 -3.5 0.5 -3.5 1.4 0 0.8 -0.7 1.7 -1.6 2 -2.6 1 -7.4 0.7 -7.4 -0.5z"/>
  <path d="M697 451.5 c0 -2.4 0.1 -2.5 3.2 -1.2 4.6 1.9 4.8 3.7 0.4 3.7 -3.2 0 -3.6 -0.3 -3.6 -2.5z"/>
  <path d="M687 447.5 c0 -2.4 0.1 -2.5 3.2 -1.2 4.6 1.9 4.8 3.7 0.4 3.7 -3.2 0 -3.6 -0.3 -3.6 -2.5z"/>
  <path d="M551 447.9 c0 -1.1 5.5 -3.7 10.1 -4.6 2.4 -0.5 2.9 -0.2 2.9 1.4 0 1.4 -1.1 2.3 -3.9 3.1 -4.8 1.5 -9.1 1.5 -9.1 0.1z"/>
  <path d="M675 445 c0 -0.5 -1.1 -1 -2.4 -1 -1.3 0 -3.8 -0.3 -5.5 -0.6 -2.7 -0.6 -3.1 -1 -3.1 -4 0 -3.9 0.5 -4.2 2.8 -1.5 1 1 4.7 2.7 8.5 3.6 7.4 2 9.2 4.5 3.2 4.5 -1.9 0 -3.5 -0.4 -3.5 -1z"/>
  <path d="M567 442.6 c0 -0.8 1.9 -1.8 4.4 -2.5 6 -1.5 6.6 -1.4 6.6 0.8 0 1.3 -1 2 -3.1 2.5 -5.1 1 -7.9 0.7 -7.9 -0.8z"/>
 </g>
 <g fill="#fab653">
  <path d="M596.6 470.5 c0.5 -1.3 -4.9 -1.5 -43.2 -1.7 l-43.9 -0.3 7.5 -4.8 c7.7 -5 21.4 -11.9 30.8 -15.6 l5.2 -2.1 0 2.5 c0 2 -0.5 2.5 -2.5 2.5 -1.4 0 -2.5 0.5 -2.5 1 0 0.6 2.6 1 5.7 1 4 0 6.2 0.5 7.6 1.7 1.3 1.3 4 1.9 9.5 2.1 6.9 0.3 7.9 0.6 9.9 3 l2.3 2.7 7.8 -2.7 c4.3 -1.6 9.2 -2.8 11 -2.8 2.9 0 3.2 0.3 3.2 3.3 0 1.7 -0.9 5.1 -2 7.5 -1.5 3.3 -2.4 4.2 -4.4 4.2 -1.8 0 -2.4 -0.4 -2 -1.5z"/>
  <path d="M651.6 468.6 c-0.9 -1.9 -1.6 -5.2 -1.6 -7.5 0 -3.8 0.2 -4.1 2.7 -4.1 1.5 0 6.2 1.2 10.5 2.8 l7.8 2.7 2.7 -3.3 c2.6 -3.4 2.6 -3.4 9.2 -2.7 5.5 0.5 7.1 0.3 9.5 -1.4 2.5 -1.7 2.6 -2 1.1 -2.8 -1 -0.6 -1.5 -1.9 -1.3 -3.1 0.3 -2.1 0.6 -2.1 9.9 2.1 5.3 2.4 14.5 7.3 20.4 10.8 l10.8 6.4 -38.3 0.3 c-33.3 0.2 -38.1 0.4 -37.6 1.7 0.4 1.1 -0.1 1.5 -1.8 1.5 -1.7 0 -2.8 -1 -4 -3.4z"/>
  <path d="M681.3 447.8 c-2.3 -0.8 -3.3 -1.7 -3.3 -3.1 0 -1.6 0.5 -1.9 2.9 -1.4 4.6 0.9 10.1 3.5 10.1 4.6 0 1.4 -5.4 1.2 -9.7 -0.1z"/>
  <path d="M564 443.6 c0 -1.3 2.8 -2.6 5.8 -2.6 0.6 0 1.2 0.9 1.2 2 0 1.6 -0.7 2 -3.5 2 -2.3 0 -3.5 -0.5 -3.5 -1.4z"/>
  <path d="M572 441.6 c0 -1 2.4 -2 6.9 -3 8.8 -2 9.1 -2 9.1 0.2 0 1.4 -1.3 2.1 -5.8 3 -7.6 1.6 -10.2 1.5 -10.2 -0.2z"/>
  <path d="M582.8 434.3 c1.2 -0.2 3 -0.2 4 0 0.9 0.3 -0.1 0.5 -2.3 0.4 -2.2 0 -3 -0.2 -1.7 -0.4z"/>
 </g>
 <g fill="#f8aa38">
  <path d="M597 470.1 c2.2 -3.2 5.3 -10.1 4.6 -10.1 -0.3 0 -2.8 0.9 -5.6 2 l-5 2 0 -2.5 c0 -1.9 0.5 -2.5 2.1 -2.5 1.1 0 2.7 -0.7 3.5 -1.5 0.9 -0.8 3.1 -1.5 5 -1.5 3.4 0 3.4 0 3.4 4.5 0 2.5 -0.4 4.5 -1 4.5 -0.5 0 -1 1.1 -1 2.5 0 1.4 -0.4 2.5 -1 2.5 -0.5 0 -1 0.7 -1 1.5 0 1 -1 1.5 -3.1 1.5 l-3 0 2.1 -2.9z"/>
  <path d="M652 469.1 c0 -1.1 -0.5 -2.1 -1.1 -2.3 -0.6 -0.2 -1.4 -2.7 -1.7 -5.6 l-0.5 -5.2 3 0 c3.2 0 13.6 3.8 14.1 5.2 0.5 1.2 6.2 1 6.2 -0.2 0 -0.5 0.7 -1 1.5 -1 0.8 0 1.5 -0.9 1.5 -2 0 -1.7 0.7 -2 4.3 -2.1 l4.2 0 -4 -1.3 c-5.7 -1.8 -11.7 -5 -13.9 -7.5 -2.5 -2.7 -3.5 -11.1 -1.3 -11.1 0.9 0 1.9 0.9 2.2 2 0.3 1.1 1.3 2 2.1 2 3 0 26.1 8.1 33.9 11.9 l8 3.9 -6 0.1 c-4.2 0.1 -6.9 0.7 -9 2.1 -4 2.6 -7.5 2.6 -7.5 0 0 -1.1 -0.7 -2 -1.5 -2 -0.9 0 -1.5 0.9 -1.5 2.1 0 1.7 -0.5 2 -3 1.7 -2.5 -0.2 -3.7 0.4 -6.3 3.5 l-3.2 3.7 -9.7 -3.4 c-6 -2 -9.8 -2.9 -9.8 -2.2 0 0.6 0.9 2.8 2 4.9 2.5 4.7 2.5 4.7 -0.5 4.7 -1.8 0 -2.5 -0.5 -2.5 -1.9z"/>
  <path d="M578.6 463.8 c-2.3 -3.1 -3.5 -3.8 -6.2 -3.8 -2.7 0 -3.4 -0.4 -3.4 -2 0 -1.1 -0.7 -2 -1.5 -2 -0.9 0 -1.5 0.9 -1.5 2.1 0 1.9 -0.4 2.1 -3.2 1.5 -1.7 -0.3 -3.9 -1.3 -4.8 -2.1 -1.3 -1.2 -4.6 -1.5 -14.1 -1.6 l-12.4 -0.1 8 -3.8 c9.2 -4.4 29.4 -11.2 40.8 -13.6 8.2 -1.7 9.8 -3 4.5 -3.7 -2.5 -0.3 -2.2 -0.4 1.5 -0.5 l4.7 -0.2 0 5.2 c0 4.7 -0.3 5.4 -4 8.9 -2.6 2.5 -6.1 4.5 -10.3 5.8 l-6.2 2 4.3 0 c3.1 0.1 4.4 0.6 4.9 1.9 0.4 0.9 1.1 2 1.6 2.3 0.4 0.3 0.7 2.1 0.5 4 l-0.3 3.4 -2.9 -3.7z"/>
 </g>
 <g fill="#49b0d5">
  <path d="M230 741 c-7.7 -1 -32.6 -6.6 -37.8 -8.5 l-3.7 -1.4 3.1 0 c1.7 -0.1 5.9 -1.2 9.3 -2.6 16.7 -6.8 40.6 -10 53.6 -7.2 6.7 1.5 7.1 1.5 8.4 -0.4 0.7 -1 1.7 -1.9 2.2 -1.9 1.2 0 1.1 6.2 -0.1 9.4 -0.5 1.4 -0.5 2.8 -0.1 3.1 0.5 0.2 3.5 -0.3 6.7 -1.4 5.5 -1.7 5.7 -1.9 3.2 -2.6 -2.4 -0.6 -2.8 -1.3 -2.8 -4.1 0 -2.5 -0.4 -3.4 -1.6 -3.4 -1.5 0 -1.6 -1 -1.1 -8.3 0.7 -9.8 3.5 -21.7 5.1 -21.7 1.2 -0.1 4.6 -6.2 4.6 -8.5 0 -0.7 0.4 -1.5 1 -1.7 0.5 -0.1 1.3 -3.2 1.6 -6.8 0.3 -3.6 1.3 -8.4 2.1 -10.8 1.6 -4.3 1.6 -4.3 6.2 -4 4.4 0.3 4.6 0.5 7.8 6.2 1.8 3.2 3.3 6.6 3.3 7.6 0 1 0.5 2 1.2 2.2 0.7 0.3 1.4 4.1 1.8 9.9 0.8 11 3 22.9 4.2 22.9 0.4 0 0.8 1.1 0.8 2.5 0 1.4 0.5 2.5 1 2.5 0.6 0 1 1.8 1 4 0 9.6 -5 0.2 -8.8 -16.5 -0.8 -3.8 -1.7 -7.2 -1.9 -7.4 -0.1 -0.2 -2.4 0.7 -5 2.1 -2.7 1.4 -8.5 3.8 -12.9 5.2 -6.4 2.1 -8.3 3.2 -8.8 4.9 -0.9 3.4 -0.7 12.5 0.3 14.5 0.5 0.9 1.2 2.5 1.5 3.5 0.3 0.9 1.5 1.7 2.6 1.7 1.1 0 2.9 0.9 4.1 2.1 1.9 1.9 1.9 2.2 0.4 3.9 -0.9 1 -3.7 2.3 -6.3 3 -2.6 0.7 -6.1 2.1 -7.8 3.1 -7.1 4.2 -25.4 6.6 -38.4 4.9z m53.9 -48.7 c3.6 -2 8.9 -5.2 11.8 -7.1 l5.2 -3.4 -1.7 -4.7 -1.8 -4.6 -5.9 0 c-5.6 0 -6 0.2 -6.3 2.5 -0.8 5.3 -4.5 14.5 -6.8 16.7 -2.3 2.1 -3.2 4.3 -1.7 4.3 0.3 0 3.6 -1.7 7.2 -3.7z"/>
  <path d="M307.8 735.9 c-3.2 -1.8 -1.4 -12.9 2.1 -12.9 1.1 0 1.2 1.1 0.8 5 l-0.6 5 9.4 0 c7.4 0 9.5 0.3 9.5 1.4 0 0.7 -1 1.6 -2.2 2 -3.7 0.9 -17.1 0.6 -19 -0.5z"/>
  <path d="M332 734.1 c0 -1.1 0.6 -2.1 1.3 -2.4 0.6 -0.2 -1.2 -0.7 -4 -1.1 -2.9 -0.4 -5.3 -1.1 -5.3 -1.6 0 -0.6 -0.9 -1 -2 -1 -2.5 0 -5 -4.8 -4.9 -9.2 0.1 -1.8 0.3 -2.5 0.6 -1.5 0.2 0.9 1 1.7 1.6 1.7 0.7 0.1 2.1 1.5 3.2 3.3 1.7 2.7 3.1 3.4 8.5 4.7 9.6 2.2 10.7 3.3 7 7 -2.6 2.6 -6 2.6 -6 0.1z"/>
  <path d="M622.3 733.6 c-5.8 -2.6 -4.1 -3.8 4.2 -3.1 6.2 0.6 7.5 0.5 7.5 -0.7 0 -2.1 6.9 -3.9 16.8 -4.6 7.9 -0.5 8.2 -0.4 8.2 1.7 0 1.9 -0.5 2.1 -6.7 2.1 -4.7 0 -8.9 0.8 -13.8 2.6 -9.1 3.3 -12.3 3.7 -16.2 2z"/>
  <path d="M668.8 729.3 c-1 -0.2 -1.8 -1.1 -1.8 -1.9 0 -1.1 1.6 -1.4 6.8 -1.5 5.7 0 6.3 -0.2 4 -1.1 -2 -0.7 -2.8 -1.7 -2.8 -3.4 l0 -2.4 5.3 2.1 c2.8 1.2 8 3.1 11.5 4.2 3.4 1.2 6.2 2.4 6.2 2.8 0 1.3 -24.9 2.3 -29.2 1.2z"/>
  <path d="M490.5 728.4 c-1.1 -0.3 -2.7 -0.8 -3.5 -1 -0.8 -0.3 3.9 -2.5 10.5 -4.8 20.1 -7.2 30.7 -12.6 24.5 -12.6 -1.6 0 -2 -0.4 -1.6 -1.5 0.3 -0.9 0 -1.5 -1 -1.5 -0.8 0 -1.7 0.7 -2 1.5 -0.3 0.8 -2.2 1.7 -4.2 2 -10.7 1.7 -37 6.9 -45.6 9.1 -5.5 1.3 -10.1 2.2 -10.3 2.1 -0.4 -0.5 33 -10.8 49.2 -15.2 16.7 -4.4 34.3 -8.2 47 -10 12.6 -1.8 12.5 -1.8 12.5 0.3 0 1.4 -1.9 2 -12.3 3.5 -14.4 2 -33.8 6.5 -28.9 6.6 3.2 0.1 3.3 0.2 3 3.9 -0.3 3.2 -0.7 3.7 -3 4 -1.6 0.2 -2.8 0.9 -2.8 1.8 0 0.9 -1.1 1.4 -3.5 1.4 -1.9 0 -3.5 0.5 -3.5 1 0 1.3 -0.9 1.4 13.2 -2 14.6 -3.6 32.8 -7 37.5 -7 4.7 0 4.4 2.7 -0.4 3.5 -13.4 2.1 -33.1 6.4 -47.3 10.2 -16.2 4.4 -23.6 5.6 -27.5 4.7z"/>
  <path d="M575 728.2 c0 -0.6 1.5 -1.9 3.3 -3.1 4.9 -3 8.1 -6.7 7.3 -8.6 -0.3 -0.9 -2 -2.2 -3.6 -2.8 -3.9 -1.5 -3.9 -3.7 0.1 -3.7 5.5 0 6.9 1.5 6.9 7.4 0 4.6 -0.4 5.6 -3.1 8 -3.2 2.9 -10.9 4.8 -10.9 2.8z"/>
  <path d="M610.3 727.8 c-6 -1.3 -5.8 -3.8 0.2 -3.8 4.1 0 4.5 0.2 4.5 2.5 0 1.4 -0.1 2.5 -0.2 2.4 -0.2 -0.1 -2.2 -0.5 -4.5 -1.1z"/>
  <path d="M589 726 c0 -1.8 0.7 -2 5.5 -2 4 0 5.5 0.4 5.5 1.4 0 1.6 -3 2.6 -7.7 2.6 -2.6 0 -3.3 -0.4 -3.3 -2z"/>
  <path d="M444.6 725.5 c1.7 -0.7 4.4 -1.6 6 -2 2.5 -0.4 2.4 -0.3 -0.6 0.8 -1.9 0.8 -4.6 1.7 -6 2 -1.9 0.5 -1.7 0.3 0.6 -0.8z"/>
  <path d="M799 723.4 c-16.4 -4.9 -37 -10.1 -47.4 -11.9 -5 -0.8 -9.2 -1.9 -9.6 -2.4 -0.3 -0.5 -1.8 -1.3 -3.3 -1.6 -2 -0.5 -2.7 -0.3 -2.7 0.7 0 0.7 -1.3 1.9 -3 2.5 -6.3 2.4 -3.3 4 14 7.8 15.2 3.4 16.5 4.8 3.5 4.1 -5.5 -0.3 -11.1 -0.6 -12.5 -0.6 -5.3 -0.1 -8.9 -1.1 -9.3 -2.8 -0.4 -1.6 -0.5 -1.6 -0.6 0.1 -0.1 1.8 -2 2.1 -5.8 1.1 -3.9 -1.1 -2.8 -3.4 1.6 -3.4 l3.8 0 0.7 -5 c0.6 -4.6 0.9 -5 3.4 -5.1 3.9 -0.2 -13.1 -3.5 -28.5 -5.6 -11.4 -1.5 -13.3 -2 -13.3 -3.5 0 -2.2 -1 -2.2 16.8 0.3 16.6 2.3 39.1 6.8 53.2 10.5 10.2 2.8 33.2 9.9 36.5 11.4 1.1 0.5 4.9 2.1 8.5 3.6 11.2 4.5 9.8 4.5 -6 -0.2z"/>
  <path d="M872.8 722.7 c-2.7 -1.2 -4.8 -2.8 -4.8 -3.4 0 -1.6 6.6 -1.8 7.5 -0.3 0.4 0.7 2.8 0.8 6.6 0.4 7.6 -0.8 8.2 1.3 1 3.9 -5.9 2 -4.6 2.1 -10.3 -0.6z"/>
  <path d="M150 722.5 c0 -4.1 6 -11 16 -18.6 2.5 -1.8 8.1 -6.3 12.5 -10 4.4 -3.7 11 -8.1 14.6 -9.8 3.7 -1.7 8.7 -5.1 11.3 -7.4 4.6 -4.3 4.6 -4.4 4.6 -10.9 l0 -6.5 3.9 -0.7 c6.5 -1 9.4 -4.4 13.9 -16 6 -15.5 14.6 -34.8 15 -33.6 0.4 1.1 4.2 1.4 4.2 0.3 0 -0.5 -0.9 -3.5 -1.9 -6.8 -1 -3.3 -2.2 -8.4 -2.6 -11.2 -0.6 -4.9 -0.5 -5.3 1.4 -5.3 1.6 0 2.1 0.6 2.1 2.8 0 1.6 0.7 5.2 1.5 8 1.3 4.4 2 5.2 4 5.2 4.3 0 5.5 1 5.5 4.6 0 2.4 0.5 3.4 1.5 3.4 0.8 0 1.5 0.9 1.5 2 0 1.1 0.5 2 1 2 1.5 0 1.2 7 -0.2 7.1 -3.4 0.2 7.4 3.8 11.6 3.8 l4.8 0.1 -0.5 4.3 c-0.3 2.3 -1 6 -1.6 8.2 -0.6 2.2 -1.1 8.7 -1.1 14.5 0 10 -1.1 16.9 -5.6 36.3 -1.5 6.3 -2.2 7.7 -3.8 7.7 -1.6 0 -1.8 -0.5 -1.2 -3.7 0.3 -2.1 0.9 -4.9 1.3 -6.3 0.5 -2.1 -0.1 -1.8 -3.8 2.1 -4.3 4.5 -4.7 4.7 -15.4 6.8 -6 1.2 -17.3 4.2 -25 6.6 -7.7 2.4 -21.2 5.8 -30 7.5 -14.4 2.9 -17.1 3.8 -27.7 9.1 -8.8 4.4 -11.8 5.5 -11.8 4.4z m102.5 -115 c0 -0.5 -1 -1.1 -2.2 -1.3 -1.6 -0.2 -2.3 0.2 -2.3 1.3 0 1.1 0.7 1.5 2.3 1.3 1.2 -0.2 2.2 -0.7 2.2 -1.3z"/>
  <path d="M998.9 718.5 c-11.3 -2.9 -22.1 -6 -24 -7 -4.3 -2.2 -13.5 -9.3 -17.3 -13.3 l-2.8 -3 -14.7 0.5 -14.8 0.6 -4.2 -6 -4.2 -6 -9.9 -2.6 c-11.6 -3.2 -11.4 -3.1 -10.6 -1.2 0.8 2.1 -0.2 1.9 -3.6 -1 -2.9 -2.5 -7.6 -3.5 -6.3 -1.4 0.4 0.6 -0.3 0.5 -1.4 -0.3 -1.5 -0.9 -2.1 -2.1 -1.9 -3.8 0.2 -2 0.9 -2.6 3.7 -2.8 1.8 -0.2 3.8 0.1 4.4 0.7 0.6 0.6 3.1 1.1 5.4 1.1 2.4 0 5.4 0.6 6.6 1.4 3.8 2.4 6.7 2.9 6.7 1.2 0 -0.9 0.7 -1.6 1.5 -1.6 0.9 0 1.5 -0.9 1.5 -2.4 0 -2.2 0.5 -2.5 4.8 -3.1 5.8 -0.7 15 -3.3 15.7 -4.4 0.3 -0.5 -2.5 -1.4 -6.1 -2.1 -10.1 -1.7 -18.4 -4.7 -23.6 -8.6 -4.2 -2.9 -4.8 -3.9 -4.8 -6.9 0 -3.2 0.3 -3.5 2.9 -3.5 1.6 0 5.4 1.1 8.5 2.5 3.1 1.4 5.9 2.5 6.2 2.5 0.3 0 0.4 -1.2 0.2 -2.6 -0.2 -2.1 -1.2 -3 -4.8 -4.3 -4.3 -1.6 -4.5 -1.8 -4.5 -5.8 0 -4 -0.2 -4.3 -4.2 -5.8 -5.3 -2.1 -8.3 -5.7 -8.3 -10.2 l0 -3.5 4.5 0.4 c2.8 0.2 4.1 0 3.5 -0.6 -0.6 -0.6 -1 -1.8 -1 -2.7 0 -1.1 -1.3 -2.2 -3.5 -2.9 -1.9 -0.6 -3.5 -1.6 -3.5 -2.1 0 -0.5 -0.7 -0.9 -1.5 -0.9 -0.8 0 -1.5 -0.9 -1.5 -2 0 -1.3 -0.7 -2 -1.9 -2 -2.3 0 -3.1 -1.9 -3.1 -7.2 l0 -4 3.8 0.4 c2 0.3 4.4 0.7 5.2 1 0.8 0.2 1.2 0.3 0.8 0.1 -0.5 -0.3 -0.8 -1.1 -0.8 -1.9 0 -0.8 -0.7 -1.4 -1.5 -1.4 -1 0 -1.5 -1 -1.5 -3.4 0 -2.6 -0.5 -3.6 -2 -4.1 -1.1 -0.3 -2 -1.1 -2 -1.6 0 -0.5 -0.7 -0.9 -1.5 -0.9 -0.8 0 -1.5 -0.7 -1.5 -1.5 0 -0.8 -0.7 -1.5 -1.6 -1.5 -1.5 0 -1.6 -1 -1.1 -8 0.6 -7.9 0.6 -8 -1.7 -8 -1.3 0 -2.6 -0.7 -3 -1.5 -0.9 -2.4 -3.6 -1.8 -3.6 0.8 0 2.9 -1.8 4.7 -4.7 4.7 -1.3 0 -2.3 0.5 -2.3 1 0 0.6 1.1 1 2.5 1 2.3 0 2.5 0.4 2.5 4.1 0 4.7 -1.4 7.9 -3.5 7.9 -0.8 0 -1.5 0.5 -1.5 1 0 0.6 -1.1 1 -2.5 1 -2.1 0 -2.5 0.5 -2.5 2.9 0 4.2 -1.7 8.1 -3.5 8.1 -0.8 0 -1.5 0.4 -1.5 1 0 0.6 0.9 0.6 2.6 0 1.4 -0.6 3.9 -1 5.5 -1 2.7 0 2.9 0.3 2.9 3.5 0 1.9 -0.4 3.5 -1 3.5 -0.5 0 -1 1.1 -1 2.3 0 3.2 -3 5.7 -6.8 5.7 -1.8 0 -3.2 -0.2 -3.2 -0.4 0 -0.2 2.1 -2.4 4.6 -5 2.6 -2.5 4.4 -4.9 4.1 -5.2 -0.3 -0.3 -2.5 0.1 -4.9 1 -4.1 1.4 -4.4 1.4 -6 -0.5 -1.2 -1.4 -2.4 -1.8 -3.7 -1.4 -2.1 0.6 -6.1 -0.9 -6.1 -2.4 0 -0.5 1.9 -1.1 4.2 -1.4 4.5 -0.6 9.1 -3.5 9.6 -6.1 0.3 -1.2 -0.5 -1.6 -3.5 -1.7 l-3.8 -0.1 5.5 -2.5 c7.9 -3.6 12 -6.9 12 -9.9 0 -2.2 -0.4 -2.4 -4.2 -2.4 l-4.3 0 6.8 -6.1 c5.4 -4.8 6.7 -6.6 6.7 -9 0 -1.7 0.5 -2.9 1.3 -2.9 3.4 0.1 5.5 1.4 6.6 4.5 0.8 2.2 3.4 5.2 7.3 8.2 l6.1 4.8 -4.2 0.3 c-8.3 0.6 -6.3 5.5 4.6 10.9 7.7 3.8 7.7 3.8 4.1 4.1 -3.1 0.3 -3.5 0.6 -3 2.4 0.5 2.2 7.2 5.7 10.9 5.8 1.2 0 2.5 0.5 2.8 1 0.8 1.3 -4.3 3.3 -6.4 2.5 -0.9 -0.4 -2.2 0.3 -3.1 1.5 -1.5 2 -1.7 2 -5.9 0.5 -5.6 -1.9 -5.4 -2 -3.6 1.5 1.9 3.7 9.1 7.9 15.2 8.9 l4.8 0.8 -2.9 1.2 c-3.4 1.4 -2.8 2.1 3.7 4.5 7.1 2.6 14.8 10.2 19.5 19.3 3 5.8 5.3 8.8 9.1 11.6 5.5 4.2 8.8 7.7 17.6 19.2 15.7 20.3 22.3 27 31.8 32.6 6.5 3.9 12.3 8.5 20.2 16.1 6 5.9 10.6 10.7 10 10.7 -0.5 0 -10.2 -2.4 -21.6 -5.4z"/>
  <path d="M390.8 722.3 c-1 -0.2 -1.8 -1.1 -1.8 -1.9 0 -1 1.3 -1.4 4.6 -1.4 2.7 0 4.3 -0.4 3.9 -1 -0.3 -0.5 -1.7 -1 -3.1 -1 -1.3 0 -2.4 -0.4 -2.4 -0.9 0 -0.5 -0.9 -1.1 -2.1 -1.4 -1.1 -0.3 -2.3 -1.5 -2.6 -2.6 -0.3 -1.2 -0.9 -2.1 -1.4 -2.1 -0.5 0 -0.9 -0.7 -0.9 -1.5 0 -0.9 -0.9 -1.5 -2.4 -1.5 -1.8 0 -2.6 -0.7 -2.9 -2.2 -0.2 -1.3 -0.5 -0.4 -0.6 2 -0.1 3.5 -0.4 4.2 -2.1 4.2 -1.7 0 -2 -0.7 -2 -4.2 0 -2.8 -0.9 -5.6 -2.9 -8.7 -1.6 -2.5 -3.2 -5.6 -3.6 -6.8 -0.6 -2.2 -1.2 -2.3 -8.8 -2.3 -4.5 0.1 -9.8 0.7 -11.8 1.4 -2 0.7 -9 4.8 -15.4 9 -9.3 6.1 -12 7.4 -13.1 6.5 -1.1 -0.9 -1.4 -0.6 -1.4 1.6 0 2.7 0 2.8 -2 1 -1.8 -1.6 -2 -3.1 -2 -13.6 0 -6.9 0.4 -12 1 -12.4 0.6 -0.4 0.3 -1.6 -0.9 -3.1 -2.5 -3.1 -2.5 -3.2 -6.1 -31.4 -3.4 -27 -3.6 -31 -1.5 -31 1.6 0 1.9 1.3 3.6 17.6 l1.1 11.2 10.7 0.5 c10.9 0.5 32.1 5.1 38.2 8.2 1.6 0.9 4.3 3.4 5.9 5.7 l3 4.1 0 -4.4 c0 -3.9 -0.4 -4.6 -3.1 -6.1 -3.2 -1.9 -3.3 -2.9 -1.3 -10 0.5 -1.7 -0.7 -1.8 -15.3 -1.8 l-15.8 0 -7.7 -7.7 c-6.4 -6.4 -7.8 -7.4 -7.8 -5.5 0 1.2 -0.4 2.2 -0.8 2.2 -1.8 0 -4.2 -3.8 -4.2 -6.7 0 -4.3 6.7 -10.2 16.9 -15 6.7 -3.2 8.1 -4.2 8.1 -6.1 0 -1.3 0.9 -3.7 2 -5.2 l2.1 -2.9 -2.6 -1.7 c-1.9 -1.2 -2.3 -2.2 -1.9 -3.9 0.9 -3.6 -0.3 -5.9 -3.7 -7.4 -3.8 -1.7 -5.6 -5.2 -4.3 -8.8 1.3 -3.7 3.4 -4.1 3.4 -0.6 0.1 3 2 6.3 3.9 6.3 0.6 0 1.1 0.5 1.1 1 0 0.6 0.7 1 1.5 1 1.1 0 1.5 1.2 1.5 5 0 4.3 0.3 5 2 5 1.7 0 2 0.7 2 4.5 0 3.1 -0.5 4.7 -1.5 5.1 -2.1 0.9 -1.9 4.8 1 14.5 1.3 4.6 2.5 9.6 2.5 11.2 0 4 3.4 5 11.6 3.6 3.5 -0.6 7.5 -0.8 8.9 -0.5 3.4 0.9 3.4 3.3 0 18.3 -0.4 1.5 0.1 2.3 1.5 2.8 1.1 0.3 2 1.3 2 2.1 0 0.8 0.5 1.4 1.1 1.4 1.2 0 0.7 9.6 -1.2 21.9 -0.9 5.7 -0.7 7.2 1.2 12.8 1.3 3.5 2.6 6.3 3.1 6.3 0.4 0 0.8 -4.9 0.8 -10.9 0 -8.6 0.4 -11.6 1.8 -14 2.9 -5.2 7 -3.3 4.2 1.9 -0.9 1.7 -0.2 1.8 9.8 2.2 9.3 0.4 11 0.2 12.7 -1.3 2 -1.8 2 -1.8 1.9 13.9 -0.1 9.1 -0.6 16.9 -1.3 18.5 -1.6 4.1 -1.4 4.7 1.4 4.7 1.4 0 2.5 -0.4 2.5 -1 0 -0.5 1.8 -1 4 -1 3.8 0 4 -0.2 4 -3 0 -2.7 -0.3 -3 -3 -3 -4.4 0 -5.3 -2.7 -4.8 -13.6 0.4 -8 1 -10.3 4.2 -17.1 l3.8 -8 -4.7 -9.4 c-2.6 -5.2 -5.6 -10.6 -6.6 -12.1 -1.1 -1.4 -1.9 -3.8 -1.9 -5.2 0 -1.4 -0.4 -2.6 -1 -2.6 -0.6 0 -1 -5.2 -1 -13.5 0 -12.8 0.1 -13.5 2 -13.5 1.9 0 2 0.6 1.9 13.6 -0.1 8.4 0.3 14 0.9 14.6 0.6 0.6 8.3 1.6 17.1 2.2 8.8 0.7 16.3 1.5 16.7 1.9 0.4 0.4 0.4 0.7 0 0.7 -0.4 0 1.9 2.2 5.1 4.9 3.2 2.7 7.3 6.4 9.1 8.3 l3.3 3.5 -9.2 0.6 c-5.1 0.4 -13.7 0.7 -19.1 0.7 l-9.9 0 0.6 3.4 c0.5 2.4 0.1 4.8 -1.4 8.2 -2.5 5.5 -2.2 5.9 5.1 6.9 3.6 0.5 5.4 1.4 7.3 3.7 3 3.6 3.1 4.8 0.6 8 -1.9 2.4 -11.8 7.8 -14.3 7.8 -3.5 0.1 -3.9 1.7 -1.3 4.8 2.2 2.7 3.4 3.2 7 3.2 5.5 0 7.4 2 5.2 5.4 -2 3 -6.4 4.1 -11.3 2.7 -3.1 -0.9 -4.1 -0.8 -5.6 0.6 -2.1 1.9 -8.3 1.2 -10.7 -1.1 -1.3 -1.4 -1.3 -2.2 0.2 -7.3 0.8 -3.2 1.4 -5.9 1.3 -6.1 -0.2 -0.1 -2.9 -0.9 -6 -1.7 -3.2 -0.8 -8.1 -2.6 -11 -4 -2.9 -1.4 -5.5 -2.5 -5.8 -2.5 -0.7 0 0.7 6.6 2.2 10.4 0.5 1.5 1.8 2.9 2.7 3.3 1 0.3 3.6 2.6 5.8 5 3.1 3.4 5.2 4.7 9 5.6 4.3 1 5 1.5 5 3.7 0 2 -0.7 2.8 -3.5 3.7 -3.6 1.2 -7.1 1.4 -10.2 0.6z m-13.6 -23.8 c-0.2 -1.4 -0.6 -2.5 -0.8 -2.5 -0.2 0 -0.4 1.1 -0.4 2.5 0 1.4 0.4 2.5 0.9 2.5 0.4 0 0.6 -1.1 0.3 -2.5z"/>
  <path d="M377.8 721.3 c-1 -0.2 -1.8 -1.1 -1.8 -1.9 0 -1 1.4 -1.4 5.5 -1.4 5.9 0 6.5 0.5 3.8 2.6 -1.8 1.3 -4.3 1.6 -7.5 0.7z"/>
  <path d="M812.7 721.4 c-0.4 -0.4 3 -2.1 7.4 -3.9 4.4 -1.8 8.3 -3.5 8.6 -3.9 1.2 -1.2 -4.3 -0.5 -16.2 1.9 -6.5 1.3 -12.1 2.3 -12.2 2.1 -0.5 -0.5 20.7 -6.5 32.2 -9.1 13.3 -3 15.5 -3.1 15.5 -0.7 0 1.4 -1.5 2 -7.7 3 -4.2 0.6 -8.1 1.6 -8.7 2.2 -1.3 1.3 -1.6 1.3 7.7 -0.5 9.7 -1.8 19.4 -2 21.1 -0.2 0.7 0.7 1.6 2.9 2 4.9 0.6 3.1 0.4 3.6 -1.6 4.2 -1.3 0.3 -3.6 0.6 -5.3 0.6 l-3 -0.1 2.8 -2.2 c5.8 -4.8 1.8 -6.4 -11 -4.2 -4.8 0.9 -12.9 2.7 -17.9 4 -9.4 2.6 -12.6 3 -13.7 1.9z"/>
  <path d="M900 721 c0 -0.5 -0.9 -1 -2 -1 -1.7 0 -2 -0.7 -2 -4 l0 -4 4.5 0 c3.6 0 4.5 0.3 4.5 1.8 0 1.3 0.2 1.4 0.9 0.3 0.7 -1 2.6 -1.2 9 -0.6 5.2 0.5 8.1 0.4 8.1 -0.3 0 -1 -10.5 -3.2 -15.3 -3.2 -2.1 0 -2.7 -0.5 -2.7 -2.1 0 -1.9 0.4 -2 5.8 -1.4 15.5 1.8 44.6 9.1 50 12.6 2 1.2 1.4 1.1 -12.8 -2.7 -11.4 -3 -21 -4.2 -21 -2.6 0 0.6 1.7 1.5 3.8 2.1 2 0.5 5.1 1.3 6.7 1.7 l3 0.8 -3.7 0.4 c-2.1 0.2 -10.1 -0.4 -17.9 -1.2 -16.2 -1.8 -19.2 -1.9 -18.5 -0.7 0.3 0.4 2.6 1.4 5.1 2.1 6.5 1.8 6.5 3 0.1 3 -3.1 0 -5.6 -0.4 -5.6 -1z"/>
  <path d="M712.8 719.3 c-3.6 -0.9 -2 -3.3 2.2 -3.3 3.3 0 4 0.3 4 2 0 2 -2 2.4 -6.2 1.3z"/>
  <path d="M668 715.5 l0 -3.5 7 0 c6.3 0 7 0.2 7 2 0 1.8 -0.7 2 -5.7 2 -5.3 0.1 -5.6 0.2 -3.9 1.5 1.9 1.4 1.8 1.5 -1.2 1.5 -3 0 -3.2 -0.2 -3.2 -3.5z"/>
  <path d="M703.8 718.3 c-3.6 -0.9 -2 -3.3 2.2 -3.3 3.3 0 4 0.3 4 2 0 2 -2 2.4 -6.2 1.3z"/>
  <path d="M694.8 717.3 c-3.6 -0.9 -2 -3.3 2.2 -3.3 3.3 0 4 0.3 4 2 0 2 -2 2.4 -6.2 1.3z"/>
  <path d="M263.7 714.8 c-0.3 -1.3 -0.9 -4.4 -1.2 -7 -0.7 -4.3 -0.5 -4.8 1.3 -4.8 1.5 0 2.1 0.9 2.6 4.6 0.9 7.1 0.7 9.4 -0.8 9.4 -0.8 0 -1.6 -1 -1.9 -2.2z"/>
  <path d="M684.8 716.3 c-1 -0.2 -1.8 -1.1 -1.8 -1.9 0 -1 1.3 -1.4 4.5 -1.4 3.8 0 4.5 0.3 4.5 2 0 1.5 -0.6 2 -2.7 1.9 -1.6 -0.1 -3.6 -0.3 -4.5 -0.6z"/>
  <path d="M849 707.6 c0 -1.4 2.9 -2.6 6.8 -2.6 1.5 0 2.2 0.6 2.2 2 0 1.7 -0.7 2 -4.5 2 -3.2 0 -4.5 -0.4 -4.5 -1.4z"/>
  <path d="M894 707.5 c0 -1.1 -1.1 -1.5 -3.9 -1.5 -3.3 0 -4.3 -0.6 -6.7 -3.7 -1.6 -2.1 -3.6 -6.7 -4.5 -10.3 -1.6 -6.2 -1.7 -6.3 -1.8 -2.5 -0.3 8.3 -7.3 18.5 -12.9 18.5 -2.2 0 -3.2 -0.5 -3.2 -1.5 0 -0.8 0.7 -1.5 1.5 -1.5 0.8 0 2.4 -1 3.5 -2.2 l2.1 -2.3 -4.3 -0.7 c-2.4 -0.3 -10.4 -0.2 -17.8 0.4 -17.2 1.2 -22.2 0.6 -34.5 -4.4 l-10 -4.1 -23.4 -0.3 c-20.9 -0.3 -35.9 -1.3 -47.5 -3 l-3.8 -0.6 3.8 -3.9 c5.1 -5.2 14.1 -7.6 38.8 -10.4 7.6 -0.8 16.6 -2.2 20 -3.1 7.1 -1.8 19 -7.1 25.9 -11.6 4.7 -3 4.9 -3 10.5 -1.9 5 1.1 6.4 1 11.5 -0.8 l5.7 -2 0 2.3 c0 2.6 -2.9 3.8 -14.9 5.7 l-7.3 1.2 3.5 1.9 c2.8 1.4 13.4 3.7 18 3.8 0.4 0 0.7 1.1 0.7 2.5 0 1.6 0.6 2.5 1.5 2.5 0.8 0 1.5 0.7 1.5 1.5 0 1.9 0.3 1.9 5.2 -0.6 2.6 -1.3 5.4 -2 7.8 -1.7 2.1 0.2 4.2 -0.2 4.9 -0.9 1.7 -1.8 7.8 -1.7 8.5 0.2 0.3 0.8 1.4 1.5 2.5 1.5 1.5 0 2.2 0.9 2.7 3.5 0.3 1.9 1.2 3.5 1.9 3.5 0.7 0 1.6 1.1 1.9 2.5 0.4 1.4 1.3 2.5 2.2 2.5 0.9 0 3.7 2.3 6.2 5.2 2.6 2.8 6.4 6.4 8.4 7.9 3.6 2.5 3.7 2.7 1.5 3.3 -1.2 0.3 -3.9 0.6 -6 0.6 -2.3 0 -3.6 0.4 -3.2 1 0.3 0.6 2.3 1 4.3 1 5.2 0 8.2 1 8.2 2.6 0 1 -1.3 1.4 -4.5 1.4 -3.3 0 -4.5 -0.4 -4.5 -1.5z m-20.9 -29.8 c-0.7 -0.7 -1.5 -0.6 -2.6 0.3 -1.3 1.1 -1.5 0.9 -1.5 -1 0 -1.6 -0.4 -2 -1.6 -1.6 -0.9 0.3 -1.8 0.6 -2 0.6 -1.7 0 0.3 3.4 3.9 6.6 l4.2 3.9 0.3 -3.9 c0.2 -2.1 -0.1 -4.3 -0.7 -4.9z"/>
  <path d="M680 697 c0 -2.1 2.3 -2.6 6.8 -1.4 4.1 1.1 2.6 3.4 -2.3 3.4 -3.8 0 -4.5 -0.3 -4.5 -2z"/>
  <path d="M568 696.6 c0 -1.4 2.9 -2.6 6.8 -2.6 1.5 0 2.2 0.6 2.2 2 0 1.7 -0.7 2 -4.5 2 -3.2 0 -4.5 -0.4 -4.5 -1.4z"/>
  <path d="M669 696 c0 -2.1 2.3 -2.6 6.8 -1.4 4.1 1.1 2.6 3.4 -2.3 3.4 -3.8 0 -4.5 -0.3 -4.5 -2z"/>
  <path d="M582 695.6 c0 -1.6 3 -2.6 7.8 -2.6 2.5 0 3.2 0.4 3.2 2 0 1.8 -0.7 2 -5.5 2 -4 0 -5.5 -0.4 -5.5 -1.4z"/>
  <path d="M654 694.5 c0 -2.1 -0.5 -2.5 -2.8 -2.5 -3.4 0 -5.2 -1.6 -5.2 -4.7 0 -1.6 -0.6 -2.3 -2 -2.3 -1.3 0 -2 -0.7 -2 -2 0 -1.1 -0.7 -2 -1.5 -2 -0.9 0 -1.5 -0.9 -1.5 -2.5 0 -1.5 -0.6 -2.5 -1.4 -2.5 -1.6 0 -2.6 -2.1 -2.6 -5.5 0 -1.3 -0.5 -2.5 -1 -2.7 -0.6 -0.2 -1.4 -2.9 -1.7 -6.1 -0.5 -4.8 -0.3 -5.7 1 -5.7 1.2 0 1.9 1.7 2.8 5.9 0.6 3.2 2.5 8.4 4.3 11.5 4.6 8.3 14.4 19.6 17 19.6 3.7 0 6.6 1.2 6.6 2.6 0 1 -1.4 1.4 -5 1.4 -4.7 0 -5 -0.2 -5 -2.5z"/>
  <path d="M604.3 686.8 c9.6 -11.8 14.7 -22.5 14.7 -31.3 0 -4.6 1.1 -7.5 2.8 -7.5 1.2 0 1.4 1.2 0.8 7.8 -0.9 10.2 -2.5 16.2 -4.2 16.2 -0.9 0 -1.4 1.1 -1.4 3 0 1.7 -0.4 3 -1 3 -0.5 0 -1 0.7 -1 1.5 0 0.8 -0.4 1.5 -1 1.5 -0.5 0 -1 0.7 -1 1.5 0 0.8 -0.9 1.5 -1.9 1.5 -1.4 0 -2.1 0.8 -2.3 2.8 -0.3 2.3 -0.8 2.8 -3.7 3 l-3.5 0.4 2.7 -3.4z"/>
  <path d="M408 665.7 c0 -0.7 -2.2 -3.5 -4.9 -6.1 -4.7 -4.6 -5.1 -4.8 -8.1 -3.7 -3.8 1.3 -4.8 0.8 -6.2 -2.7 -1 -2.5 -1.1 -2.6 -1.8 -0.7 -0.5 1.1 -0.9 3 -0.9 4.3 -0.1 1.2 -1.1 3.2 -2.2 4.3 l-2.2 2.2 0.8 -6.9 c0.8 -7.5 1.4 -8.4 6.1 -8.4 2.3 0 3.3 0.5 3.7 2 0.4 1.5 1.4 2 3.6 2 2.1 0 3.1 0.5 3.1 1.5 0 1 1 1.5 3.3 1.5 4.4 0 8.7 4.3 8.7 8.8 0 2.2 -0.5 3.2 -1.5 3.2 -0.8 0 -1.5 -0.6 -1.5 -1.3z"/>
  <path d="M512 666 c-7 -0.9 -29.7 -6 -37 -8.4 -3.6 -1.1 -4 -1.4 -1.9 -1.5 1.5 -0.1 8 -1.9 14.5 -4.1 22 -7.3 40.7 -8.7 55.5 -4.1 10.6 3.4 14 9.4 7.4 13.2 -7.3 4.3 -25.5 6.6 -38.5 4.9z"/>
  <path d="M672 659.9 c-12.2 -1.4 -27 -6.8 -27 -9.8 0 -0.5 3.5 -2.9 7.8 -5.2 4.2 -2.3 7.9 -4.4 8.1 -4.5 0.2 -0.2 -0.2 -1 -0.9 -1.9 -1 -1.2 -1 -1.5 0.4 -1.5 1.1 0 1.6 -0.9 1.6 -3 0 -2.3 0.4 -3 2 -3 1.1 0 2 -0.7 2 -1.5 0 -2.8 10.6 -0.8 13 2.5 0.3 0.4 1.4 1 2.5 1.3 1.1 0.3 5.2 1.7 9 3.1 l7 2.5 0.3 -3.2 c0.6 -5.2 3.1 -5.8 12.4 -3 4.3 1.4 5.8 2.3 5.8 3.7 0 1.6 -0.5 1.7 -3.7 1.1 -2.1 -0.3 -5.7 -1.5 -8 -2.5 l-4.3 -1.9 2.5 3.7 c1.4 2 2.5 4.2 2.5 4.9 0 3.3 -16.8 -0.6 -28.9 -6.7 -4.5 -2.2 -8.6 -3.8 -9.1 -3.5 -1.5 0.9 -1.2 7.5 0.3 7.9 0.6 0.2 6.6 1.5 13.2 3 6.6 1.4 14.3 3.7 17.1 5.1 2.8 1.4 6.1 2.5 7.3 2.5 2.2 0 12.9 -5.1 18.9 -9.1 1.7 -1.1 3.2 -1.9 3.2 -1.7 0 0.2 -1.3 4 -2.9 8.4 l-2.9 7.9 -5.6 1.7 c-11.5 3.5 -27.6 4.5 -43.6 2.7z"/>
  <path d="M770.7 655.3 c-1.3 -1.2 -0.7 -9.1 0.7 -10.6 1.2 -1.2 17.7 -8.9 24.7 -11.6 1.7 -0.6 3.4 -2.5 4.5 -5.2 1.7 -3.9 2.7 -4.6 10.9 -8.4 16.7 -7.8 18.1 -8.1 27.6 -6.2 6.1 1.3 8.6 1.4 9.6 0.6 1.9 -1.7 1.6 -2.4 -1.4 -3.9 l-2.8 -1.3 4.9 -0.9 c2.7 -0.5 5 -0.7 5.3 -0.4 0.2 0.2 0.1 2 -0.2 4 -0.6 2.9 -1.2 3.6 -3.1 3.6 -1.3 0 -2.4 0.4 -2.4 0.9 0 0.6 2.4 0.7 5.6 0.4 l5.5 -0.6 -0.3 4.9 c-0.2 4 -0.7 5.1 -2.5 5.9 -1.3 0.5 -2.3 1.3 -2.3 1.7 0 0.3 -1.5 1.1 -3.3 1.7 -3 1 -3.2 1.4 -2.9 4.9 0.4 4 -0.3 4.7 -7 7.2 -2.1 0.7 -2.8 1.6 -2.8 3.5 l0 2.5 5.6 -2.5 c3.1 -1.4 6.9 -2.5 8.5 -2.5 2.6 0 2.9 0.4 2.9 3.1 0 3.8 -1.6 6.9 -3.5 6.9 -0.8 0 -1.5 0.5 -1.5 1 0 0.6 -1.6 1 -3.5 1 -1.9 0 -3.5 -0.3 -3.5 -0.7 0 -0.5 2.2 -2.3 4.8 -4.2 2.6 -1.8 3.8 -3 2.7 -2.6 -1.1 0.4 -4.4 1.6 -7.3 2.7 -5.9 2.1 -9.2 1.7 -9.2 -1.2 0 -1.3 -0.5 -1.7 -1.9 -1.3 -1.1 0.3 -5.1 -0.2 -9 -1.1 -3.9 -0.9 -11.5 -1.6 -17.2 -1.6 -9 0 -10.7 0.3 -14.3 2.4 -2.3 1.3 -5.1 3.8 -6.4 5.5 -2.1 2.9 -2.7 3.1 -8.6 3.1 -3.4 0 -6.6 -0.3 -6.9 -0.7z m82.4 -31.3 c2.8 -2.2 2.4 -2.4 -1.9 -0.9 -1.8 0.6 -2.9 1.5 -2.6 2 0.8 1.4 1.9 1.1 4.5 -1.1z"/>
  <path d="M631 649.5 c0 -4 0.4 -5.5 1.4 -5.5 1.6 0 2.6 3 2.6 7.8 0 2.5 -0.4 3.2 -2 3.2 -1.8 0 -2 -0.7 -2 -5.5z"/>
  <path d="M549 641.7 c0 -0.7 1.1 -2.8 2.5 -4.7 1.4 -1.9 2.5 -3.5 2.5 -3.6 0 -0.2 -1.9 0.6 -4.2 1.6 -2.4 1 -6 2.2 -8 2.5 -3.3 0.6 -3.8 0.5 -3.8 -1.2 0 -1.6 1.2 -2.2 5.8 -3.3 3.1 -0.7 6.1 -1.7 6.7 -2.2 0.5 -0.4 2.4 -0.8 4.2 -0.8 3.1 0 3.3 0.2 3.3 3.5 0 2.7 -0.5 3.8 -2.2 4.5 -4.1 1.8 4.2 0 9.7 -2.1 8.5 -3.2 14.3 -1.9 7.4 1.6 -3.8 2 -17.3 5.5 -21.1 5.5 -1.6 0 -2.8 -0.5 -2.8 -1.3z"/>
  <path d="M588.4 638.7 c0.4 -2.9 0.2 -4.8 -0.7 -6.1 -1.3 -1.7 -1.5 -1.7 -4.5 -0.2 -4 2.1 -4.2 2 -4.2 -0.8 0 -2.2 0.5 -2.5 5.6 -3.2 4.3 -0.5 5.8 -0.3 6.5 0.7 1.3 2.1 1.1 11.3 -0.3 12.7 -2.2 2.2 -3 1.2 -2.4 -3.1z"/>
  <path d="M631 637.9 c0 -4.8 1.8 -6.9 5.9 -6.9 3.7 0 4.2 2.5 0.7 3.4 -1.7 0.4 -2.5 1.5 -3 4.1 -1 5.1 -3.6 4.7 -3.6 -0.6z"/>
  <path d="M620 637.5 c0 -0.8 -0.9 -2 -2 -2.7 -2.9 -1.9 -2.4 -2.8 1.5 -2.8 3.3 0 3.5 0.2 3.5 3.5 0 2.4 -0.5 3.5 -1.5 3.5 -0.8 0 -1.5 -0.7 -1.5 -1.5z"/>
  <path d="M524.5 636.6 l-3 -1.4 3 -1.1 c1.7 -0.7 5.9 -2.4 9.5 -3.8 10.4 -4.1 16.2 -8.3 11.5 -8.3 -0.8 0 -1.5 -0.7 -1.5 -1.5 0 -1 1.1 -1.5 3.5 -1.5 3.3 0 3.5 0.2 3.5 3.5 0 2.4 -0.5 3.5 -1.5 3.5 -0.8 0 -1.5 0.7 -1.5 1.5 0 1 -1 1.5 -3 1.5 -1.9 0 -3 0.5 -3 1.4 0 1.5 -2.1 2.6 -5.1 2.6 -1 0 -1.9 0.5 -1.9 1 0 0.6 -0.7 1 -1.5 1 -0.8 0 -1.5 0.7 -1.5 1.5 0 1.9 -3.4 1.9 -7.5 0.1z"/>
  <path d="M643.5 636 c-1.5 -1.7 -1.6 -2 -0.3 -2 0.9 0 1.8 0.9 2.1 2 0.3 1.1 0.4 2 0.3 2 -0.2 0 -1.1 -0.9 -2.1 -2z"/>
  <path d="M721.6 636.5 c0.4 -0.8 0.1 -1.5 -0.5 -1.5 -2.5 0 -15.1 -6.4 -15.1 -7.6 0 -0.8 -0.7 -1.4 -1.5 -1.4 -1 0 -1.5 -1.1 -1.5 -3.5 0 -3.3 0.2 -3.5 3.5 -3.5 2.4 0 3.5 0.5 3.5 1.5 0 0.8 -0.7 1.5 -1.5 1.5 -0.8 0 -1.5 0.5 -1.5 1.1 0 1.2 14.3 8.1 20.8 10 5 1.5 5.3 2.3 1.1 3.8 -4.7 1.6 -8 1.4 -7.3 -0.4z"/>
  <path d="M599.2 629.9 c0.3 -3.1 0.6 -3.4 4.1 -3.7 2 -0.2 3.7 0 3.7 0.5 0 0.4 -1.9 2.1 -4.1 3.7 l-4 2.8 0.3 -3.3z"/>
  <path d="M642 629.5 l0 -3.5 6 0 6 0 0 3.1 0 3 -2.9 -2 c-3.8 -2.7 -4.9 -2.6 -5.7 0.4 -1 3.9 -3.4 3.1 -3.4 -1z"/>
  <path d="M525.4 620.5 c-11.5 -2.1 -22.3 -6.3 -25.3 -9.9 -1.2 -1.4 -0.9 -1.6 2.2 -1.6 2 0 4.2 0.6 4.9 1.3 2 2 16.5 6.5 23.6 7.3 5.1 0.5 6.2 1 6.2 2.5 0 2.2 -1.4 2.3 -11.6 0.4z"/>
  <path d="M717 620.2 c0 -1.6 0.9 -2 5.8 -2.5 3.2 -0.4 8.7 -1.5 12.2 -2.6 7.1 -2.3 12 -2.7 12 -1 0 2.1 -12.5 5.8 -24.7 7.4 -4.8 0.6 -5.3 0.5 -5.3 -1.3z"/>
  <path d="M748 611.5 c0 -1.8 0.5 -2.5 2 -2.5 1.1 0 2 -0.7 2 -1.5 0 -0.8 0.9 -2 2 -2.7 2.3 -1.5 2.7 -3.8 0.5 -3.8 -0.8 0 -1.5 -0.9 -1.5 -2 0 -1.7 0.7 -2 4 -2 2.7 0 4.3 0.5 4.6 1.5 0.9 2.3 -4 9.8 -8.3 12.8 -4.8 3.3 -5.3 3.3 -5.3 0.2z"/>
  <path d="M305.2 608.3 c0.3 -3.4 0.6 -3.7 4.8 -4.7 4.4 -1.1 4.5 -1.2 5 -5.5 0.5 -4.3 0.5 -4.3 2.3 -2.3 1.3 1.4 1.7 3.2 1.5 5.9 -0.3 3.6 -0.5 3.9 -4.8 4.9 -3 0.7 -4.8 1.8 -5.5 3.2 -1.6 3.6 -3.7 2.7 -3.3 -1.5z"/>
  <path d="M495.8 606.4 c-0.9 -1.1 -2.2 -3.2 -2.8 -4.8 -1.3 -3.6 -0.2 -4.6 5.3 -4.6 3 0 3.7 0.4 3.7 2 0 1.3 -0.7 2 -1.9 2 -1.5 0 -2 0.8 -2.3 3.6 -0.3 3.5 -0.4 3.6 -2 1.8z"/>
  <path d="M504 598.5 c0 -0.9 1.4 -1.6 3.8 -2 13.5 -2 27 -5 35.5 -7.9 l9.7 -3.3 0 2.3 c0 1.9 -0.5 2.4 -2.4 2.4 -1.3 0 -2.6 0.5 -2.8 1 -0.6 2 -32.7 9 -41.4 9 -1.4 0 -2.4 -0.6 -2.4 -1.5z"/>
  <path d="M732.5 598.1 c-12.6 -2.3 -26.5 -6 -26.5 -7.2 0 -0.5 -0.9 -0.9 -2 -0.9 -2.3 0 -7 -2 -7 -3 0 -0.4 -1.3 -1 -3 -1.3 -2.4 -0.5 -3 -1.2 -3 -3.2 0 -1.4 0.2 -2.5 0.4 -2.5 0.3 0 4 1.8 8.3 3.9 9.1 4.6 22.1 8.5 34.8 10.6 5 0.8 10.5 1.8 12.3 2.1 1.9 0.3 3.2 1.1 3.2 1.9 0 2 -4.7 1.8 -17.5 -0.4z"/>
  <path d="M406.3 595.8 c1.4 -7.9 2 -9.8 3.2 -9.8 3.4 0 2.1 9.5 -1.6 11.8 -2.1 1.3 -2.1 1.2 -1.6 -2z"/>
  <path d="M306 586.5 c0 -0.8 -0.4 -1.5 -1 -1.5 -0.5 0 -1 -1.1 -1 -2.4 0 -1.5 -0.7 -2.6 -2 -2.9 -1.5 -0.4 -2 -1.4 -2 -4.1 0 -2 0.3 -3.6 0.8 -3.6 0.7 0 8.9 12 9.9 14.6 0.4 1 -0.3 1.4 -2.1 1.4 -1.6 0 -2.6 -0.6 -2.6 -1.5z"/>
  <path d="M403 581.5 c0 -4.5 2 -4.5 4.1 0 l1.6 3.5 -2.8 0 c-2.6 0 -2.9 -0.3 -2.9 -3.5z"/>
  <path d="M556 584.2 c0 -0.4 2.4 -2.1 5.3 -3.9 5.5 -3.3 15.1 -11.3 14.4 -12 -0.3 -0.2 -4.4 1.4 -9.3 3.5 -17.4 7.6 -26.3 9.3 -29.1 5.6 -1.4 -1.8 -1.3 -5.8 0.1 -9.4 0.5 -1.3 -0.7 -1.8 -6.1 -2.7 -3.7 -0.7 -6.9 -1.7 -7.1 -2.3 -0.2 -0.5 -1 -1 -1.8 -1 -1.7 0 -1.8 -1.4 -0.1 -2.8 1.2 -1 19.1 -6.2 21.5 -6.2 0.6 0 1.2 0.8 1.2 1.8 0 1.4 -1.6 2.2 -7.5 3.7 -4.1 1 -7.2 2.2 -6.9 2.6 0.2 0.4 2.9 1.1 6 1.5 l5.6 0.7 -0.5 3.6 c-0.3 2 -0.8 4.6 -1.2 5.8 -1 3.2 2.1 3.7 9 1.3 3.2 -1.1 6.4 -2 7.2 -2 0.8 0 2.1 -0.7 2.9 -1.5 0.9 -0.8 3.1 -1.5 5 -1.5 2.2 0 3.4 -0.5 3.4 -1.3 0 -1.8 4.3 -3.7 8.5 -3.7 3.3 0 3.5 0.2 3.5 3.3 0 3 -0.4 3.5 -4 4.7 -3.4 1.1 -4 1.7 -4 4.2 0 2.1 -0.5 2.8 -2 2.8 -1.1 0 -2 0.7 -2 1.5 0 0.8 -0.5 1.5 -1.1 1.5 -0.6 0 -1.7 0.7 -2.5 1.5 -1.6 1.5 -8.4 2.1 -8.4 0.7z"/>
  <path d="M681.7 578.3 c-0.4 -0.3 -0.7 -1.9 -0.7 -3.5 0 -2.4 -0.4 -2.8 -3 -2.8 -2.8 0 -3 -0.3 -3 -3.5 0 -3.3 0.2 -3.5 3.5 -3.5 2.9 0 3.5 0.4 3.5 2 0 1.8 -0.3 1.9 -2 1 -3.6 -1.9 -2.1 0.3 3.8 5.7 l5.7 5.3 -3.6 0 c-2 0 -3.9 -0.3 -4.2 -0.7z"/>
  <path d="M701 577.1 c-8.2 -2.7 -17 -6.9 -17 -8 0 -1.7 6.7 -1.3 8.4 0.4 0.8 0.8 1.8 1.5 2.3 1.5 0.4 0 4.1 1 8 2.2 5.4 1.7 7.3 2.8 7.3 4.1 0 2.1 -1.9 2.1 -9 -0.2z"/>
  <path d="M712 577.4 c0 -2 2.4 -4.4 4.4 -4.4 1.9 0 2.1 3.1 0.4 4.8 -1.7 1.7 -4.8 1.5 -4.8 -0.4z"/>
  <path d="M241 574.4 c0 -2.1 1.8 -5.4 3 -5.4 0.6 0 1 1.6 1 3.5 0 2.8 -0.4 3.5 -2 3.5 -1.1 0 -2 -0.7 -2 -1.6z"/>
  <path d="M406 571.5 c0 -1.8 0.8 -2.7 3.5 -3.6 3.6 -1.3 5.6 -3.9 3 -3.9 -0.8 0 -1.5 0.4 -1.5 0.9 0 1.6 -6.1 3.1 -12.6 3.1 l-6.4 0 0 -3.5 c0 -3.1 0.3 -3.5 2.6 -3.5 l2.7 0 -0.7 -6.7 c-0.5 -5.2 -1.1 -7.1 -2.6 -8.2 -1.1 -0.7 -2 -2 -2 -2.7 0 -1 -1.4 -1.4 -5 -1.4 -5.2 0 -6.4 -1.2 -3.1 -3 3.4 -1.7 7 -1.1 11.3 2 2.6 1.9 5.3 3 7.4 3 1.8 0 3.6 0.5 3.9 1 1 1.6 -1.4 4 -4.1 4 -1.2 0 -2.6 0.5 -2.9 1 -0.3 0.6 -0.1 1 0.5 1 0.7 0 1 2.2 0.8 6.2 -0.3 5.7 -0.5 6.3 -2.8 6.9 -2.4 0.7 -2.4 0.7 0.5 0.8 3.3 0.1 16.5 -5.3 21.4 -8.8 l3.1 -2.2 0 3 c0 2.4 0.4 3.1 2 3.1 1.3 0 2 -0.7 2 -2 0 -1.6 0.7 -2 3 -2 2.5 0 3 -0.4 3 -2.5 0 -2.2 -0.4 -2.5 -3.6 -2.5 -5 0 -3.6 -1.5 7.4 -7.8 11.1 -6.4 24.1 -11.7 25.4 -10.4 0.7 0.7 0.2 1.4 -1.3 2.2 -3.3 1.7 -3.2 1.6 -1.9 4 1.5 2.9 0.4 6 -2.3 6 -3.8 0 -6.7 -1.2 -6.7 -2.6 0 -1.2 -0.5 -1.2 -3 0.1 -1.6 0.8 -3.8 1.5 -5 1.5 -1.1 0 -2 0.7 -2 1.5 0 0.8 -0.7 1.5 -1.5 1.5 -2.1 0 -1.9 1.8 0.2 2.2 4.1 0.8 -20.2 20 -29.9 23.7 -2.6 1 -2.8 0.9 -2.8 -1.4z m51 -30.9 c0 -0.8 -0.5 -1.8 -1.1 -2.2 -1.4 -0.8 -3.3 1.1 -2.5 2.5 1 1.6 3.6 1.3 3.6 -0.3z"/>
  <path d="M713 568.5 c0 -3.1 0.3 -3.5 2.5 -3.5 1.6 0 2.5 -0.6 2.5 -1.5 0 -0.9 0.9 -1.5 2.4 -1.5 5.5 0 3.1 -1.9 -4.9 -3.9 -4.6 -1.1 -10.9 -3 -14 -4.2 -4.6 -1.7 -5.5 -2.4 -5.5 -4.5 0 -1.5 -0.6 -2.4 -1.5 -2.4 -1 0 -1.5 -1.1 -1.5 -3.5 0 -3.1 0.3 -3.5 2.5 -3.5 1.4 0 2.5 -0.4 2.5 -0.8 0 -1.3 4.8 -3.2 8 -3.2 4.8 0 3.5 1.7 -4 5.2 -6.4 3 -6.8 3.4 -5.4 4.9 2.3 2.5 9.6 5.4 22.5 8.9 6.2 1.7 11.9 3.6 12.6 4.2 3.5 2.8 -0.1 4.9 -11.1 6.4 -2.5 0.4 -4.6 0.8 -4.6 1 0 0.1 0.4 1.4 1 2.8 0.9 2.4 0.7 2.6 -1.5 2.6 -2.2 0 -2.5 -0.4 -2.5 -3.5z"/>
  <path d="M305 569 c0 -1.3 0.7 -2 2 -2 1.3 0 2 0.7 2 2 0 1.3 -0.7 2 -2 2 -1.3 0 -2 -0.7 -2 -2z"/>
  <path d="M373 569 c0 -0.5 0.7 -1 1.5 -1 2.6 0 3.3 -9.1 1.1 -14.2 -0.7 -1.5 -0.3 -1.8 1.7 -1.8 2.2 0 2.6 0.6 3.1 4.5 0.4 2.5 0.4 6.5 0 9 -0.6 4.3 -0.8 4.5 -4 4.5 -1.9 0 -3.4 -0.4 -3.4 -1z"/>
  <path d="M248.1 563.7 c4.6 -4 5.6 -7 3.5 -10.2 -2.5 -3.8 -2 -5 3.5 -9.4 5.7 -4.5 7.5 -4.8 14 -2.6 5.2 1.9 8.4 4.7 11 9.7 1 2 2.4 3.8 3.1 4.1 0.7 0.3 -0.3 0.6 -2.3 0.6 -2.9 0.1 -3.8 -0.4 -4.7 -2.4 -0.7 -1.4 -1.2 -3.5 -1.2 -4.5 0 -1.3 -0.7 -2 -1.9 -2 -1 0 -3.5 -0.7 -5.4 -1.5 -5.2 -2.2 -8.7 -2 -8.7 0.5 0 1.3 -0.9 2.2 -2.5 2.6 -2.4 0.6 -3.5 2.4 -1.5 2.4 1.1 0 1.4 9.8 0.4 12.4 -0.3 0.9 -1.2 1.6 -2 1.6 -0.8 0 -1.4 0.5 -1.4 1 0 0.6 -1.7 1 -3.7 1 l-3.8 -0.1 3.6 -3.2z"/>
  <path d="M307 556.1 l0 -6.9 -3.5 -0.6 c-2.7 -0.5 -3.5 -1.2 -3.5 -2.8 0 -1.8 0.4 -2 3.2 -1.4 5.1 1 10.1 6.7 7.9 8.9 -1.4 1.4 -1.4 5.4 -0.1 6.2 2 1.2 1 3.5 -1.5 3.5 -2.4 0 -2.5 -0.2 -2.5 -6.9z"/>
  <path d="M287 552 c0 -2.4 3.1 -5.7 6.6 -7 3.8 -1.5 5.4 -1.2 5.4 0.9 0 1.3 -0.9 2.1 -2.9 2.6 -1.5 0.3 -3.4 1.7 -4.1 3 -1.6 3.1 -5 3.4 -5 0.5z"/>
  <path d="M547 553 c0 -0.5 2.2 -2.1 4.8 -3.4 2.7 -1.3 5.4 -3.1 6.1 -4 1.1 -1.3 1 -1.7 -1 -2.5 -2.2 -0.9 -2 -1 1.4 -1 3.6 -0.1 3.7 0 3.7 3.5 0 2.7 -0.5 3.7 -2 4.1 -1.1 0.3 -2 0.9 -2 1.3 0 1.2 -4.9 3 -8 3 -1.7 0 -3 -0.4 -3 -1z"/>
  <path d="M375 547.2 c0 -1.1 0.9 -2.7 2 -3.7 2 -1.8 2 -1.7 2 1.8 0 3 -0.4 3.7 -2 3.7 -1.3 0 -2 -0.7 -2 -1.8z"/>
  <path d="M872.4 540.8 c1.9 -4 3.7 -9.9 4.1 -13.1 0.8 -7 2 -6.6 3 0.9 0.3 3 1.3 7.1 2.2 9.1 l1.4 3.6 -3.5 -0.6 c-3.1 -0.5 -3.6 -0.3 -3.6 1.4 0 3.4 -1.9 5.9 -4.5 5.9 l-2.4 0 3.3 -7.2z"/>
  <path d="M549 539.6 c-4.2 -2.3 -7 -5 -6 -6 0.3 -0.2 2.2 -0.7 4.3 -1.1 3.3 -0.6 3.7 -0.5 3.7 1.3 0 1.1 -0.6 2.3 -1.2 2.5 -0.7 0.3 -0.1 0.6 1.5 0.6 2.2 0.1 2.7 0.6 2.7 2.6 0 1.4 -0.1 2.5 -0.3 2.5 -0.1 0 -2.2 -1.1 -4.7 -2.4z"/>
  <path d="M694.3 533.3 c-2.9 -0.9 -5.3 -1.9 -5.3 -2.4 0 -0.5 -1.1 -0.9 -2.5 -0.9 -1.4 0 -2.5 -0.4 -2.5 -1 0 -0.5 -0.9 -1 -2 -1 -1.5 0 -2 -0.7 -2 -2.5 0 -1.4 0.2 -2.5 0.4 -2.5 0.2 0 2.6 1.1 5.3 2.4 2.6 1.4 8.3 3.5 12.6 4.7 4.5 1.4 7.7 2.8 7.7 3.6 0 1.7 -5.1 1.6 -11.7 -0.4z"/>
  <path d="M552 532.6 c0 -1.3 2.8 -2.6 5.8 -2.6 0.6 0 1.2 0.9 1.2 2 0 1.6 -0.7 2 -3.5 2 -2.3 0 -3.5 -0.5 -3.5 -1.4z"/>
  <path d="M561.2 529.8 c0.3 -0.7 1.9 -1.8 3.6 -2.5 3.1 -1.3 3.2 -1.2 3.2 1.2 0 2.2 -0.4 2.5 -3.6 2.5 -2.3 0 -3.4 -0.4 -3.2 -1.2z"/>
  <path d="M569 526.3 c0 -0.5 2.3 -2.3 5 -4.1 l5 -3.2 0 3 c0 2 -0.5 3 -1.5 3 -0.8 0 -1.5 0.5 -1.5 1 0 0.6 -1.6 1 -3.5 1 -1.9 0 -3.5 -0.3 -3.5 -0.7z"/>
  <path d="M431.6 441.3 c-0.9 -2.8 -6.8 -5.8 -17.1 -8.8 -4.9 -1.4 -9 -2.7 -9.2 -2.9 -0.2 -0.2 2 -0.6 4.9 -0.9 6.2 -0.7 17.3 0.7 22.5 2.8 3.2 1.3 4.1 1.3 8.7 0 6.7 -2 17.9 -2.9 24.9 -2.1 5.8 0.8 7.9 2.6 3 2.6 -5 0 -22.2 5.1 -35.5 10.5 -1.1 0.4 -1.8 0 -2.2 -1.2z"/>
  <path d="M663.1 436.8 c0.2 -10.2 0.1 -10.1 10.4 -5.9 l9 3.6 -8.3 0.3 -8.3 0.3 0.5 3.4 c0.5 3 0.3 3.5 -1.4 3.5 -1.8 0 -2 -0.6 -1.9 -5.2z"/>
  <path d="M588 436.5 c0 -1.1 -1.8 -1.5 -8.2 -1.7 l-8.3 -0.3 8 -3.1 c6.2 -2.5 8.1 -2.9 8.3 -1.8 0.2 0.8 1 1.4 1.8 1.4 0.9 0 1.4 1.1 1.4 3.5 0 2.4 -0.5 3.5 -1.5 3.5 -0.8 0 -1.5 -0.7 -1.5 -1.5z"/>
  <path d="M652.8 425.7 c-0.7 -0.7 -2.1 -1.6 -3 -2 -1.2 -0.4 -1.8 -1.7 -1.8 -3.7 0 -2.6 -0.3 -3 -2.9 -3 -3.1 0 -4.1 -1.8 -4.1 -7.2 0 -2.1 0.5 -2.8 2 -2.8 1.6 0 2 0.7 2 3.2 0 3.6 5 9 11.9 12.9 2.3 1.2 4.1 2.6 4.1 3.1 0 1.3 -6.7 0.9 -8.2 -0.5z"/>
  <path d="M804.8 424.1 c-0.9 -1.6 -4 -4.3 -7 -6 -5.3 -3.1 -21.3 -8.7 -31.8 -11.2 l-5.5 -1.2 3.5 -1 c1.9 -0.5 9.6 -0.7 17 -0.5 12 0.4 14.6 0.8 22.8 3.7 9.1 3.2 9.4 3.2 14 1.7 8.7 -2.9 20.3 -4.6 31.6 -4.6 9.7 0 23.3 1.6 22.3 2.6 -0.2 0.2 -5.2 1.3 -11.2 2.4 -15.4 3 -34.1 8.8 -53 16.6 -0.5 0.2 -1.7 -0.9 -2.7 -2.5z"/>
  <path d="M595 425.3 c0 -0.5 2.3 -2.3 5 -4.1 l5 -3.2 0 3 c0 2 -0.5 3 -1.5 3 -0.8 0 -1.5 0.5 -1.5 1 0 0.6 -1.6 1 -3.5 1 -1.9 0 -3.5 -0.3 -3.5 -0.7z"/>
  <path d="M607.4 414.8 c0.9 -1.2 1.6 -3.9 1.6 -6 0 -3.1 0.4 -3.8 2 -3.8 1.7 0 2 0.7 2 4.4 0 6.3 -0.7 7.6 -4.2 7.6 -2.8 0 -2.9 -0.1 -1.4 -2.2z"/>
  <path d="M590 403.7 c0 -0.2 3.5 -3.1 7.8 -6.4 10.7 -8.3 19.8 -17.6 21.3 -21.8 1.6 -4.3 3.9 -4.6 3.9 -0.6 0 3.9 -0.9 6.1 -2.5 6.1 -0.8 0 -1.5 1 -1.7 2.3 -0.2 1.6 -1.1 2.3 -3 2.5 -2.1 0.3 -2.8 0.9 -2.8 2.6 0 3 -1.8 4.6 -5.2 4.6 -2.3 0 -2.8 0.4 -2.8 2.5 0 2 -0.5 2.5 -2.5 2.5 -1.8 0 -2.5 0.5 -2.5 2 0 1.3 -0.7 2 -2 2 -1.1 0 -2 0.5 -2 1 0 0.6 -1.3 1 -3 1 -1.6 0 -3 -0.2 -3 -0.3z"/>
  <path d="M657 402.5 c0 -0.8 -0.9 -1.5 -2 -1.5 -1.3 0 -2 -0.7 -2 -2 0 -1.5 -0.7 -2 -2.5 -2 -2.1 0 -2.5 -0.5 -2.5 -3 0 -2.7 -0.3 -3 -3.2 -3 -3.6 0 -8.8 -4.2 -8.8 -7.2 0 -1 -0.7 -1.8 -1.5 -1.8 -0.8 0 -1.5 -0.9 -1.5 -2 0 -1.1 -0.4 -2 -1 -2 -0.6 0 -1 -4.5 -1 -11.5 l0 -11.5 3.6 0 c3.1 0 3.5 -0.3 2.8 -1.7 -1.3 -3.1 -1.7 -9.3 -0.5 -9.3 0.9 0 8.1 12.8 8.1 14.5 0 0.3 -2.4 0.5 -5.2 0.5 l-5.3 0 0.1 7.3 c0.1 3.9 0.2 8 0.3 8.9 0.2 2.6 11.4 14.2 20.8 21.5 4.6 3.6 8.3 6.7 8.3 6.9 0 0.2 -1.6 0.4 -3.5 0.4 -2.4 0 -3.5 -0.5 -3.5 -1.5z"/>
  <path d="M620 360.5 c0 -1.2 -1.3 -1.5 -5.5 -1.5 -3 0 -5.5 -0.2 -5.5 -0.5 0 -0.3 2 -4.6 4.5 -9.6 6.9 -13.7 8.5 -18.4 10.6 -31.4 1.1 -6.6 2.2 -12.7 2.6 -13.5 0.7 -1.8 1.8 2.8 3.9 16.4 0.8 5.4 1.6 10.2 1.9 10.5 0.2 0.4 1.3 3 2.4 5.9 l2.1 5.2 -2.4 0 c-1.9 0 -2.7 -1 -4.5 -5.6 -1.1 -3.1 -2.1 -7 -2.2 -8.7 0 -3.8 -0.7 -2.5 -3.3 6.6 -1 3.1 -2.1 5.7 -2.7 5.7 -0.5 0 -0.9 0.9 -0.9 2 0 1.2 -1.1 4.3 -2.5 7 -1.4 2.7 -2.5 5.2 -2.5 5.5 0 0.3 1.6 0.5 3.5 0.5 3.3 0 3.5 0.2 3.5 3.5 0 2.4 -0.5 3.5 -1.5 3.5 -0.8 0 -1.5 -0.7 -1.5 -1.5z"/>
 </g>
 <g fill="#42576a">
  <path d="M310.3 736.2 c-2.8 -0.3 -3.2 -0.7 -3.8 -4.5 -0.5 -2.7 -0.4 -4.2 0.4 -4.5 1.9 -0.6 1.3 -10.6 -1 -15.8 -2.7 -6.5 -4.9 -17.2 -4.9 -24.4 0 -3.3 -0.8 -7.9 -1.7 -10.2 -2.8 -7.1 -7.8 -15.3 -9.4 -15.6 -2 -0.4 -4.9 6.8 -4.9 11.9 0 4.8 -3.7 14.9 -6.5 17.9 -2.5 2.6 -4.9 10.8 -6 20.1 -0.5 4.4 -0.4 5.8 0.9 6.8 0.9 0.8 1.6 2.4 1.6 3.7 0 1.8 0.7 2.4 3.5 3 4.4 0.8 6.2 2.8 4.5 4.9 -1.7 2.1 -14.1 5.7 -18.2 5.3 -4.2 -0.4 -4.6 -2.7 -2.3 -11.1 1.5 -5.4 1.6 -7.1 0.4 -15.5 -1.4 -10.3 -1.1 -13.3 3.6 -32.2 1.9 -7.7 2.8 -14.7 3.4 -26.5 0.4 -8.8 1.3 -17 1.9 -18.2 1.7 -3.2 1.6 -3.3 -3.2 -3.3 -4.8 0 -12.3 -2.8 -14.5 -5.4 -1.8 -2.1 -0.7 -4.6 2.1 -4.6 1.4 0 1.8 -0.3 1.2 -0.8 -0.7 -0.4 -1.4 -1.6 -1.6 -2.7 -0.3 -1.5 -0.9 -0.8 -2.7 3 -2.6 5.6 -4.1 4.7 -1.7 -1 2.1 -4.9 2.1 -10.1 0 -10.9 -2.9 -1.1 -3.4 -0.6 -3.5 3.7 -0.1 6.7 -1.7 9.3 -1.8 2.9 -0.1 -2.9 -1 -8 -2.2 -11.4 -1.2 -3.7 -2.2 -10.1 -2.6 -16.2 -0.7 -12 0.5 -15.9 6.3 -20.2 2.2 -1.6 4.2 -3.3 4.6 -3.9 1.3 -1.7 0.9 -5.4 -0.8 -8 -1.2 -1.8 -1.3 -2.8 -0.4 -4.4 0.6 -1.2 1.5 -2.1 2 -2.1 0.5 0 2.1 -1.2 3.4 -2.7 2 -2.2 3.4 -2.7 6.6 -2.6 6 0.3 12.7 3.6 14.8 7.4 3.9 7.3 9.2 10.4 9.2 5.3 0 -3.5 4.8 -8.1 9.4 -9 5.4 -1 11 1 13.7 4.8 1.6 2.1 1.9 3.3 1.1 3.6 -1.4 0.4 -1.6 7.2 -0.2 7.2 0.6 0 1 0.9 1 2 0 1.1 -0.6 2 -1.4 2 -0.9 0 -1.6 1.2 -1.8 3.3 -0.3 2.8 -0.7 3.2 -3.5 3.5 -1.8 0.2 -3.3 0.8 -3.3 1.4 0 0.6 2 4.1 4.5 7.9 3.7 5.6 4.5 7.7 4.5 11.4 0 4.3 0.1 4.5 2.1 3.3 1.8 -1.1 2.3 -1 4 1.1 2.2 2.7 2.5 7.3 0.6 9 -0.8 0.6 -3.1 1.4 -5.3 1.9 l-3.9 0.8 -0.3 6.4 c-0.3 6.7 5.1 53.1 6.9 58.7 0.6 1.7 1.7 3.7 2.5 4.3 1.7 1.5 1.9 6.3 0.3 8.8 -1.4 2.2 -0.2 33.2 1.2 33.2 0.5 0 1.5 1.3 2.3 2.9 1.7 3.2 5.2 4.9 12.2 5.9 4.3 0.6 4.9 1 5.2 3.3 0.2 1.8 -0.3 2.9 -1.5 3.5 -2 0.9 -21.9 2.1 -27 1.6z"/>
  <path d="M623.2 733.5 c-2.4 -0.7 -6.1 -2.6 -8.3 -4.1 l-3.9 -2.7 -16.6 0.7 c-9.2 0.4 -17.2 1 -18 1.3 -3.2 1.2 -1 -1.4 3.9 -4.7 5.7 -3.9 7.2 -7.4 4.1 -9.7 -5.7 -4.1 -39.6 1.1 -75.9 11.7 -7.1 2 -19.9 2.7 -20.9 1.1 -0.3 -0.4 1.4 -1.4 3.7 -2 6.6 -2 26.4 -10 30.5 -12.4 l3.7 -2.2 -4.9 -0.3 c-5.7 -0.4 -19.2 1.7 -38.9 6 -7.7 1.6 -14.1 2.8 -14.3 2.6 -0.5 -0.6 36.1 -11.3 52.2 -15.3 23 -5.7 39.4 -8.1 69.6 -10 l9.8 -0.7 4.6 -5.1 c6.5 -7.2 12.1 -16.1 14 -22.1 2.2 -7.4 3.2 -29.5 1.3 -30.7 -2.3 -1.4 -6.5 -1 -8 0.8 -1.2 1.4 -1.5 1.1 -1.9 -2.8 -0.8 -6.8 -2.8 -6.3 -12.6 3.3 l-8.6 8.3 0.7 -4.7 c0.8 -5.1 0 -8.8 -1.8 -8.8 -0.7 0 -3.4 1.2 -6.1 2.6 -2.7 1.4 -7.7 3.6 -11.1 4.9 -6.5 2.5 -19.2 5.1 -20.1 4.2 -0.7 -0.7 1.3 -4.6 4 -7.6 1.3 -1.5 1.6 -2.2 0.6 -1.8 -9.3 3.6 -15.7 4.9 -21.5 4.5 -3.4 -0.3 -7.1 -1 -8.1 -1.6 -2.1 -1.2 -3.2 -0.6 11 -6.3 4.3 -1.7 9 -4.2 10.5 -5.5 l2.6 -2.3 -6 -0.1 c-8.4 0 -23.3 -2.6 -30.2 -5.2 -10.4 -3.8 -15.9 -8.3 -18.8 -15.1 -1.4 -3.5 -1.4 -3.7 0.2 -3.7 1 0 7.4 -0.7 14.3 -1.5 27.4 -3.2 50.1 -11.5 62.8 -23 3.5 -3.2 6.1 -5.9 5.9 -6.1 -0.2 -0.2 -3.9 1.2 -8.3 3.2 -16.8 7.8 -27.5 10.2 -30.8 6.8 -2 -1.9 -2 -3.5 -0.2 -7.8 l1.4 -3.3 -7.3 -1.2 c-8 -1.3 -11.7 -3.2 -9.9 -5.1 0.7 -0.7 7.4 -3 15 -5.1 12.9 -3.7 22.4 -7.9 22.4 -9.8 0 -0.4 -3.3 -2.4 -7.4 -4.5 -4.1 -2 -7.7 -4.3 -8 -5.2 -0.4 -0.9 -0.5 -1.7 -0.4 -1.8 0.2 -0.1 4.4 -1.1 9.3 -2.4 12.3 -3 22.4 -8.1 27.4 -13.9 4.2 -4.6 5.4 -8 2.6 -6.9 -2.7 1 -22.9 3.5 -33.5 4.1 l-10.5 0.5 9.1 -4.8 c9.7 -5.1 19.8 -12.3 20.8 -14.8 0.4 -1.1 -1.1 -2.3 -5.7 -4.4 -5.6 -2.6 -5.9 -2.9 -3.1 -2.9 5 -0.1 17.8 -3.7 23.4 -6.6 6.9 -3.5 14.3 -10.5 16.9 -16 1.2 -2.5 2.1 -4.9 2.1 -5.4 0 -0.6 -2.4 0.1 -5.3 1.4 -2.9 1.3 -7.7 3 -10.5 3.9 l-5.2 1.5 -2.5 -3.7 -2.5 -3.7 -7.5 0 c-6.7 0 -7.7 -0.3 -10.1 -2.6 l-2.6 -2.6 5.5 -0.6 c15.5 -1.9 26.7 -8.6 26.7 -16 l0 -3.7 -6.7 -0.1 c-6.2 -0.1 -6.6 -0.2 -3.8 -1.2 8.4 -3.2 22.8 -11 26.5 -14.3 5.3 -4.8 6.2 -6.7 5.4 -10.9 l-0.6 -3.4 -9.3 -0.3 -9.2 -0.3 10.5 -8.5 c5.8 -4.7 12.5 -10.9 14.9 -13.8 l4.3 -5.3 0 -8.9 0 -9 -5 0 c-2.7 0 -5 -0.2 -5 -0.5 0 -0.3 1.7 -4 3.9 -8.3 6.5 -13 8.8 -20.2 10.6 -32.2 0.9 -6.3 2 -11.9 2.4 -12.3 0.5 -0.5 1.6 4.5 2.5 11 2 13.8 3.1 17.2 10.1 31.5 l5.3 10.8 -5.4 0 -5.4 0 0 8.3 c0 7.7 0.3 8.7 3.1 13 2.7 4.1 12 12.6 23.9 21.9 l3.5 2.7 -9.7 0.1 -9.8 0 -0.1 3.3 c-0.2 5.3 0.1 6 3.9 10 3.2 3.3 15.3 10 28.2 15.5 2.1 0.9 1.4 1.1 -4.4 1.1 l-6.9 0.1 0.6 4.1 c0.3 2.3 1.5 5.1 2.7 6.4 3.2 3.4 12.9 7.4 21.4 8.7 4.2 0.7 7.5 1.7 7.3 2.3 -0.8 2.6 -7.2 4.6 -13.2 4.1 l-6 -0.5 -2.7 3.9 -2.8 3.8 -4.2 -1.3 c-2.4 -0.7 -7.1 -2.4 -10.6 -3.8 l-6.3 -2.6 0.7 2.2 c2.4 8.1 10.2 16.3 19.9 20.8 6.2 2.9 17.4 5.8 23 5.9 2.6 0.1 2.2 0.4 -3 2.6 -3.3 1.3 -6.3 2.8 -6.8 3.3 -1.5 1.5 10 10.7 19.7 15.6 5.2 2.7 9.4 5 9.2 5.3 -0.7 0.7 -29.9 -1.9 -37.1 -3.2 -3.8 -0.8 -7.2 -1.2 -7.4 -1 -0.2 0.1 0.5 1.8 1.6 3.6 4.2 7.3 18.6 15 33.1 17.8 8.4 1.7 7.9 3.4 -2.2 8.5 l-7.8 3.9 3.1 2.8 c2.9 2.6 6.4 3.9 26.8 9.7 4 1.2 7.5 2.6 7.9 3.3 1.1 1.8 -2.3 3.6 -9.8 4.9 -6.3 1.1 -6.9 1.4 -6.3 3.3 2.4 7.5 0.9 10.6 -5.1 10.6 -4.3 0 -15.1 -3.5 -25.6 -8.4 -4.3 -1.9 -7.8 -3.2 -7.8 -2.7 0 1.1 7.1 7.5 12.3 11.1 14.5 9.7 36 15.8 64.9 18.5 l6.8 0.7 -1.6 3.6 c-4.6 11.2 -20.7 18.4 -44.1 19.9 -8.8 0.5 -10.1 0.8 -9.1 2 1.6 1.9 8.8 5.5 16.8 8.3 3.6 1.3 6.9 2.6 7.3 3 1.2 1.1 -7.4 3 -13 3 -2.6 0 -7.8 -1.1 -11.5 -2.4 l-6.8 -2.4 2.5 4.2 c1.4 2.4 2.5 4.6 2.5 5.1 0 0.9 -7.9 -0.2 -15 -2.1 -3 -0.9 -9 -3.4 -13.4 -5.5 -4.3 -2.2 -8.5 -3.8 -9.2 -3.5 -2 0.8 -2.7 4.9 -1.6 9 0.6 2 0.8 3.6 0.4 3.6 -0.3 0 -4.3 -3.6 -8.8 -8.1 -9.6 -9.3 -11.6 -9.8 -12.4 -3 -0.4 3.9 -0.7 4.2 -1.9 2.8 -1.7 -2.1 -6.4 -2.2 -8.1 -0.2 -1.8 2.2 -0.6 22.5 1.8 30.3 2.2 7 7.5 15.2 14.6 22.7 5.1 5.4 5.3 5.5 10.7 5.5 20.2 0 65.3 6.7 94.1 14 18 4.6 54.3 16.7 50.6 17 -0.4 0 -7.1 -1.8 -15 -4.1 -37.9 -10.9 -61.8 -13.9 -61.8 -7.8 0 1.6 3.7 2.8 15.4 5.3 27.1 5.8 13.6 5.8 -38.2 0.1 -35.8 -3.9 -36.2 -3.9 -36.2 -2.4 0 1.2 12.2 7 20.3 9.5 3.1 1 5.7 2.2 5.7 2.6 0 0.5 -11.6 0.8 -26.2 0.7 l-26.3 -0.2 -7.8 3.1 c-8.9 3.6 -7.8 3.5 -13.5 1.7z"/>
  <path d="M873.2 722.5 c-1.8 -1.4 -4.1 -1.6 -10.8 -1.4 -4.6 0.2 -8.4 0.2 -8.4 0 0 -0.2 1.1 -1.2 2.5 -2.3 2.1 -1.7 2.4 -2.3 1.3 -3.5 -1.8 -2.2 -11.1 -1.1 -28.3 3.1 -15 3.8 -21.1 3.6 -10.1 -0.3 3.5 -1.2 7.3 -2.9 8.3 -3.6 1.6 -1.3 1.5 -1.4 -1.7 -1.4 -1.9 0 -6.4 0.6 -10 1.4 -8.3 1.8 -10.8 1.8 -5 -0.1 11.7 -3.8 29.5 -7.5 41.2 -8.6 l12.9 -1.2 2.8 -3.5 c4.2 -5.3 5.2 -7.7 6.1 -14.2 1 -6.9 0.4 -10.1 -1.9 -9.7 -0.9 0.2 -2.1 -0.5 -2.7 -1.6 -1.1 -1.8 -1.4 -1.7 -5.6 2.3 -4 3.7 -4.5 3.8 -4.1 1.7 0.7 -3.6 -1 -3.9 -6.9 -1.1 -2.9 1.4 -6.8 2.5 -8.6 2.5 -3 0 -3.2 -0.2 -2.2 -2 1 -1.8 0.9 -1.9 -1.5 -1 -3.2 1.2 -10.2 1.3 -10.9 0.2 -0.3 -0.5 2 -1.9 5 -3.2 3 -1.2 5.3 -2.4 5.1 -2.6 -0.2 -0.2 -3.6 -0.8 -7.6 -1.4 -8.8 -1.2 -14.5 -4 -16.6 -8 l-1.6 -3 3.5 0 c9.8 0 25.2 -4.8 32.7 -10 4.7 -3.4 3.4 -4.1 -2.7 -1.4 -3.2 1.4 -7.1 2.4 -8.8 2.2 -2.7 -0.3 -3.1 -0.7 -2.9 -3 0.1 -2.3 -0.2 -2.8 -2.2 -2.8 -2.9 0 -5.5 -1 -5.5 -2.1 0 -0.4 3.3 -1.8 7.2 -3 4 -1.2 8.1 -2.7 9.2 -3.4 1.7 -1.3 1.6 -1.5 -1.7 -2.8 -5.5 -2.3 -5.3 -3.4 1 -5.2 6.9 -1.9 13.3 -5.9 13.3 -8.1 0 -1.1 -0.5 -1.4 -1.7 -0.9 -1 0.3 -5.6 0.9 -10.3 1.1 l-8.5 0.6 5.5 -3.2 c3 -1.7 6.3 -3.9 7.4 -4.9 1.8 -1.8 1.8 -1.9 -0.3 -2.6 -2.8 -0.9 -2.7 -2.5 0.2 -2.5 4.1 0 12.6 -4.7 14.7 -8.2 2.8 -4.6 2.5 -5.1 -1.6 -3.3 -4.6 1.9 -7 1.9 -7.8 0 -0.3 -1 -1.9 -1.5 -4.5 -1.5 -2.2 0 -4.2 -0.4 -4.6 -0.9 -0.5 -1 0.6 -1.5 6 -2.6 6.3 -1.2 10.4 -7.3 5.8 -8.4 -1.9 -0.5 -1.3 -1.1 4.2 -4 9.7 -5 11.3 -9.7 3.5 -10.3 l-4.1 -0.3 5.1 -4 c6.6 -5.2 8.7 -8.5 8.2 -13 -0.3 -2.6 -0.9 -3.5 -2.3 -3.5 -1 0 -1.9 -0.2 -1.9 -0.4 0 -0.2 1.3 -3.3 2.9 -6.9 1.6 -3.6 3.2 -9.1 3.6 -12.2 0.4 -3.1 0.9 -5.4 1.2 -5.1 0.2 0.2 1 3.3 1.8 6.9 0.7 3.5 2.5 8.8 3.9 11.5 1.4 2.8 2.6 5.4 2.6 5.7 0 0.3 -1.1 0.5 -2.5 0.5 -2.2 0 -2.5 0.4 -2.5 3.6 0 4.9 1.1 6.6 8.1 12.4 l6 5 -4.5 0 c-4.2 0 -4.6 0.2 -4.6 2.4 0 2.9 4.2 6.4 11 9.5 4 1.8 4.2 2 1.8 2 -2.1 0.1 -2.8 0.6 -2.8 2 0 2.8 4.2 5.7 10 7.1 5.6 1.3 5.8 3 0.3 3 -2 0 -4.5 0.8 -5.5 1.7 -1.8 1.6 -2.3 1.6 -6.4 0.1 -3.5 -1.2 -4.4 -1.3 -4.4 -0.3 0 4.1 10.6 11.5 16.3 11.5 3.2 0 3.6 1.6 0.6 2.5 l-2.1 0.7 2.3 2.3 c1.3 1.3 4.6 3.5 7.3 4.9 l4.9 2.6 -5.4 -0.1 c-3 0 -7.6 -0.4 -10.4 -0.9 -2.7 -0.4 -5.1 -0.7 -5.3 -0.5 -0.2 0.1 0.7 1.5 2 3 1.5 1.7 5 3.6 9.3 5 3.8 1.3 7.1 2.8 7.2 3.2 0.2 0.5 -1.3 1.7 -3.2 2.6 -2 1 -3.3 2.2 -3 2.7 0.3 0.5 4.5 2.2 9.2 3.6 7.9 2.4 8.5 2.8 6.8 4 -1 0.8 -2.9 1.4 -4.2 1.4 -2 0 -2.3 0.4 -2.1 2.8 0.3 2.4 0 2.7 -3.3 3 -2.2 0.2 -5.9 -0.7 -9.5 -2.2 l-5.9 -2.6 3.4 3 c6.3 5.4 17.4 9.3 30 10.6 6.8 0.8 7.5 1.8 3.5 5.8 -2.8 2.7 -9.7 5.1 -17.7 6.1 -2.6 0.4 -4.5 1 -4.2 1.5 0.3 0.4 2.7 1.6 5.4 2.6 2.8 1 4.8 2.1 4.5 2.6 -0.8 1.2 -9.2 1 -11.6 -0.3 -1.8 -1 -1.9 -0.8 -1.3 1.2 0.7 2.1 0.5 2.2 -3.4 1.6 -2.2 -0.3 -6 -1.4 -8.4 -2.6 -5.5 -2.7 -5.7 -2.6 -5.7 0.5 l0 2.5 -4.5 -3.6 c-4.1 -3.4 -4.5 -3.6 -5.2 -1.9 -0.5 1.1 -1.7 1.9 -2.8 1.9 -1.8 0 -2 0.6 -1.9 6 0.1 7.9 1.6 12.1 6.1 17.2 l3.8 4.3 11.5 1.1 c6.3 0.6 17 2.1 23.8 3.4 11.8 2.3 29.8 7.2 29 8 -0.1 0.2 -4.8 -0.7 -10.3 -2.1 -10.4 -2.5 -18 -3.1 -19 -1.4 -0.5 0.8 1.1 1.5 10.5 3.9 3.3 0.9 3.3 0.9 0.7 1 -2.6 0.1 -26.7 -2.3 -34.9 -3.4 -5.8 -0.8 -4.5 1.1 2.5 3.7 l6.2 2.3 -14.5 0.7 c-8 0.3 -16.1 0.9 -18 1.3 -2.5 0.4 -4.2 0.1 -5.8 -1z"/>
  <path d="M378.1 721.3 l-3.3 -0.4 0.4 -8.2 c0.5 -8.1 0.4 -8.3 -3.6 -16.1 -3.8 -7.3 -4.1 -8.4 -4 -15.5 0.1 -4.2 0.6 -11.2 1.1 -15.6 1.1 -8.5 0.5 -11 -2.7 -12 -2.4 -0.8 -2.6 -4.1 -0.5 -13.5 0.8 -3.8 1 -6.7 0.4 -7 -0.5 -0.4 -3.8 -0.2 -7.4 0.4 -4.1 0.6 -8 0.6 -10.3 0 -3.1 -0.8 -3.8 -1.4 -4 -3.9 -0.2 -1.6 -1.7 -7.7 -3.3 -13.4 -3.4 -12.4 -3.5 -14 -0.9 -17.4 2.5 -3.2 2.5 -4.4 0 -5.2 -1.6 -0.5 -2 -1.5 -2 -5 0 -3.9 -0.4 -4.6 -3 -6 -5.9 -3.1 -7.2 -8.2 -3.2 -12.7 1.3 -1.6 3.8 -1.8 22.8 -1.8 14.3 0 21.5 -0.4 22 -1.1 1.1 -1.8 0.7 -11 -0.5 -12.2 -1.6 -1.6 -1.3 -7.9 0.5 -10.6 1.8 -2.6 8.7 -6 12.1 -6.1 1.2 0 3.6 1.2 5.4 2.7 1.8 1.6 4.9 2.9 7.3 3.3 3.3 0.4 4.1 0.9 4.1 2.5 0 1.5 -0.8 2.1 -3.2 2.3 -3.4 0.3 -4 1.1 -2.3 2.8 0.7 0.7 0.8 3.3 0.4 6.7 -0.6 5.1 -0.9 5.6 -3.3 6 -1.9 0.3 -1.6 0.4 1.2 0.6 5.9 0.2 18.1 -5.5 24.6 -11.4 8 -7.3 28.2 -18.7 36.8 -20.8 3.3 -0.8 3.9 1.1 0.8 2.5 -2.5 1.1 -2.6 1.7 -0.8 6.4 0.2 0.6 -0.3 1.7 -1.2 2.4 -1.4 1.1 -2.5 1.1 -6.8 0 l-5.1 -1.3 -8 8.5 c-4.5 4.7 -9.7 9.3 -11.6 10.3 -1.9 1 -5.6 3.2 -8.2 5.1 -2.5 1.8 -6.5 4.2 -8.7 5.4 -3.7 1.8 -4.1 2.4 -4.1 5.8 0 2.8 0.7 4.5 2.5 6.2 3.5 3.3 3.4 8.8 -0.1 13 -2.6 3.1 -2.7 3.3 -2.8 19.9 -0.1 16.5 -0.1 16.8 2.6 20.8 3 4.5 11.2 20.6 12.2 24.1 0.5 1.6 -0.5 4.8 -3.4 11.2 -3.1 6.6 -4.3 10.7 -4.7 15.8 l-0.6 7 4.4 4.6 c3.2 3.5 4.8 4.6 6.3 4.2 3.6 -0.9 6.6 0.4 6.6 3 0 3.4 -3.3 4.7 -10.3 4.1 -4.6 -0.4 -6.4 -0.2 -7.5 1 -1.4 1.4 -7 1.2 -9.4 -0.3 -1.2 -0.7 -1 -6.9 0.3 -10.1 0.6 -1.6 1.1 -7.9 1 -14.5 -0.2 -11 0 -12.1 2.3 -16.1 3.6 -6.2 3.3 -7.9 -2.1 -12.6 -4.4 -3.8 -5.1 -4.1 -9 -3.5 -3.9 0.6 -4.3 0.4 -4.9 -2 -0.9 -3.7 -2.8 -2.7 -3.2 1.7 -0.2 1.9 -1 4.1 -1.8 4.7 -0.8 0.7 -1.4 3 -1.4 5.4 0 2.4 -0.9 5.5 -2.1 7.6 -4.2 6.7 -0.9 31 4.1 31 1 0 2.8 1.6 4 3.5 2.6 4.1 4.9 5.6 11 7 3.5 0.8 4.6 1.5 4.8 3.3 0.6 3.9 -4.5 4.7 -18.8 3.1 -0.8 -0.1 -2.2 0 -3 0.3 -0.8 0.3 -3 0.3 -4.9 0.1z m78.7 -181 c-0.2 -1 -1 -1.8 -1.8 -1.8 -0.8 0 -1.6 0.8 -1.8 1.8 -0.2 1.2 0.3 1.7 1.8 1.7 1.5 0 2 -0.5 1.8 -1.7z"/>
 </g>
</svg>