<?xml version="1.0" encoding="UTF-8"?>
<svg version="1.1" xmlns="http://www.w3.org/2000/svg" width="512" height="512">
<path d="M0 0 C1.47893552 -0.00231109 2.95786989 -0.00549192 4.43680191 -0.00945449 C8.45574786 -0.01772217 12.47459755 -0.01371423 16.49354362 -0.00748205 C20.8453521 -0.00292532 25.19714491 -0.00995718 29.5489502 -0.01544189 C38.0563697 -0.02430339 46.56375377 -0.0224284 55.07117462 -0.01661661 C61.98955067 -0.01208731 68.90791684 -0.01149269 75.82629395 -0.01366425 C76.81351008 -0.01397071 77.80072621 -0.01427718 78.81785798 -0.01459293 C80.823795 -0.01523243 82.82973202 -0.01588085 84.83566904 -0.01653811 C103.61529013 -0.0222319 122.39489165 -0.01569846 141.17450953 -0.00493738 C157.26446146 0.00399726 173.35438453 0.00244495 189.44433594 -0.0067749 C208.15989023 -0.01749436 226.87542741 -0.02168267 245.59098434 -0.01555037 C247.58926137 -0.01491332 249.5875384 -0.01428458 251.58581543 -0.01366425 C252.56883141 -0.01335569 253.55184739 -0.01304714 254.56465173 -0.01272924 C261.46925282 -0.01100733 268.37384298 -0.01390652 275.27844238 -0.01862335 C283.70064783 -0.02425083 292.12281603 -0.02267663 300.54501724 -0.01206186 C304.83651528 -0.0068302 309.12795137 -0.00470535 313.41944885 -0.01136017 C317.35737833 -0.01737405 321.29518915 -0.0139561 325.23310804 -0.00340506 C326.64812463 -0.00119386 328.06315151 -0.00225516 329.47816133 -0.00715664 C355.03686998 -0.08881193 378.44666721 5.64387071 397.22900391 23.753479 C405.54513004 32.20156351 411.76868287 42.05296856 415.70605469 53.25396729 C416.03922164 54.18621156 416.37238859 55.11845583 416.71565151 56.07894993 C420.5326148 68.33175516 420.2776779 80.40929691 420.23950195 93.14630127 C420.24657023 95.63797006 420.25531905 98.12963455 420.26560974 100.62129211 C420.28568385 106.65191249 420.28716064 112.68226345 420.2789842 118.71288966 C420.27265612 123.61522741 420.27384675 128.51751027 420.28025627 133.41984749 C420.28115793 134.12044711 420.28205958 134.82104673 420.28298856 135.54287665 C420.28483992 136.9665258 420.28670249 138.39017494 420.28857612 139.81382407 C420.30510263 153.12139276 420.29647656 166.428855 420.27959054 179.73641724 C420.26487003 191.90015462 420.27956401 204.0636455 420.3083607 216.22735118 C420.33777059 228.74390893 420.34872415 241.26035296 420.3391785 253.77694374 C420.33815602 255.19289496 420.33716141 256.60884619 420.33619499 258.02479744 C420.3357186 258.72133094 420.33524221 259.41786443 420.33475139 260.135505 C420.33259089 265.0326612 420.34237083 269.92970915 420.35696602 274.82684135 C420.37633587 281.41720043 420.36938334 288.00717411 420.34476662 294.5975399 C420.33975544 297.01463847 420.34325631 299.43177201 420.35591507 301.84884262 C420.37183534 305.1497729 420.35690285 308.44918702 420.33424377 311.75004578 C420.35199737 313.18219529 420.35199737 313.18219529 420.37010962 314.64327711 C420.26257086 322.36073414 417.77237044 327.26627502 412.26855469 332.62896729 C407.07449986 335.92275815 401.82238558 337.14361542 395.70605469 336.25396729 C389.32768201 334.37672048 385.45555389 331.70778431 381.70605469 326.25396729 C363.06976989 288.98139769 379.70605469 242.92596694 379.70605469 201.25396729 C237.14605469 201.25396729 94.58605469 201.25396729 -52.29394531 201.25396729 C-73.02610835 332.5360789 -73.02610835 332.5360789 -40.16894531 443.12896729 C-28.55729282 453.61277715 -14.50604907 454.5590122 0.35644531 454.50793457 C1.82637944 454.51024233 3.2963124 454.51342097 4.76624298 454.51738906 C8.78333536 454.52570235 12.80033215 454.52162762 16.81742477 454.51541662 C21.15831891 454.5108789 25.49919698 454.51788243 29.84008789 454.52337646 C38.33515157 454.53225802 46.83017985 454.53035397 55.3252449 454.52455118 C62.23091166 454.52002983 69.13656852 454.51942384 76.04223633 454.52159882 C77.51791604 454.52205852 77.51791604 454.52205852 79.02340746 454.5225275 C81.02210681 454.52316697 83.02080616 454.52381539 85.0195055 454.52447268 C103.75030992 454.53017235 122.48109474 454.52362378 141.21189594 454.51287195 C157.27506283 454.50393677 173.33820082 454.50548892 189.40136719 454.51470947 C208.06629665 454.52541851 226.73120895 454.52962306 245.39614105 454.52348495 C247.38738505 454.52284786 249.37862905 454.52221912 251.36987305 454.52159882 C252.3495393 454.52129026 253.32920556 454.52098171 254.33855867 454.52066381 C261.23392938 454.51893878 268.12928918 454.52184785 275.0246582 454.52655792 C283.43065886 454.53217379 291.83662217 454.53063545 300.24261856 454.51999643 C304.52941187 454.51474924 308.81614298 454.51266674 313.10293579 454.51929474 C317.03093455 454.52527603 320.95881373 454.52194327 324.88680172 454.51133963 C326.30389762 454.50911483 327.72100372 454.51022113 329.13809299 454.51509121 C343.28120665 454.55994899 356.60765871 453.03651465 367.58105469 443.12896729 C375.23343859 434.48977961 377.59984571 424.98458418 378.97436523 413.815979 C380.15807576 405.77457359 383.93757976 401.05841374 390.39355469 396.25396729 C396.17367799 394.5090244 402.35441533 393.96614527 408.08496094 396.16802979 C413.32892551 399.25271483 417.75168547 403.39085963 419.70605469 409.25396729 C421.05365607 431.43416059 415.41377207 451.27005554 400.70605469 468.25396729 C400.10921875 469.04674072 399.51238281 469.83951416 398.89746094 470.65631104 C385.65899489 486.34896687 364.91209293 494.3141493 344.9248718 496.04802001 C338.94573846 496.43057863 332.96469236 496.39498868 326.9757843 496.38768005 C325.50926426 496.38955167 324.04274471 496.39185376 322.57622594 496.39454538 C318.57300256 496.40062645 314.56980019 496.40053417 310.56657326 496.399351 C306.23853687 496.39914606 301.91050705 496.40467468 297.58247375 496.40940857 C289.11294959 496.41769539 280.64343239 496.42046252 272.17390452 496.42102095 C265.28547765 496.42149704 258.39705308 496.42355645 251.50862694 496.42672157 C231.9545059 496.43552277 212.40039035 496.44014178 192.84626732 496.4393911 C191.79331991 496.43935114 190.74037249 496.43931119 189.65551758 496.43927002 C188.07415552 496.4392087 188.07415552 496.4392087 186.46084674 496.43914614 C169.38131621 496.43873982 152.30180774 496.44830722 135.22228358 496.46240839 C117.6614638 496.47679187 100.10065477 496.48367749 82.53982896 496.48281461 C72.69029857 496.48248332 62.84079131 496.48520046 52.99126625 496.49599266 C44.60449587 496.50512364 36.2177591 496.50725165 27.83098588 496.50048324 C23.55761644 496.49723111 19.28431139 496.49711374 15.01094818 496.50583649 C11.08823089 496.51376067 7.16562844 496.51221046 3.24291375 496.50355235 C1.83448753 496.50203028 0.42605249 496.50378387 -0.98236331 496.50941243 C-26.94934318 496.60619596 -50.70538656 491.18144518 -69.81689453 472.75445557 C-85.85170455 456.46520889 -92.95760702 435.49329884 -92.80187988 412.88409424 C-92.80650197 411.39690449 -92.81286357 409.90971934 -92.82078886 408.42254353 C-92.83732615 404.38069903 -92.82930791 400.33923736 -92.81684399 396.29739237 C-92.80773112 391.92102508 -92.8217939 387.54472007 -92.83276367 383.16836548 C-92.8504874 374.61278522 -92.84673643 366.05734587 -92.83511311 357.50176024 C-92.82605476 350.54428314 -92.82486514 343.58684533 -92.82920837 336.62936401 C-92.82982131 335.63659716 -92.83043424 334.64383031 -92.83106574 333.62097961 C-92.83234473 331.60376858 -92.83364159 329.58655756 -92.83495611 327.56934655 C-92.8463439 308.6838326 -92.83327651 289.7983965 -92.81175464 270.91289532 C-92.79388531 254.73195066 -92.79698993 238.55112081 -92.81542969 222.37017822 C-92.83686827 203.54913413 -92.84524543 184.72815814 -92.83298063 165.90710354 C-92.83170653 163.89759256 -92.83044904 161.88808156 -92.82920837 159.87857056 C-92.82859127 158.89002636 -92.82797417 157.90148216 -92.82733837 156.88298208 C-92.82389442 149.93929514 -92.82969314 142.99565164 -92.83912659 136.05197144 C-92.8503812 127.58214768 -92.84723403 119.11247208 -92.82600361 110.64266515 C-92.81553961 106.32680188 -92.81129131 102.01118502 -92.82460022 97.69532394 C-92.83662726 93.73506112 -92.82979437 89.77527027 -92.80869001 85.81504953 C-92.80426715 84.39196112 -92.80639143 82.96883181 -92.81619316 81.54577029 C-92.89738366 68.76538297 -90.69106605 56.5371575 -84.66894531 45.12896729 C-84.32831055 44.47138428 -83.98767578 43.81380127 -83.63671875 43.1362915 C-73.44758431 24.13827891 -57.22742514 10.69848448 -36.79394531 3.87896729 C-24.6451832 0.6104275 -12.52320258 -0.04337938 0 0 Z M-42.54394531 54.93365479 C-63.41268312 82.60336519 -52.29394531 135.73100623 -52.29394531 160.25396729 C90.26605469 160.25396729 232.82605469 160.25396729 379.70605469 160.25396729 C385.84655358 108.29687721 385.84655358 108.29687721 368.08105469 52.87896729 C356.25828609 42.04895025 342.32797697 40.94751396 327.05566406 41 C325.58572994 40.99769224 324.11579697 40.9945136 322.64586639 40.99054551 C318.62877401 40.98223223 314.61177723 40.98630695 310.5946846 40.99251795 C306.25379046 40.99705568 301.9129124 40.99005214 297.57202148 40.98455811 C289.07695781 40.97567655 280.58192952 40.9775806 272.08686447 40.98338339 C265.18119772 40.98790474 258.27554086 40.98851073 251.36987305 40.98633575 C250.38608657 40.98602929 249.4023001 40.98572282 248.38870192 40.98540707 C246.39000257 40.9847676 244.39130322 40.98411918 242.39260387 40.98346189 C223.66179946 40.97776222 204.93101464 40.98431079 186.20021343 40.99506262 C170.13704654 41.0039978 154.07390856 41.00244565 138.01074219 40.9932251 C119.34581273 40.98251606 100.68090043 40.97831151 82.01596832 40.98444963 C80.02472433 40.98508671 78.03348033 40.98571545 76.04223633 40.98633575 C75.06257007 40.98664431 74.08290381 40.98695286 73.0735507 40.98727076 C66.17817999 40.98899579 59.28282019 40.98608672 52.38745117 40.98137665 C43.98145052 40.97576078 35.5754872 40.97729912 27.16949081 40.98793814 C22.8826975 40.99318533 18.5959664 40.99526783 14.30917358 40.98863983 C10.38117482 40.98265854 6.45329564 40.9859913 2.52530766 40.99659494 C1.10821176 40.99881974 -0.30889434 40.99771344 -1.72598362 40.99284336 C-17.10018348 40.94408094 -31.61625553 42.95872807 -42.54394531 54.93365479 Z " fill="#000000" transform="translate(92.2939453125,7.74603271484375)"/>
<path d="M0 0 C3.19489137 2.17384361 6.07824213 4.64879145 8.89453125 7.2890625 C9.48621094 6.73476563 10.07789063 6.18046875 10.6875 5.609375 C11.47769531 4.88492187 12.26789063 4.16046875 13.08203125 3.4140625 C13.85933594 2.69476563 14.63664062 1.97546875 15.4375 1.234375 C20.87710507 -3.07233935 26.18495474 -3.39344528 32.89453125 -2.7109375 C38.60222956 -1.20428111 43.26477239 1.96083555 46.64453125 6.7890625 C49.12774223 11.75548446 49.65524158 16.81023864 48.89453125 22.2890625 C46.66295745 28.44672465 43.30686605 33.49852757 38.89453125 38.2890625 C39.44882813 38.86914062 40.003125 39.44921875 40.57421875 40.046875 C46.48681747 46.42238181 49.45564905 51.1499396 49.203125 59.98828125 C48.32510146 66.53455804 44.78222783 71.1094405 39.68359375 75.1015625 C34.96861261 78.23115697 30.45106505 78.76807403 24.89453125 78.2890625 C18.22926203 76.84009093 14.31618262 73.3325086 9.89453125 68.2890625 C6.9414939 69.65402199 4.5518816 71.25504616 2.01953125 73.2890625 C-3.47481726 77.45298651 -8.16479799 78.88739619 -15.10546875 78.2890625 C-22.10777926 76.89136811 -26.11415921 73.07148602 -30.10546875 67.2890625 C-32.62948414 62.02155213 -33.08735105 56.57502088 -31.41796875 50.98828125 C-29.23975234 45.58811972 -26.44509621 42.13555048 -22.10546875 38.2890625 C-23.43156945 35.36909077 -24.91582437 33.24603376 -27.10546875 30.9140625 C-31.1459228 26.27246773 -32.67216632 21.74605835 -32.48046875 15.50390625 C-31.45129963 9.42537613 -28.50263439 3.92493386 -23.54296875 0.2265625 C-16.06925353 -3.98589517 -7.53636697 -4.26702651 0 0 Z " fill="#000000" transform="translate(176.10546875,254.7109375)"/>
<path d="M0 0 C3.98828433 2.29079142 7.40424303 5.23835284 10.75 8.375 C11.34167969 7.82070313 11.93335938 7.26640625 12.54296875 6.6953125 C13.33316406 5.97085937 14.12335938 5.24640625 14.9375 4.5 C15.71480469 3.78070313 16.49210937 3.06140625 17.29296875 2.3203125 C22.73823378 -1.99088303 28.03575632 -2.29747511 34.75 -1.625 C41.53659861 0.48885858 45.61521273 4.04023949 49.0625 10.1875 C51.63319272 15.75733422 51.47626332 20.63519899 49.6875 26.4375 C47.80179394 31.06022603 44.44892025 34.13211101 40.75 37.375 C42.0761007 40.29497173 43.56035562 42.41802874 45.75 44.75 C49.8910397 49.5071456 51.2189965 53.9257545 50.98828125 60.30078125 C50.17417519 67.38750774 47.33373906 71.52929024 41.796875 75.96484375 C36.98022205 79.28318671 32.5048363 79.87110658 26.75 79.375 C20.01633475 77.88465155 15.61431738 74.09701022 10.75 69.375 C7.83002827 70.7011007 5.70697126 72.18535562 3.375 74.375 C-0.73190633 77.95762041 -4.17889408 79.18323093 -9.625 79.6875 C-16.2896094 79.11296471 -20.56151193 77.51794332 -25.125 72.5 C-29.80951257 66.62034983 -31.0489059 61.83575027 -30.25 54.375 C-28.3882406 48.13263026 -24.64385805 44.0096174 -20.25 39.375 C-20.63671875 38.8903125 -21.0234375 38.405625 -21.421875 37.90625 C-26.62520808 31.20889058 -31.0128839 25.33139809 -30.57421875 16.54296875 C-29.74300708 10.9848666 -27.18696386 6.31196386 -23.25 2.375 C-16.37448266 -2.61056471 -7.77548974 -3.5863693 0 0 Z " fill="#000000" transform="translate(317.25,253.625)"/>
<path d="M0 0 C14.09725873 11.32669921 14.09725873 11.32669921 15 19 C15.7313705 26.06991483 14.04341354 31.13150454 10 37 C4.51491135 42.25704339 -0.80295541 43.36449065 -8.15234375 43.27734375 C-14.93719054 42.61654248 -19.2596162 38.8790461 -24.140625 34.45703125 C-31.96231118 28.32785279 -41.39027099 27.17498094 -51 28 C-58.53500108 29.74652343 -64.08833487 33.16436164 -70 38 C-76.60494205 42.75856052 -81.91374527 43.78539547 -90 43 C-95.92399285 41.25764916 -99.574416 38.03762353 -103 33 C-105.66324386 27.16622774 -105.85802427 21.16485612 -104.0625 15.0625 C-99.01092668 3.07969817 -84.99673009 -4.03815129 -73.69921875 -8.9375 C-49.28868839 -18.54627606 -21.4746195 -15.18269276 0 0 Z " fill="#000000" transform="translate(301,369)"/>
<path d="M0 0 C5.43763166 3.3214155 8.15132553 8.0789766 10.125 14 C10.94014007 20.65475008 9.90632756 26.40153447 6.125 32 C-0.63470182 38.60733149 -6.53377224 39.21310611 -15.625 39.3125 C-16.49382812 39.34150391 -17.36265625 39.37050781 -18.2578125 39.40039062 C-24.90873522 39.46530203 -30.45204498 38.2482474 -35.40087891 33.55200195 C-40.59037219 27.58211255 -41.38001286 23.04671161 -41.2578125 15.26953125 C-40.55022278 9.22613743 -37.68054254 5.75924658 -33.4375 1.625 C-24.56400456 -4.00209467 -9.53720191 -4.27877487 0 0 Z " fill="#000000" transform="translate(282.875,90)"/>
<path d="M0 0 C5.38650129 3.33087535 8.10076447 8.11479341 10.0625 14 C11.11362621 21.34286735 9.08232272 26.87087469 5.0625 33 C-0.11471682 38.30996597 -6.03407096 39.27315508 -13.18359375 39.37109375 C-14.05113281 39.37238281 -14.91867188 39.37367188 -15.8125 39.375 C-16.67230469 39.39949219 -17.53210938 39.42398438 -18.41796875 39.44921875 C-25.44772925 39.48122069 -30.67891854 37.87521894 -35.99609375 33.18359375 C-36.67865234 32.31927734 -36.67865234 32.31927734 -37.375 31.4375 C-37.84808594 30.85871094 -38.32117188 30.27992187 -38.80859375 29.68359375 C-42.22503822 24.58848107 -41.43909136 17.84954435 -40.9375 12 C-39.08850727 5.9564352 -34.30251111 1.78963138 -28.8515625 -1.109375 C-20.37761938 -3.69926646 -8.1003362 -3.64515129 0 0 Z " fill="#000000" transform="translate(200.9375,90)"/>
<path d="M0 0 C1.28293945 -0.0299707 1.28293945 -0.0299707 2.59179688 -0.06054688 C9.55963776 -0.05523197 14.73552603 1.6243444 20.0859375 6.1484375 C24.78411187 11.93289497 26.71801896 16.83348009 26.0625 24.4375 C24.53466933 30.69205682 21.92666228 34.94973056 16.3894043 38.51464844 C10.88992213 41.53789777 6.27556451 42.05046481 0.0625 41.9375 C-0.78828125 41.95296875 -1.6390625 41.9684375 -2.515625 41.984375 C-9.46718393 41.9417274 -14.43914451 40.09165774 -19.9609375 35.90234375 C-24.3020048 30.99668678 -25.79953198 25.9679861 -25.9375 19.4375 C-25.04290904 13.1050022 -21.962078 7.44470476 -16.9375 3.4375 C-11.23679918 0.35232985 -6.41781881 -0.05296025 0 0 Z " fill="#000000" transform="translate(102.9375,87.5625)"/>
</svg>
