<?xml version="1.0" encoding="UTF-8"?>
<svg version="1.1" xmlns="http://www.w3.org/2000/svg" width="512" height="512">
<path d="M0 0 C0.81189789 -0.00974854 1.62379578 -0.01949707 2.46029663 -0.02954102 C20.43960871 -0.20095826 37.7247481 0.04922393 55.3125 4.23828125 C56.47120605 4.49520752 56.47120605 4.49520752 57.65332031 4.75732422 C106.95807924 15.84290825 149.02047601 49.1075889 175.8515625 91.171875 C182.56476494 102.00212826 187.67106362 113.38919483 192.3125 125.23828125 C192.57401855 125.90005371 192.83553711 126.56182617 193.10498047 127.24365234 C199.58465736 143.99368456 203.37124839 162.96783991 203.55078125 180.92578125 C203.56052979 181.73772446 203.57027832 182.54966766 203.58032227 183.38621521 C203.75132111 201.32239077 203.63370498 218.7120337 199.3125 236.23828125 C199.11994629 237.02090332 198.92739258 237.80352539 198.72900391 238.60986328 C197.46459741 243.56080165 195.96963719 248.40586312 194.3125 253.23828125 C193.97629639 254.23432373 193.97629639 254.23432373 193.63330078 255.25048828 C177.58633409 302.1683309 143.2894785 341.44249837 99.3125 364.23828125 C75.58741274 375.78785959 49.20014058 384.21069627 22.625 384.4765625 C21.81323807 384.48635635 21.00147614 384.49615021 20.16511536 384.50624084 C2.20290289 384.67826582 -15.13072087 384.50404536 -32.6875 380.23828125 C-33.56245117 380.03460938 -34.43740234 379.8309375 -35.33886719 379.62109375 C-51.65990907 375.72855229 -66.90096033 369.14856485 -81.86958313 361.65138245 C-82.77141988 361.19986596 -83.67325663 360.74834948 -84.60242176 360.28315067 C-85.29049758 359.93834376 -85.9785734 359.59353685 -86.6875 359.23828125 C-87.25550009 359.80996851 -87.82350018 360.38165577 -88.40871239 360.97066689 C-102.25368002 374.90411405 -116.10981362 388.82636698 -129.97833824 402.73636818 C-136.68488741 409.46351014 -143.38765695 416.19433745 -150.08154297 422.93408203 C-155.9184522 428.81095959 -161.76244619 434.68068409 -167.61492407 440.5420593 C-170.71123991 443.64357295 -173.80398288 446.7484641 -176.88825607 449.86195755 C-179.7966155 452.79764405 -182.71441989 455.72361136 -185.63946152 458.64267349 C-186.70630058 459.71060509 -187.76976592 460.78192042 -188.82939911 461.85700226 C-200.69391197 473.88581842 -211.51459554 480.45097026 -228.5625 480.67578125 C-243.20960081 480.57746952 -253.70519607 475.8831048 -264.4375 465.92578125 C-274.43041038 455.36723444 -277.20189781 443.82000202 -277.10717773 429.70800781 C-276.59093418 411.95985336 -266.90943014 400.98616175 -254.79516602 389.00537109 C-253.70975815 387.92081143 -252.62501437 386.83558682 -251.5408783 385.74975586 C-248.62244156 382.83046527 -245.69490909 379.92045879 -242.76554227 377.0121417 C-239.69585731 373.96132627 -236.63477661 370.90190133 -233.57273865 367.84341431 C-227.78492842 362.06489454 -221.98951998 356.29405896 -216.19128126 350.52600539 C-209.58552121 343.95388315 -202.98837006 337.37314771 -196.39189637 330.7917068 C-182.83326125 317.2643527 -169.26395572 303.74774882 -155.6875 290.23828125 C-155.94729015 289.69184464 -156.20708031 289.14540802 -156.47474289 288.58241272 C-157.66201788 286.08396505 -158.84810814 283.58495669 -160.03417969 281.0859375 C-160.64723465 279.79653259 -160.64723465 279.79653259 -161.27267456 278.4810791 C-168.38242981 263.49367546 -174.15274366 248.47007415 -177.6875 232.23828125 C-177.85121094 231.53525879 -178.01492187 230.83223633 -178.18359375 230.10791016 C-183.98406829 204.33534715 -182.77014189 173.77624563 -176.6875 148.23828125 C-176.51621582 147.46581055 -176.34493164 146.69333984 -176.16845703 145.89746094 C-165.082873 96.59270201 -131.81819235 54.53030524 -89.75390625 27.69921875 C-78.92365299 20.98601631 -67.53658642 15.87971763 -55.6875 11.23828125 C-55.02572754 10.9767627 -54.36395508 10.71524414 -53.68212891 10.44580078 C-36.93209614 3.96612368 -17.95794171 0.17953406 0 0 Z M-102.31884766 79.82177734 C-123.33904554 100.95922455 -137.98900535 128.26339741 -144.6875 157.23828125 C-144.93306641 158.22441406 -144.93306641 158.22441406 -145.18359375 159.23046875 C-150.26829663 180.15759302 -150.0601177 206.40250082 -144.6875 227.23828125 C-144.51057617 227.94114258 -144.33365234 228.64400391 -144.15136719 229.36816406 C-133.53590429 270.49162397 -108.35284982 306.55019863 -71.80859375 328.61328125 C-33.69756273 350.9879935 9.32194921 357.48793134 52.28491211 346.8293457 C62.0602152 344.22798405 71.22065543 340.64644831 80.3125 336.23828125 C80.98458496 335.91601562 81.65666992 335.59375 82.34912109 335.26171875 C119.6992036 317.08991099 148.3703707 283.93168479 162.14501953 244.87792969 C164.10294684 239.05843836 165.78611843 233.18465876 167.3125 227.23828125 C167.58368652 226.2009082 167.58368652 226.2009082 167.86035156 225.14257812 C173.01141544 204.3539903 172.64955454 177.93614265 167.3125 157.23828125 C167.13557617 156.53541992 166.95865234 155.83255859 166.77636719 155.10839844 C156.00265931 113.37191006 130.30382864 77.19300814 93.11206055 55.05517578 C28.95090368 17.95622999 -49.20438344 28.26529501 -102.31884766 79.82177734 Z M-135.6875 317.23828125 C-149.47971886 330.98379785 -163.26622153 344.73502263 -177.04592705 358.49308395 C-183.44408563 364.88092605 -189.84410741 371.26688035 -196.24853516 377.6484375 C-201.83004498 383.21002488 -207.40804087 388.77510839 -212.98182976 394.34443402 C-215.93374588 397.29374083 -218.88740227 400.24125639 -221.84527206 403.1845932 C-224.62875842 405.9545138 -227.4075253 408.72908189 -230.18273163 411.50729752 C-231.20249758 412.52651285 -232.22398111 413.54401299 -233.24729538 414.55966568 C-234.64375127 415.94617653 -236.03346523 417.33946785 -237.42282104 418.73309326 C-238.59257634 419.90008318 -238.59257634 419.90008318 -239.78596306 421.09064865 C-243.6713465 425.47887585 -244.13463231 429.04765813 -244 434.76953125 C-243.3677834 439.76404241 -240.65914099 442.3591775 -237.0625 445.61328125 C-232.59902634 447.76236116 -228.55728591 448.24787101 -223.6875 447.23828125 C-217.33767817 443.6913594 -212.54224863 438.35947423 -207.45947266 433.23730469 C-206.43440004 432.21166732 -205.40888563 431.18647134 -204.38296509 430.16168213 C-201.61031842 427.38960749 -198.84386641 424.61142536 -196.07851076 421.83207989 C-193.18332433 418.92436117 -190.28244444 416.02233374 -187.38217163 413.11968994 C-181.89595733 407.62726821 -176.41485974 402.12976977 -170.93559587 396.6304152 C-164.69528114 390.36771853 -158.4492626 384.11072373 -152.2027657 377.85419416 C-139.3580006 364.98854375 -126.52039225 352.11577377 -113.6875 339.23828125 C-114.47970947 338.44607178 -115.27191895 337.6538623 -116.08813477 336.83764648 C-122.62125651 330.30452474 -129.15437826 323.77140299 -135.6875 317.23828125 Z " fill="#B2AAFF" transform="translate(292.6875,15.76171875)"/>
<path d="M0 0 C11.03351777 9.41367521 20.74177737 19.54327884 28.359375 31.921875 C28.9575 32.82421875 29.555625 33.7265625 30.171875 34.65625 C47.23806415 61.62692392 51.95741288 96.84691407 45.734375 127.921875 C40.44112548 151.40509314 29.01002488 172.58431712 12.359375 189.921875 C11.51632812 190.82808594 10.67328125 191.73429688 9.8046875 192.66796875 C3.22097057 199.54747586 -3.60918518 204.82853109 -11.640625 209.921875 C-13.10822266 210.86353516 -13.10822266 210.86353516 -14.60546875 211.82421875 C-42.24310059 228.77777278 -78.45388661 233.89352806 -110.01489258 226.76025391 C-132.62190104 221.06692264 -152.82726848 210.0690922 -169.640625 193.921875 C-170.54683594 193.07882812 -171.45304687 192.23578125 -172.38671875 191.3671875 C-179.26622586 184.78347057 -184.54728109 177.95331482 -189.640625 169.921875 C-190.58228516 168.45427734 -190.58228516 168.45427734 -191.54296875 166.95703125 C-208.49244236 139.3260513 -213.62444299 103.09709642 -206.47680664 71.54321289 C-204.51186036 63.75227139 -201.87093917 56.27260138 -198.640625 48.921875 C-198.35735352 48.26767578 -198.07408203 47.61347656 -197.78222656 46.93945312 C-184.49635289 16.84438016 -158.91906214 -6.86231089 -128.44433594 -18.94921875 C-123.24568617 -20.90858827 -117.98462149 -22.56477 -112.640625 -24.078125 C-111.46242188 -24.41972656 -110.28421875 -24.76132813 -109.0703125 -25.11328125 C-71.89193068 -33.89718465 -29.46200767 -24.12264413 0 0 Z M-144.640625 29.921875 C-145.91486328 31.07623047 -145.91486328 31.07623047 -147.21484375 32.25390625 C-162.87149488 47.09535655 -174.56409273 68.90966263 -175.80175781 90.76757812 C-176.26620433 109.58374558 -176.26620433 109.58374558 -172.640625 127.921875 C-172.3003125 128.98792969 -171.96 130.05398437 -171.609375 131.15234375 C-162.65740041 156.46586649 -144.53941349 176.02110212 -120.6875 188.0625 C-97.80468509 198.98131644 -71.33204297 199.29168981 -47.640625 190.921875 C-22.42858468 180.64525774 -2.61717513 161.89487225 8.265625 136.8203125 C17.39943001 112.61572923 17.40694717 85.46977975 6.765625 61.75390625 C-4.9165135 38.22737733 -23.74547671 19.34067108 -48.75 10.375 C-81.91883168 -0.5304043 -118.81400237 5.96615732 -144.640625 29.921875 Z " fill="#B2AAFF" transform="translate(384.640625,107.078125)"/>
<path d="M0 0 C6.30202787 3.24920417 10.95997351 8.73874558 15.875 13.75 C16.75414062 14.63816406 17.63328125 15.52632812 18.5390625 16.44140625 C20.69732519 18.62312832 22.85076168 20.80939346 25 23 C28.53323172 21.4994769 30.74536516 19.462001 33.40625 16.71875 C34.23253906 15.87699219 35.05882812 15.03523437 35.91015625 14.16796875 C36.76480469 13.28753906 37.61945313 12.40710938 38.5 11.5 C40.19314885 9.75577577 41.89088708 8.01599179 43.59375 6.28125 C44.71813477 5.12206055 44.71813477 5.12206055 45.86523438 3.93945312 C50.63819121 -0.39681965 54.8183888 -0.43449608 61.0859375 -0.3125 C66.38740101 0.25602156 68.83972495 2.77865784 72.375 6.5 C74.72325726 11.55778486 74.97097307 16.51685793 74 22 C70.75079583 28.30202787 65.26125442 32.95997351 60.25 37.875 C59.36183594 38.75414062 58.47367187 39.63328125 57.55859375 40.5390625 C55.37687168 42.69732519 53.19060654 44.85076168 51 47 C52.5005231 50.53323172 54.537999 52.74536516 57.28125 55.40625 C58.12300781 56.23253906 58.96476562 57.05882812 59.83203125 57.91015625 C60.71246094 58.76480469 61.59289062 59.61945313 62.5 60.5 C64.24422423 62.19314885 65.98400821 63.89088708 67.71875 65.59375 C68.87793945 66.71813477 68.87793945 66.71813477 70.06054688 67.86523438 C74.39681965 72.63819121 74.43449608 76.8183888 74.3125 83.0859375 C73.74397844 88.38740101 71.22134216 90.83972495 67.5 94.375 C62.44221514 96.72325726 57.48314207 96.97097307 52 96 C45.69797213 92.75079583 41.04002649 87.26125442 36.125 82.25 C35.24585938 81.36183594 34.36671875 80.47367187 33.4609375 79.55859375 C31.30267481 77.37687168 29.14923832 75.19060654 27 73 C23.46676828 74.5005231 21.25463484 76.537999 18.59375 79.28125 C17.76746094 80.12300781 16.94117188 80.96476562 16.08984375 81.83203125 C15.23519531 82.71246094 14.38054687 83.59289062 13.5 84.5 C11.80685115 86.24422423 10.10911292 87.98400821 8.40625 89.71875 C7.65666016 90.49154297 6.90707031 91.26433594 6.13476562 92.06054688 C1.36180879 96.39681965 -2.8183888 96.43449608 -9.0859375 96.3125 C-14.38740101 95.74397844 -16.83972495 93.22134216 -20.375 89.5 C-22.72325726 84.44221514 -22.97097307 79.48314207 -22 74 C-18.75079583 67.69797213 -13.26125442 63.04002649 -8.25 58.125 C-7.36183594 57.24585938 -6.47367187 56.36671875 -5.55859375 55.4609375 C-3.37687168 53.30267481 -1.19060654 51.14923832 1 49 C-0.5005231 45.46676828 -2.537999 43.25463484 -5.28125 40.59375 C-6.12300781 39.76746094 -6.96476562 38.94117188 -7.83203125 38.08984375 C-8.71246094 37.23519531 -9.59289062 36.38054687 -10.5 35.5 C-12.24422423 33.80685115 -13.98400821 32.10911292 -15.71875 30.40625 C-16.49154297 29.65666016 -17.26433594 28.90707031 -18.06054688 28.13476562 C-22.39681965 23.36180879 -22.43449608 19.1816112 -22.3125 12.9140625 C-21.74397844 7.61259899 -19.22134216 5.16027505 -15.5 1.625 C-10.44221514 -0.72325726 -5.48314207 -0.97097307 0 0 Z " fill="#B2AAFF" transform="translate(278,160)"/>
</svg>
