<svg xmlns="http://www.w3.org/2000/svg" viewBox="0 19.296154022216797 168.85000610351562 44.7038459777832" data-asc="0.95"><g fill="#1fbbdb"><g fill="#1fbbdb" transform="translate(0, 0)"><path d="M1.55 48.10Q0.80 47.70 0.40 47Q0 46.30 0 44.85Q0 43.80 0.58 42.63Q1.15 41.45 1.93 40.33Q2.70 39.20 3.25 38.30Q5.60 34.45 8 30.55Q10.40 26.65 11.70 23.30Q10.35 23.50 8.65 23.67Q6.95 23.85 5.20 23.85Q3.15 23.85 2.58 23.07Q2 22.30 2 21.40Q2.45 21.55 3.23 21.60Q4 21.65 5.10 21.65Q6.25 21.65 7.73 21.60Q9.20 21.55 10.90 21.45Q11.15 21.45 11.53 21.42Q11.90 21.40 12.30 21.35Q12.45 21.10 12.45 20.75Q12.85 20.75 13.10 20.90Q13.35 21.05 13.55 21.30Q15.25 21.10 17.03 20.95Q18.80 20.80 19.75 20.80Q21 20.80 21.53 21.25Q22.05 21.70 22.18 22.35Q22.30 23 22.30 23.65Q22 23.40 20.65 23.15Q19.30 22.90 16.75 22.90Q16.10 22.90 15.40 22.92Q14.70 22.95 13.90 23L13.90 23.75Q13.90 24.55 13.20 26.13Q12.50 27.70 11.48 29.57Q10.45 31.45 9.45 33.13Q8.45 34.80 7.85 35.75Q6.90 37.15 5.88 38.98Q4.85 40.80 3.95 42.55Q3 44.35 2.33 45.88Q1.65 47.40 1.55 48.10ZM19.30 47.75Q18.35 47.75 17.70 47.10Q17.05 46.45 17.05 45.25Q17.05 44.70 17.15 44.23Q17.25 43.75 17.40 43.40Q17.65 42.65 18.35 41.45Q19.05 40.25 19.90 38.92Q20.75 37.60 21.35 36.55Q22.10 35.25 22.10 34.30Q22.10 33.25 21.20 32.65Q20.85 32.40 20.50 32.17Q20.15 31.95 19.90 31.75L18.50 34Q17.30 35.65 16 37.40Q14.70 39.15 13.50 40.63Q12.30 42.10 11.45 43.10Q11.30 43.25 11.15 43.25Q10.90 43.25 10.75 43Q10.60 42.75 10.80 42.55Q12.75 40.35 14.55 38.05Q16.35 35.75 17.90 33.15L19.10 31.10Q18.90 30.95 18.48 30.45Q18.05 29.95 17.68 29.32Q17.30 28.70 17.30 28.25Q17.30 27.85 17.58 27.63Q17.85 27.40 18.55 27.40Q20.25 27.40 20.20 31.05Q20.90 31.60 21.75 31.90Q22.60 32.20 23.38 32.48Q24.15 32.75 24.65 33.25Q25.15 33.75 25.15 34.75Q25.15 35.60 24.68 36.73Q24.20 37.85 23.55 38.70Q23 39.45 22.28 40.50Q21.55 41.55 20.90 42.60Q20.25 43.65 19.95 44.50Q19.70 45.15 19.70 45.45Q19.70 46.10 20.30 46.10Q20.85 46.10 21.65 45.65Q22.70 45.10 23.83 44.08Q24.95 43.05 25.90 41.95Q26.45 41.40 26.90 40.88Q27.35 40.35 27.75 39.80Q27.90 39.65 28 39.65Q28.30 39.65 28.30 40.10Q28.30 40.35 28.10 40.55Q27.05 41.80 25.95 43.17Q24.85 44.55 23.60 45.65Q22.85 46.25 21.65 47Q20.45 47.75 19.30 47.75ZM29.10 47.70Q27.45 47.70 26.80 46.90Q26.15 46.10 26.15 44.95Q26.15 43.45 26.88 41.75Q27.60 40.05 28.15 39.10Q29.50 36.95 31.35 35Q33.20 33.05 35.28 31.82Q37.35 30.60 39.25 30.60Q40.25 30.60 41.20 30.93Q42.15 31.25 43.05 32Q43.50 32.35 43.68 32.67Q43.85 33 43.85 33.25Q43.85 34 43.20 34Q42.75 34 42.55 33.40Q41.90 31.70 40.45 31.70Q39.20 31.70 37.60 32.85Q36 34 34.45 35.60Q32.75 37.40 31.35 39.48Q29.95 41.55 29.25 43.25Q28.90 44 28.78 44.58Q28.65 45.15 28.65 45.55Q28.65 46.45 29.40 46.45Q30.25 46.45 31.90 45.20Q33.10 44.25 34.38 42.90Q35.65 41.55 36.75 40.23Q37.85 38.90 38.50 38.15Q38.75 37.75 38.98 37.40Q39.20 37.05 39.40 36.80Q39.60 36.55 40.08 36.40Q40.55 36.25 41.05 36.25Q41.65 36.25 42.05 36.45Q42.45 36.65 42.20 37.15Q42.20 37.20 41.65 38.17Q41.10 39.15 40.38 40.50Q39.65 41.85 39.10 43.10Q38.80 43.80 38.60 44.40Q38.40 45 38.40 45.40Q38.40 46.05 38.90 46.05Q39.25 46.05 39.95 45.65Q41.05 45.10 42.18 44.05Q43.30 43 44.25 41.90Q44.80 41.35 45.25 40.85Q45.70 40.35 46.10 39.80Q46.25 39.65 46.35 39.65Q46.65 39.65 46.65 40.10Q46.65 40.35 46.45 40.55Q45.90 41.20 45.35 41.88Q44.80 42.55 44.20 43.20Q43.65 43.85 43.08 44.48Q42.50 45.10 41.90 45.65Q39.75 47.65 37.95 47.65Q37.15 47.65 36.60 47.08Q36.05 46.50 36.05 45.25Q36.05 44.30 36.40 43.10Q36.50 42.55 36.73 42Q36.95 41.45 37.15 40.85Q36.15 42.45 34.88 44.02Q33.60 45.60 32.15 46.65Q30.70 47.70 29.10 47.70ZM48.60 48.10Q47.20 48.10 46.55 47.20Q45.90 46.30 45.90 44.85Q45.90 43.35 46.53 41.48Q47.15 39.60 48.23 37.67Q49.30 35.75 50.65 34.17Q52 32.60 53.40 31.75Q52.10 31.80 50.73 32.33Q49.35 32.85 48.35 32.85Q47.50 32.85 46.95 32.17Q46.40 31.50 46.40 31Q46.40 30.70 46.70 30.70Q46.90 30.70 47.25 30.90Q47.75 31.20 48.50 31.30Q49.25 31.40 50.10 31.40Q51.25 31.40 52.33 31.27Q53.40 31.15 53.95 31.10Q54.10 31.05 54.30 31.05Q54.50 31.05 54.70 31.05Q55.25 31.05 55.68 31.15Q56.10 31.25 56.10 31.55Q56.10 31.90 55.55 32.30Q54.85 32.80 53.68 34.20Q52.50 35.60 51.28 37.45Q50.05 39.30 49.15 41.20Q49.05 41.50 48.70 42.38Q48.35 43.25 48.05 44.25Q47.75 45.25 47.75 46.05Q47.75 47.25 48.60 47.25Q50.10 47.25 51.65 46.10Q53.20 44.95 54.60 43.10Q56 41.25 57.10 39.10Q58.20 36.95 58.85 34.85Q59.50 32.75 59.50 31.15Q59.50 30.30 59.45 29.60Q59.40 28.90 59.20 28.25Q59.35 28.20 59.50 28.20Q59.65 28.20 59.75 28.20Q60.90 28.20 61.43 29.25Q61.95 30.30 61.95 31.60Q61.95 34.15 60.28 37.38Q58.60 40.60 55.90 43.70Q55 44.65 53.88 45.67Q52.75 46.70 51.45 47.40Q50.15 48.10 48.60 48.10ZM64.60 48.25Q62.75 48.25 61.65 47.17Q60.55 46.10 60.55 44.15Q60.55 42.65 61.13 41Q61.70 39.35 62.25 38.40Q63.40 36.30 65.03 34.55Q66.65 32.80 68.38 31.73Q70.10 30.65 71.55 30.65Q72.90 30.65 73.88 31.40Q74.85 32.15 74.85 33.40Q74.85 33.90 74.60 34.55Q74.35 35.20 73.80 35.90Q71.80 38.45 69.38 39.88Q66.95 41.30 63.85 42Q63.65 42.65 63.50 43.27Q63.35 43.90 63.25 44.45Q63.20 44.70 63.18 44.92Q63.15 45.15 63.15 45.40Q63.15 46.40 63.63 46.83Q64.10 47.25 64.80 47.25Q65.90 47.25 67.15 46.67Q68.40 46.10 69.50 45.35Q70.60 44.60 71.15 44.15Q71.70 43.65 72.23 43.13Q72.75 42.60 73.40 41.95Q73.90 41.40 74.35 40.88Q74.80 40.35 75.20 39.80Q75.35 39.65 75.45 39.65Q75.75 39.65 75.75 40.10Q75.75 40.35 75.55 40.55Q74.65 41.65 73.75 42.73Q72.85 43.80 71.90 44.80Q70.80 45.95 68.88 47.10Q66.95 48.25 64.60 48.25M64.15 41.35Q65.45 40.80 67.18 39.75Q68.90 38.70 70.53 37.23Q72.15 35.75 73.20 34.05Q73.55 33.50 73.55 33.05Q73.55 32.35 72.75 32.35Q72.20 32.35 71.40 32.75Q68.90 34.10 67.10 36.40Q65.30 38.70 64.15 41.35ZM76.15 47.65Q75.20 47.65 74.55 47.02Q73.90 46.40 73.90 44.85Q73.90 44.50 73.95 44.08Q74 43.65 74.10 43.15Q74.35 41.80 75.15 39.70Q75.95 37.60 77.05 35.23Q78.15 32.85 79.30 30.63Q80.45 28.40 81.40 26.80Q83.25 23.75 84.85 22.10Q86.45 20.45 87.70 19.85Q88.95 19.25 89.80 19.30Q88.50 20.75 86.95 22.85Q85.40 24.95 83.65 27.90Q81.45 31.70 79.83 34.80Q78.20 37.90 77.05 41.15Q76.40 43.05 76.40 44.25Q76.40 45.95 77.55 45.95Q78.45 45.95 79.58 45.05Q80.70 44.15 81.35 43.45Q82.35 42.45 83.13 41.58Q83.90 40.70 84.65 39.80Q84.80 39.65 84.90 39.65Q85.20 39.65 85.20 40.10Q85.20 40.35 85 40.55Q84.45 41.20 83.92 41.88Q83.40 42.55 82.80 43.20Q82.30 43.85 81.67 44.48Q81.05 45.10 80.45 45.65Q79.60 46.45 78.40 47.05Q77.20 47.65 76.15 47.65ZM102.10 48.25Q99.85 48.25 98.15 47.42Q96.45 46.60 95.25 45.48Q94.05 44.35 93.22 43.48Q92.40 42.60 91.95 42.55Q92.15 41.90 92.52 41.55Q92.90 41.20 93.65 41.20Q94.60 41.20 95.27 41.85Q95.95 42.50 96.95 43.65Q98.35 45.15 99.72 46.02Q101.10 46.90 102.95 46.90Q104.10 46.90 105.17 46.23Q106.25 45.55 106.25 44.30Q106.25 43.10 105.33 42.20Q104.40 41.30 103.03 40.45Q101.65 39.60 100.27 38.63Q98.90 37.65 97.97 36.30Q97.05 34.95 97.05 33Q97.05 30.50 98.22 28.27Q99.40 26.05 101.30 24.35Q103.20 22.65 105.45 21.70Q107.70 20.75 109.85 20.75Q111.75 20.75 112.78 22.15Q113.80 23.55 113.80 25.65Q113.80 26.55 113.28 27.55Q112.75 28.55 112.03 29.60Q111.30 30.65 110.78 31.73Q110.25 32.80 110.25 33.85Q109.50 33.85 109.03 33.17Q108.55 32.50 108.55 31.70Q108.55 30.55 109.08 29.57Q109.60 28.60 110.30 27.70Q111 26.80 111.53 25.90Q112.05 25 112.05 23.95Q112.05 23.75 111.78 23.10Q111.50 22.45 110.40 22.45Q108.90 22.45 107.10 23.45Q105.30 24.45 103.65 26.02Q102 27.60 100.95 29.38Q99.90 31.15 99.90 32.65Q99.90 34.10 100.80 35.20Q101.70 36.30 103.03 37.17Q104.35 38.05 105.65 38.90Q106.95 39.75 107.85 40.75Q108.75 41.75 108.75 43.10Q108.75 44.85 107.80 46Q106.85 47.15 105.35 47.70Q103.85 48.25 102.10 48.25ZM113.90 47.65Q112.80 47.65 112.05 47Q111.30 46.35 111.30 44.80Q111.30 44.40 111.35 44Q111.40 43.60 111.50 43.15Q111.90 41.15 113.15 38.27Q114.40 35.40 116.35 31.75L114.45 31.75Q113.90 31.75 113.90 31.45Q113.90 31.30 114.18 31.13Q114.45 30.95 114.95 30.95L116.75 30.95Q117.60 29.50 118.13 28.68Q118.65 27.85 119 27.40Q120.30 25.75 121.38 25.07Q122.45 24.40 123.25 24.30Q124.05 24.20 124.40 24.20Q123.70 24.95 122.85 26.15Q122 27.35 121.20 28.63Q120.40 29.90 119.85 30.95L124.95 30.95Q125.50 30.95 125.50 31.20Q125.50 31.40 125.20 31.57Q124.90 31.75 124.40 31.75L119.35 31.75Q118.55 33.20 117.93 34.33Q117.30 35.45 116.68 36.70Q116.05 37.95 115.15 39.80Q114.45 41.35 114.13 42.45Q113.80 43.55 113.80 44.30Q113.80 45.25 114.20 45.65Q114.60 46.05 115.20 46.05Q115.80 46.05 116.60 45.65Q117.70 45.10 118.80 44.05Q119.90 43 120.90 41.90Q121.40 41.35 121.85 40.85Q122.30 40.35 122.70 39.80Q122.85 39.65 122.95 39.65Q123.25 39.65 123.25 40.05Q123.25 40.35 123.05 40.55Q122 41.85 120.85 43.20Q119.50 44.75 117.85 46.20Q116.20 47.65 113.90 47.65ZM125.30 47.85Q123.45 47.85 122.53 46.65Q121.60 45.45 121.60 43.60Q121.60 41.50 122.70 39Q123.70 36.75 125.28 34.90Q126.85 33.05 128.70 31.92Q130.55 30.80 132.25 30.80Q134.30 30.80 135.25 32.05Q136.20 33.30 136.20 35.20Q136.20 37.25 135.15 39.60Q134.60 40.80 133.55 42.20Q132.50 43.60 131.15 44.90Q129.80 46.20 128.28 47.02Q126.75 47.85 125.30 47.85M126.25 46.85Q127.30 46.85 128.35 46.13Q129.40 45.40 130.35 44.35Q131.30 43.30 132.03 42.23Q132.75 41.15 133.10 40.40Q133.95 38.80 134.35 37.33Q134.75 35.85 134.75 34.75Q134.75 32.35 132.95 32.35Q131.85 32.35 130.63 33.23Q129.40 34.10 128.25 35.55Q127.10 37 126.25 38.80Q124.45 42.40 124.45 44.65Q124.45 46.45 125.60 46.75Q125.75 46.80 125.90 46.83Q126.05 46.85 126.25 46.85ZM143.90 47.75Q142.95 47.75 142.30 47.10Q141.65 46.45 141.65 45.25Q141.65 44.70 141.75 44.23Q141.85 43.75 142 43.40Q142.25 42.65 142.95 41.45Q143.65 40.25 144.50 38.92Q145.35 37.60 145.95 36.55Q146.70 35.25 146.70 34.30Q146.70 33.25 145.80 32.65Q145.45 32.40 145.10 32.17Q144.75 31.95 144.50 31.75L143.10 34Q141.90 35.65 140.60 37.40Q139.30 39.15 138.10 40.63Q136.90 42.10 136.05 43.10Q135.90 43.25 135.75 43.25Q135.50 43.25 135.35 43Q135.20 42.75 135.40 42.55Q137.35 40.35 139.15 38.05Q140.95 35.75 142.50 33.15L143.70 31.10Q143.50 30.95 143.08 30.45Q142.65 29.95 142.28 29.32Q141.90 28.70 141.90 28.25Q141.90 27.85 142.18 27.63Q142.45 27.40 143.15 27.40Q144.85 27.40 144.80 31.05Q145.50 31.60 146.35 31.90Q147.20 32.20 147.97 32.48Q148.75 32.75 149.25 33.25Q149.75 33.75 149.75 34.75Q149.75 35.60 149.28 36.73Q148.80 37.85 148.15 38.70Q147.60 39.45 146.88 40.50Q146.15 41.55 145.50 42.60Q144.85 43.65 144.55 44.50Q144.30 45.15 144.30 45.45Q144.30 46.10 144.90 46.10Q145.45 46.10 146.25 45.65Q147.30 45.10 148.43 44.08Q149.55 43.05 150.50 41.95Q151.05 41.40 151.50 40.88Q151.95 40.35 152.35 39.80Q152.50 39.65 152.60 39.65Q152.90 39.65 152.90 40.10Q152.90 40.35 152.70 40.55Q151.65 41.80 150.55 43.17Q149.45 44.55 148.20 45.65Q147.45 46.25 146.25 47Q145.05 47.75 143.90 47.75ZM147.50 64Q146.10 64 145.32 63.25Q144.55 62.50 144.55 61.10Q144.55 59.10 145.70 57.30Q146.85 55.50 148.63 53.98Q150.40 52.45 152.30 51.20Q154.20 49.95 155.75 49.05Q157.30 48.15 157.95 47.65Q159.20 45.40 160.30 43.02Q161.40 40.65 162.25 38.30Q160.95 40.60 159.43 42.70Q157.90 44.80 156.38 46.15Q154.85 47.50 153.45 47.50Q152 47.50 151.50 46.52Q151 45.55 151 44.40Q151 43.50 151.18 42.65Q151.35 41.80 151.50 41.40Q151.95 40.10 152.65 38.52Q153.35 36.95 154.07 35.42Q154.80 33.90 155.35 32.75Q155.75 31.90 156.85 31.27Q157.95 30.65 158.65 30.65Q159.40 30.65 159.40 31.20Q159.40 31.60 158.95 32.35Q158.55 33.05 157.75 34.55Q156.95 36.05 156.03 37.85Q155.10 39.65 154.35 41.30Q153.45 43.25 153.45 44.80Q153.45 45.45 153.65 45.85Q153.85 46.25 154.30 46.25Q154.70 46.25 155.35 45.80Q156 45.35 156.85 44.30Q157.30 43.80 158.22 42.60Q159.15 41.40 160.25 39.77Q161.35 38.15 162.35 36.33Q163.35 34.50 163.95 32.80L164.25 31.70Q164.65 31.35 165.05 31.35Q165.60 31.35 166 31.85Q166.40 32.35 166.45 32.45Q165.65 35.35 164.45 38.65Q163.25 41.95 161.35 46.05Q163.25 44.85 164.55 43.73Q165.85 42.60 166.45 41.95Q166.95 41.40 167.43 40.85Q167.90 40.30 168.30 39.75Q168.45 39.60 168.55 39.60Q168.85 39.60 168.85 40.05Q168.85 40.35 168.65 40.55Q168.10 41.20 167.57 41.88Q167.05 42.55 166.45 43.25Q165.45 44.35 163.78 45.63Q162.10 46.90 160.50 47.80Q159.25 50.75 157.88 53.63Q156.50 56.50 154.95 58.85Q153.40 61.20 151.55 62.60Q149.70 64 147.50 64M147.30 62.95Q148.60 62.95 149.88 61.90Q151.15 60.85 152.30 59.17Q153.45 57.50 154.45 55.60Q155.45 53.70 156.22 51.95Q157 50.20 157.50 49.05Q156.65 49.60 155.20 50.63Q153.75 51.65 152.10 52.95Q150.45 54.25 148.97 55.70Q147.50 57.15 146.57 58.58Q145.65 60 145.65 61.20Q145.65 61.80 146 62.38Q146.35 62.95 147.30 62.95Z"/></g></g></svg>